<svg xmlns="http://www.w3.org/2000/svg" width="82" height="81" viewBox="0 0 82 81" fill="none">
<path d="M13.5223 9.02868V11.5512C13.5203 12.2195 13.2539 12.8601 12.7813 13.3327C12.3087 13.8053 11.6682 14.0717 10.9998 14.0737H8.47733C7.80894 14.0717 7.16849 13.8053 6.69586 13.3327C6.22324 12.8601 5.95683 12.2195 5.95483 11.5512V3.98368C5.95683 3.31529 6.22324 2.67484 6.69586 2.20221C7.16849 1.72959 7.80894 1.46318 8.47733 1.46118H10.9998C11.6682 1.46318 12.3087 1.72959 12.7813 2.20221C13.2539 2.67484 13.5203 3.31529 13.5223 3.98368V9.02868ZM76.5848 3.98368V11.5512C76.5828 12.2195 76.3164 12.8601 75.8438 13.3327C75.3712 13.8053 74.7307 14.0717 74.0623 14.0737H71.5398C70.8715 14.0717 70.231 13.8053 69.7583 13.3327C69.2857 12.8601 69.0193 12.2195 69.0173 11.5512V3.98368C69.0193 3.31529 69.2857 2.67484 69.7583 2.20221C70.231 1.72959 70.8715 1.46318 71.5398 1.46118H74.0623C74.7307 1.46318 75.3712 1.72959 75.8438 2.20221C76.3164 2.67484 76.5828 3.31529 76.5848 3.98368Z" fill="#DEA8E4"/>
<path d="M71.5398 10.2899V1.46118C70.8715 1.46318 70.231 1.72959 69.7583 2.20221C69.2857 2.67484 69.0193 3.31529 69.0173 3.98368V11.5512C69.0193 12.2195 69.2857 12.8601 69.7583 13.3327C70.231 13.8053 70.8715 14.0717 71.5398 14.0737H74.0623C74.7307 14.0717 75.3712 13.8053 75.8438 13.3327C76.3164 12.8601 76.5828 12.2195 76.5848 11.5512H72.8011C72.4666 11.5512 72.1457 11.4183 71.9092 11.1818C71.6727 10.9453 71.5398 10.6244 71.5398 10.2899ZM8.47733 10.2899V1.46118C7.80894 1.46318 7.16849 1.72959 6.69586 2.20221C6.22324 2.67484 5.95683 3.31529 5.95483 3.98368V11.5512C5.95683 12.2195 6.22324 12.8601 6.69586 13.3327C7.16849 13.8053 7.80894 14.0717 8.47733 14.0737H10.9998C11.6682 14.0717 12.3087 13.8053 12.7813 13.3327C13.2539 12.8601 13.5203 12.2195 13.5223 11.5512H9.73858C9.40408 11.5512 9.08328 11.4183 8.84675 11.1818C8.61022 10.9453 8.47733 10.6244 8.47733 10.2899Z" fill="#D979E4"/>
<path d="M69.0173 5.24487V10.2899H13.5223V5.24487H69.0173ZM52.6211 30.3185L46.9455 36.1329L48.2824 44.3436L41.2698 40.4716L34.2573 44.3436L35.5942 36.1329L29.9186 30.3185L37.7636 29.1203L41.2698 21.6411L44.7761 29.1203L52.6211 30.3185Z" fill="#DEA8E4"/>
<path d="M69.0173 11.5513V77.7165C69.017 78.2315 68.8123 78.7254 68.4481 79.0895C68.0839 79.4538 67.59 79.6585 67.075 79.6588C66.699 79.6572 66.3313 79.5477 66.0156 79.3435L41.2698 63.2625L16.5241 79.3435C16.2084 79.5477 15.8407 79.6572 15.4647 79.6588C14.9497 79.6585 14.4558 79.4538 14.0916 79.0895C13.7274 78.7254 13.5226 78.2315 13.5223 77.7165V10.29H18.5673V72.0913L41.2698 56.9563L63.9723 72.0913V10.29H69.0173V11.5513Z" fill="#B134FF"/>
<path d="M63.9723 10.29V72.0913L41.2698 56.9563L18.5673 72.0913V10.29H63.9723ZM46.9454 36.1331L52.6211 30.3187L44.7761 29.1205L41.2698 21.6413L37.7635 29.1205L29.9186 30.3187L35.5942 36.1331L34.2573 44.3438L41.2698 40.4718L48.2824 44.3438L46.9454 36.1331Z" fill="#E6EAE9"/>
<path d="M13.5223 5.24487V10.2899H69.0173V5.24487H66.4948C66.4948 5.91388 66.2291 6.55549 65.756 7.02855C65.2829 7.50161 64.6413 7.76737 63.9723 7.76737H18.5673C17.8984 7.76737 17.2567 7.50161 16.7836 7.02855C16.3106 6.55549 16.0448 5.91388 16.0448 5.24487H13.5223Z" fill="#DEA8E4"/>
<path d="M37.7636 29.1203L29.9186 30.3185L35.5942 36.1329L34.2573 44.3436L41.2698 40.4716V21.6411L37.7636 29.1203Z" fill="#DEA8E4"/>
<path d="M69.0173 14.0738V10.29H63.9723V14.0738H69.0173ZM18.5673 72.0913V10.29H13.5223V77.7165C13.5226 78.2315 13.7274 78.7254 14.0916 79.0895C14.4558 79.4538 14.9497 79.6585 15.4647 79.6588C15.8407 79.6572 16.2084 79.5477 16.5241 79.3435L41.2698 63.2625V56.9563L18.5673 72.0913Z" fill="#DEA8E4"/>
<path d="M41.2698 56.9563V40.4718L34.2573 44.3438L35.5942 36.1331L29.9186 30.3187L37.7635 29.1205L41.2698 21.6413V19.1188C41.2698 17.7808 41.8014 16.4975 42.7475 15.5515C43.6935 14.6053 44.9768 14.0738 46.3148 14.0738H63.9723V10.29H18.5673V72.0913L41.2698 56.9563Z" fill="#E6EAE9"/>
<path d="M62.7111 10.29V69.7353L41.9699 55.9069C41.7625 55.7686 41.5189 55.6948 41.2698 55.6948C41.0207 55.6948 40.7771 55.7686 40.5698 55.9069L19.8286 69.7353V10.29H18.5673V72.0913L41.2698 56.9563L63.9723 72.0913V10.29H62.7111Z" fill="#DEA8E4"/>
<path d="M76.5849 5.24489C76.5849 4.54832 76.0202 3.98364 75.3236 3.98364C74.627 3.98364 74.0624 4.54832 74.0624 5.24489V9.02864C74.0624 9.72522 74.627 10.2899 75.3236 10.2899C76.0202 10.2899 76.5849 9.72522 76.5849 9.02864V5.24489Z" fill="#D979E4"/>
<path d="M13.5224 5.24489C13.5224 4.54832 12.9577 3.98364 12.2611 3.98364C11.5645 3.98364 10.9999 4.54832 10.9999 5.24489V9.02864C10.9999 9.72522 11.5645 10.2899 12.2611 10.2899C12.9577 10.2899 13.5224 9.72522 13.5224 9.02864V5.24489Z" fill="#D979E4"/>
</svg>