<svg xmlns="http://www.w3.org/2000/svg" width="188" height="55" viewBox="0 0 188 55" fill="none">
<path d="M39.9384 54.4532H13.6303C10.0166 54.4532 6.55087 53.0177 3.9956 50.4624C1.44033 47.9072 0.00488281 44.4415 0.00488281 40.8278V14.5159C0.00488281 10.9022 1.44033 7.43646 3.9956 4.88119C6.55087 2.32592 10.0166 0.890381 13.6303 0.890381H39.9384C43.5525 0.890381 47.0185 2.32575 49.5744 4.88091C52.1303 7.43607 53.5667 10.9018 53.5677 14.5159V40.8278C53.5667 44.4418 52.1303 47.9075 49.5744 50.4626C47.0185 53.0178 43.5525 54.4532 39.9384 54.4532Z" fill="white"/>
<path d="M44.6492 26.5737L41.5102 26.8496C41.5102 26.7308 41.5102 26.612 41.4872 26.4932V26.3437C41.4298 25.4874 41.3081 24.6368 41.123 23.7988C39.4711 16.3824 33.0743 12.3005 26.7119 11.8827C26.3287 11.8559 25.9454 11.8405 25.5621 11.8405C19.5677 11.8405 12.4195 15.3475 12.0133 25.2284C11.9867 26.9684 12.3102 28.6961 12.9647 30.3086C13.6192 31.9211 14.5912 33.3855 15.823 34.6148C18.3367 37.1376 21.7439 38.5671 25.3052 38.5932C28.1542 38.6363 30.9065 37.5602 32.9707 35.596L33.2621 35.3162L35.485 37.543L35.1899 37.8343C33.2322 39.7627 30.7285 41.042 28.0188 41.4985C27.2137 41.6387 26.3984 41.7118 25.5812 41.7169H25.4586C20.9332 41.6646 16.6088 39.8383 13.4159 36.6309C11.9236 35.1344 10.7509 33.3504 9.96887 31.387C9.18682 29.4237 8.81187 27.3219 8.86657 25.2092C9.1387 19.9507 11.0282 15.6273 14.332 12.699C17.2564 10.1042 21.231 8.67846 25.5161 8.67846C30.7142 8.66079 35.709 10.6967 39.4136 14.3433C42.6276 17.5852 44.4967 21.9229 44.6454 26.4856C44.6454 26.52 44.6454 26.5546 44.6454 26.589" fill="#D02C2F"/>
<path d="M26.3474 34.3386L25.7916 34.1124C23.628 33.2479 21.8303 31.6614 20.7035 29.6221C19.5766 27.5828 19.19 25.2164 19.6094 22.9246C20.7171 17.9113 24.3429 14.9179 29.3101 14.9179C34.3617 14.9179 39.6586 18.1834 41.1189 23.7831C41.3416 24.6378 41.4702 25.5144 41.5022 26.3971V26.4737V26.834C41.614 29.1177 41.226 31.3984 40.3655 33.5167C39.5049 35.635 38.1924 37.5401 36.5196 39.0988C34.1556 41.3775 31.1396 42.8621 27.892 43.3455C27.148 43.4516 26.3975 43.5053 25.646 43.5065H25.1708V46.6647H26.1481C26.7684 46.6604 27.3877 46.6195 28.0031 46.542C32.0433 46.0122 35.8059 44.1968 38.7349 41.3639C42.6136 37.6577 44.7753 32.6291 44.6756 27.566C44.6756 27.2287 44.6756 26.8915 44.6756 26.558V26.4545L44.6489 26.1441C43.9858 18.4785 38.4207 12.5646 31.127 11.7482C30.4921 11.6587 29.8517 11.614 29.2106 11.6141C28.3807 11.6112 27.5525 11.6908 26.7384 11.8517C21.0774 12.9708 17.5897 17.8538 16.666 22.434C15.7231 27.0984 17.0491 33.572 23.9213 36.4581L24.1743 36.5653" fill="#D02C2F"/>
<path d="M44.4526 43.6499H43.5248V43.204H45.943V43.6499H45.0152V46.068H44.4526V43.6499Z" fill="#EDEEEE"/>
<path d="M48.9069 44.9433C48.9069 44.4412 48.907 43.8949 48.928 43.5776H48.9069C48.7726 44.1199 48.4074 45.1843 48.1009 46.068H47.6181C47.3872 45.3008 47.0093 44.1158 46.8791 43.5695H46.8582C46.8834 43.9069 46.8959 44.5095 46.8959 45.0036V46.0841H46.3795V43.2201H47.2192C47.4921 44.0235 47.807 45.0276 47.8994 45.4333C47.9749 45.0919 48.357 43.9994 48.6425 43.2201H49.4528V46.0841H48.9069V44.9433Z" fill="#EDEEEE"/>
<path d="M80.1756 30.4544C73.9412 30.4544 69.214 25.8792 69.214 19.882C69.214 13.8847 73.9412 9.26132 80.1756 9.26132C82.615 9.21819 84.9905 10.0098 86.874 11.4938C88.7574 12.9777 90.0251 15.0564 90.4489 17.3553H85.8308C85.4516 16.2079 84.6948 15.2085 83.6734 14.5063C82.652 13.8041 81.4206 13.4367 80.1631 13.4589C76.5694 13.4589 73.8657 16.2266 73.8657 19.886C73.8657 23.5454 76.582 26.2607 80.1631 26.2607C81.4701 26.2872 82.7476 25.8871 83.7853 25.1264C84.8231 24.3656 85.5594 23.2895 85.8728 22.0752H90.4909C89.5295 27.0963 85.4066 30.4544 80.1504 30.4544H80.1756Z" fill="white"/>
<path d="M93.6898 22.1796C93.6898 17.4236 97.4684 13.9007 102.544 13.9007C107.62 13.9007 111.398 17.4316 111.398 22.1796C111.398 26.9276 107.59 30.4584 102.544 30.4584C97.4978 30.4584 93.6898 26.9035 93.6898 22.1796ZM106.91 22.1796C106.91 19.6409 105.097 17.8856 102.544 17.8856C99.9915 17.8856 98.1779 19.6409 98.1779 22.1796C98.1779 24.7183 99.9915 26.4736 102.544 26.4736C105.097 26.4736 106.91 24.7183 106.91 22.1796Z" fill="white"/>
<path d="M138.972 20.1873V30.0166H134.547V20.8902C134.547 18.7974 133.687 17.6968 132.083 17.6968C130.106 17.6968 128.934 19.0906 128.934 21.5409V30.0166H124.619V20.8902C124.619 18.7974 123.779 17.6968 122.2 17.6968C120.198 17.6968 119.001 19.0906 119.001 21.5409V30.0166H114.572V14.3507H118.498V16.2949C119.078 15.5841 119.819 15.0071 120.664 14.6067C121.509 14.2062 122.437 13.9925 123.38 13.9812C124.335 13.9504 125.282 14.167 126.119 14.6081C126.956 15.0493 127.653 15.6988 128.137 16.4877C128.709 15.7116 129.468 15.0787 130.35 14.6425C131.232 14.2062 132.211 13.9794 133.204 13.9812C136.596 13.9812 138.972 16.5239 138.972 20.1953" fill="white"/>
<path d="M166.551 20.1872V30.0166H162.122V20.8902C162.122 18.7974 161.282 17.6968 159.661 17.6968C157.684 17.6968 156.513 19.0906 156.513 21.5409V30.0166H152.193V20.8902C152.193 18.7974 151.353 17.6968 149.775 17.6968C147.772 17.6968 146.575 19.0906 146.575 21.5409V30.0166H142.15V14.3507H146.072V16.2949C146.653 15.5835 147.394 15.0062 148.24 14.6058C149.086 14.2053 150.015 13.9918 150.958 13.9812C151.913 13.9511 152.858 14.168 153.695 14.6092C154.531 15.0504 155.228 15.6994 155.711 16.4877C156.285 15.7118 157.045 15.079 157.927 14.6428C158.81 14.2066 159.789 13.9797 160.782 13.9812C164.17 13.9812 166.551 16.5238 166.551 20.1953" fill="white"/>
<path d="M187.475 14.3185V29.9844H183.697V28.5825C182.199 29.8063 180.288 30.4698 178.319 30.4504C173.39 30.4504 169.725 26.8914 169.725 22.1474C169.725 17.4035 173.39 13.8928 178.319 13.8928C180.298 13.871 182.214 14.5539 183.697 15.8088V14.3105L187.475 14.3185ZM183.138 22.1555C183.157 21.589 183.055 21.0249 182.838 20.4975C182.621 19.9702 182.294 19.4907 181.877 19.0887C181.459 18.6866 180.96 18.3703 180.41 18.1593C179.861 17.9483 179.272 17.8469 178.68 17.8615C178.087 17.847 177.498 17.9483 176.948 18.1593C176.397 18.3702 175.898 18.6864 175.48 19.0883C175.062 19.4902 174.734 19.9696 174.516 20.4969C174.298 21.0243 174.195 21.5886 174.213 22.1555C174.195 22.7223 174.298 23.2867 174.516 23.8141C174.734 24.3415 175.062 24.8208 175.48 25.2228C175.898 25.6247 176.397 25.9408 176.948 26.1518C177.498 26.3627 178.087 26.4641 178.68 26.4496C179.272 26.4641 179.861 26.3627 180.41 26.1517C180.96 25.9407 181.459 25.6244 181.877 25.2224C182.294 24.8203 182.621 24.3409 182.838 23.8135C183.055 23.2862 183.157 22.7219 183.138 22.1555Z" fill="white"/>
<path d="M70.1753 42.8023V35.2067H72.8577C73.4779 35.2067 73.9869 35.3081 74.3849 35.5109C74.7829 35.7111 75.0775 35.9868 75.2687 36.3379C75.4599 36.689 75.5555 37.0883 75.5555 37.5358C75.5555 37.9834 75.4599 38.3802 75.2687 38.7264C75.0775 39.0725 74.7842 39.3445 74.3888 39.5423C73.9934 39.7376 73.4882 39.8353 72.8732 39.8353H70.7025V39.0045H72.8422C73.266 39.0045 73.6071 38.9452 73.8655 38.8265C74.1265 38.7078 74.3151 38.5397 74.4314 38.3221C74.5503 38.1021 74.6097 37.84 74.6097 37.5358C74.6097 37.2317 74.5503 36.9659 74.4314 36.7385C74.3125 36.511 74.1226 36.3354 73.8616 36.2118C73.6006 36.0857 73.2556 36.0227 72.8267 36.0227H71.1366V42.8023H70.1753ZM73.912 39.3902L75.8656 42.8023H74.7493L72.8267 39.3902H73.912Z" fill="white"/>
<path d="M77.0333 42.8023V37.1056H77.9481V42.8023H77.0333ZM77.4985 36.1562C77.3202 36.1562 77.1664 36.0981 77.0372 35.9819C76.9106 35.8657 76.8473 35.726 76.8473 35.5628C76.8473 35.3996 76.9106 35.2599 77.0372 35.1437C77.1664 35.0275 77.3202 34.9694 77.4985 34.9694C77.6768 34.9694 77.8293 35.0275 77.9559 35.1437C78.0851 35.2599 78.1497 35.3996 78.1497 35.5628C78.1497 35.726 78.0851 35.8657 77.9559 35.9819C77.8293 36.0981 77.6768 36.1562 77.4985 36.1562Z" fill="white"/>
<path d="M81.8719 42.921C81.3757 42.921 80.9377 42.8011 80.5578 42.5612C80.1779 42.3189 79.8808 41.9777 79.6663 41.5376C79.4518 41.095 79.3446 40.5721 79.3446 39.9688C79.3446 39.3705 79.4518 38.8512 79.6663 38.4111C79.8808 37.971 80.1792 37.631 80.5617 37.3912C80.9442 37.1514 81.386 37.0315 81.8874 37.0315C82.275 37.0315 82.5812 37.0933 82.806 37.2169C83.0334 37.338 83.2066 37.4765 83.3255 37.6323C83.4469 37.7856 83.5412 37.9117 83.6084 38.0106H83.6859V35.2067H84.6007V42.8023H83.717V41.927H83.6084C83.5412 42.0309 83.4456 42.1619 83.3216 42.3202C83.1975 42.4759 83.0205 42.6156 82.7905 42.7393C82.5605 42.8604 82.2543 42.921 81.8719 42.921ZM81.9959 42.1347C82.3629 42.1347 82.673 42.0432 82.9262 41.8603C83.1795 41.6748 83.372 41.4189 83.5038 41.0926C83.6356 40.7637 83.7015 40.3842 83.7015 39.954C83.7015 39.5287 83.6368 39.1566 83.5076 38.8376C83.3784 38.5162 83.1872 38.2665 82.934 38.0885C82.6807 37.908 82.368 37.8177 81.9959 37.8177C81.6083 37.8177 81.2853 37.9129 81.0268 38.1033C80.771 38.2912 80.5785 38.5471 80.4493 38.871C80.3227 39.1924 80.2593 39.5534 80.2593 39.954C80.2593 40.3595 80.324 40.7279 80.4532 41.0592C80.585 41.388 80.7788 41.6501 81.0346 41.8454C81.293 42.0383 81.6135 42.1347 81.9959 42.1347Z" fill="white"/>
<path d="M88.8995 42.921C88.3258 42.921 87.8309 42.7998 87.4149 42.5575C87.0014 42.3128 86.6823 41.9715 86.4575 41.5339C86.2352 41.0938 86.1241 40.582 86.1241 39.9985C86.1241 39.415 86.2352 38.9007 86.4575 38.4556C86.6823 38.0081 86.995 37.6595 87.3955 37.4097C87.7986 37.1576 88.269 37.0315 88.8065 37.0315C89.1166 37.0315 89.4228 37.0809 89.7251 37.1798C90.0275 37.2787 90.3027 37.4394 90.5508 37.6619C90.7989 37.882 90.9965 38.1738 91.1438 38.5372C91.2911 38.9007 91.3648 39.3482 91.3648 39.8798V40.2507H86.7753V39.4941H90.4345C90.4345 39.1727 90.3673 38.8858 90.2329 38.6336C90.1011 38.3814 89.9125 38.1824 89.667 38.0365C89.4241 37.8907 89.1372 37.8177 88.8065 37.8177C88.4421 37.8177 88.1268 37.9043 87.8607 38.0773C87.5971 38.2479 87.3942 38.4705 87.2521 38.7449C87.11 39.0194 87.0389 39.3136 87.0389 39.6276V40.132C87.0389 40.5622 87.1164 40.9269 87.2715 41.2261C87.4291 41.5228 87.6475 41.749 87.9266 41.9048C88.2056 42.0581 88.53 42.1347 88.8995 42.1347C89.1398 42.1347 89.3569 42.1026 89.5507 42.0383C89.7471 41.9715 89.9164 41.8726 90.0585 41.7416C90.2006 41.6081 90.3104 41.4424 90.388 41.2446L91.2718 41.482C91.1787 41.7688 91.0224 42.021 90.8027 42.2386C90.5831 42.4537 90.3117 42.6218 89.9887 42.743C89.6657 42.8616 89.3026 42.921 88.8995 42.921Z" fill="white"/>
</svg>