<svg width="174" height="59" viewBox="0 0 174 59" fill="none" xmlns="http://www.w3.org/2000/svg">
<path d="M29.682 44.5104H28.7493V44.0474H31.1763V44.5104H30.2435V47.0124H29.682V44.5104Z" fill="#EDEEEE"/>
<path d="M34.1648 45.8458C34.1648 45.3293 34.1648 44.7596 34.1648 44.4391C34.029 45 33.6576 46.0773 33.3497 47.0122H32.8698C32.6343 46.2198 32.254 44.9911 32.1181 44.4302C32.1181 44.7685 32.1181 45.4006 32.1181 45.9081V47.0122H31.6019V44.0474H32.4441C32.7158 44.8665 33.0328 45.917 33.1233 46.3355C33.1958 45.9794 33.5852 44.8487 33.8659 44.0474H34.681V47.0122H34.1376L34.1648 45.8458Z" fill="#EDEEEE"/>
<path d="M65.6348 30.8785C64.1739 30.8992 62.7239 30.6301 61.3712 30.0872C60.0186 29.5444 58.7912 28.7389 57.7623 27.7191C56.7335 26.6992 55.9244 25.4858 55.3834 24.1515C54.8423 22.8172 54.5806 21.3894 54.6136 19.9534C54.5744 18.5136 54.8316 17.0809 55.3698 15.7414C55.9081 14.4019 56.7162 13.1831 57.7457 12.1584C58.7752 11.1338 60.0047 10.3244 61.3604 9.77886C62.7161 9.23328 64.17 8.96276 65.6348 8.98368C68.0862 8.94055 70.4729 9.75896 72.3654 11.2916C74.2579 12.8243 75.5321 14.9706 75.9587 17.3445H71.331C70.9502 16.1592 70.1897 15.1269 69.1631 14.4016C68.1365 13.6762 66.8987 13.2967 65.6348 13.3199C62.0123 13.3199 59.2955 16.1781 59.2955 19.9534C59.2462 20.8013 59.3736 21.6502 59.67 22.448C59.9664 23.2458 60.4255 23.9756 61.0191 24.5926C61.6128 25.2096 62.3284 25.7008 63.1221 26.0361C63.9158 26.3714 64.7709 26.5436 65.6348 26.5422C66.9494 26.5696 68.2344 26.156 69.2781 25.3694C70.3217 24.5828 71.0617 23.4702 71.3763 22.2149H76.0311C75.6586 24.6517 74.3996 26.8729 72.4876 28.4662C70.5757 30.0595 68.1407 30.9166 65.6348 30.8785Z" fill="white"/>
<path d="M79.2187 22.3307C79.2006 21.1855 79.42 20.0486 79.8636 18.9895C80.3071 17.9304 80.9655 16.9713 81.7985 16.1706C82.6315 15.3699 83.6217 14.7444 84.7087 14.3324C85.7957 13.9204 86.9566 13.7304 88.1207 13.7741C89.2842 13.733 90.444 13.9247 91.5298 14.3376C92.6156 14.7506 93.6048 15.3762 94.4373 16.1764C95.2697 16.9765 95.9281 17.9346 96.3726 18.9925C96.8171 20.0505 97.0383 21.1862 97.0228 22.3307C97.0357 23.4742 96.8128 24.6084 96.3673 25.6647C95.9218 26.721 95.2631 27.6775 94.4311 28.4765C93.599 29.2755 92.6108 29.9003 91.5262 30.3132C90.4415 30.726 89.2831 30.9184 88.1207 30.8786C86.9577 30.9209 85.7981 30.7303 84.7124 30.3184C83.6266 29.9064 82.6373 29.2816 81.8047 28.4822C80.9721 27.6827 80.3135 26.7252 79.8689 25.6677C79.4243 24.6103 79.2031 23.4749 79.2187 22.3307ZM92.5129 22.3307C92.5484 21.7483 92.4601 21.1651 92.2537 20.6181C92.0474 20.0711 91.7274 19.5723 91.3142 19.1535C90.9011 18.7347 90.4038 18.4051 89.854 18.1856C89.3041 17.9661 88.7139 17.8617 88.1207 17.8788C87.528 17.8616 86.9381 17.9661 86.3887 18.1856C85.8393 18.4052 85.3425 18.735 84.9301 19.1539C84.5176 19.5729 84.1985 20.0717 83.9932 20.6187C83.7879 21.1657 83.7008 21.7488 83.7376 22.3307C83.7008 22.9127 83.7879 23.4958 83.9932 24.0428C84.1985 24.5898 84.5176 25.0887 84.9301 25.5076C85.3425 25.9266 85.8393 26.2563 86.3887 26.4758C86.9381 26.6954 87.528 26.7999 88.1207 26.7827C88.7143 26.8012 89.3052 26.6977 89.8556 26.4787C90.4061 26.2597 90.9039 25.9301 91.3174 25.511C91.7308 25.0919 92.0507 24.5926 92.2566 24.045C92.4625 23.4974 92.5498 22.9134 92.5129 22.3307Z" fill="white"/>
<path d="M124.707 20.2739V30.4244H120.26V20.9951C120.26 18.8314 119.355 17.6917 117.779 17.6917C115.796 17.6917 114.618 19.1341 114.618 21.6628V30.4244H110.272V20.9951C110.272 18.8314 109.438 17.6917 107.845 17.6917C105.834 17.6917 104.63 19.1341 104.63 21.6628V30.4244H100.174V14.237H104.122V16.2404C104.706 15.5056 105.45 14.9089 106.3 14.4944C107.149 14.0799 108.083 13.858 109.031 13.8452C109.991 13.8145 110.942 14.039 111.784 14.4949C112.625 14.9509 113.326 15.6216 113.812 16.4363C114.39 15.6352 115.154 14.9819 116.041 14.5311C116.928 14.0803 117.912 13.8451 118.911 13.8452C122.316 13.8452 124.707 16.5164 124.707 20.2739Z" fill="white"/>
<path d="M152.437 20.2739V30.4244H147.981V20.9951C147.981 18.8314 147.121 17.6917 145.509 17.6917C143.517 17.6917 142.339 19.1341 142.339 21.6629V30.4244H138.001V20.9951C138.001 18.8314 137.159 17.6917 135.565 17.6917C133.555 17.6917 132.351 19.1341 132.351 21.6629V30.4244H127.904V14.237H131.843V16.2404C132.428 15.5045 133.174 14.9071 134.025 14.4926C134.876 14.078 135.811 13.8567 136.761 13.8452C137.72 13.8151 138.669 14.04 139.509 14.496C140.349 14.952 141.048 15.6223 141.533 16.4363C142.111 15.6358 142.876 14.983 143.763 14.5322C144.65 14.0815 145.633 13.8458 146.632 13.8452C150.037 13.8452 152.437 16.5165 152.437 20.2739Z" fill="white"/>
<path d="M173.474 14.2103V30.3976H169.67V28.9462C168.16 30.221 166.227 30.9085 164.236 30.8785C163.088 30.9019 161.948 30.6954 160.883 30.2718C159.819 29.8481 158.853 29.2161 158.045 28.414C157.237 27.612 156.603 26.6569 156.182 25.6065C155.761 24.5561 155.562 23.4324 155.597 22.3039C155.565 21.1781 155.766 20.0577 156.188 19.0108C156.61 17.9639 157.245 17.0124 158.053 16.2144C158.862 15.4164 159.827 14.7885 160.89 14.369C161.953 13.9494 163.091 13.747 164.236 13.774C166.237 13.7435 168.176 14.4521 169.67 15.7596V14.2103H173.474ZM169.109 22.3039C169.131 21.7132 169.03 21.1243 168.811 20.574C168.591 20.0237 168.258 19.5239 167.833 19.1059C167.408 18.6879 166.9 18.3607 166.34 18.145C165.78 17.9292 165.181 17.8294 164.581 17.852C163.98 17.8321 163.383 17.9337 162.824 18.1504C162.266 18.3671 161.758 18.6944 161.334 19.1118C160.909 19.5292 160.576 20.0279 160.356 20.577C160.136 21.1262 160.032 21.7139 160.053 22.3039C160.032 22.8939 160.136 23.4818 160.356 24.0309C160.576 24.58 160.909 25.0787 161.334 25.4961C161.758 25.9136 162.266 26.2408 162.824 26.4575C163.383 26.6742 163.98 26.7757 164.581 26.7559C165.181 26.7784 165.78 26.6787 166.34 26.4629C166.9 26.2472 167.408 25.92 167.833 25.502C168.258 25.084 168.591 24.5843 168.811 24.0339C169.03 23.4836 169.131 22.8946 169.109 22.3039Z" fill="white"/>
<path d="M64.303 43.2798H63.2357C63.1725 42.9728 63.0621 42.7031 62.9042 42.4707C62.7493 42.2383 62.5599 42.0432 62.3361 41.8854C62.1152 41.7247 61.8699 41.6042 61.6001 41.5238C61.3304 41.4435 61.0492 41.4033 60.7566 41.4033C60.2229 41.4033 59.7394 41.5382 59.3061 41.8079C58.8757 42.0776 58.5328 42.475 58.2775 43.0001C58.025 43.5252 57.8987 44.1693 57.8987 44.9326C57.8987 45.6958 58.025 46.34 58.2775 46.8651C58.5328 47.3901 58.8757 47.7875 59.3061 48.0573C59.7394 48.327 60.2229 48.4618 60.7566 48.4618C61.0492 48.4618 61.3304 48.4217 61.6001 48.3413C61.8699 48.261 62.1152 48.1419 62.3361 47.9841C62.5599 47.8234 62.7493 47.6269 62.9042 47.3944C63.0621 47.1592 63.1725 46.8894 63.2357 46.5853H64.303C64.2227 47.0358 64.0764 47.4389 63.864 47.7947C63.6517 48.1505 63.3877 48.4532 63.0721 48.7029C62.7565 48.9496 62.4021 49.1376 62.009 49.2667C61.6188 49.3958 61.2013 49.4604 60.7566 49.4604C60.0048 49.4604 59.3363 49.2767 58.7509 48.9094C58.1656 48.5422 57.705 48.02 57.3693 47.3428C57.0336 46.6656 56.8658 45.8622 56.8658 44.9326C56.8658 44.0029 57.0336 43.1995 57.3693 42.5223C57.705 41.8452 58.1656 41.323 58.7509 40.9557C59.3363 40.5884 60.0048 40.4048 60.7566 40.4048C61.2013 40.4048 61.6188 40.4693 62.009 40.5985C62.4021 40.7276 62.7565 40.917 63.0721 41.1666C63.3877 41.4134 63.6517 41.7146 63.864 42.0704C64.0764 42.4234 64.2227 42.8265 64.303 43.2798ZM67.8355 49.4948C67.4166 49.4948 67.0364 49.4159 66.695 49.2581C66.3535 49.0974 66.0824 48.8664 65.8815 48.5651C65.6807 48.261 65.5802 47.8937 65.5802 47.4633C65.5802 47.0846 65.6548 46.7775 65.8041 46.5423C65.9533 46.3041 66.1527 46.1176 66.4023 45.9827C66.6519 45.8479 66.9274 45.7475 67.2287 45.6815C67.5328 45.6126 67.8384 45.5581 68.1454 45.5179C68.5471 45.4663 68.8728 45.4275 69.1224 45.4017C69.3749 45.373 69.5586 45.3257 69.6733 45.2597C69.791 45.1937 69.8498 45.0789 69.8498 44.9154V44.8809C69.8498 44.4563 69.7336 44.1263 69.5012 43.891C69.2716 43.6557 68.923 43.5381 68.4553 43.5381C67.9704 43.5381 67.5902 43.6442 67.3147 43.8566C67.0393 44.0689 66.8456 44.2956 66.7337 44.5366L65.7696 44.1923C65.9418 43.7906 66.1713 43.4778 66.4583 43.254C66.7481 43.0273 67.0637 42.8695 67.4051 42.7806C67.7495 42.6888 68.088 42.6429 68.4209 42.6429C68.6332 42.6429 68.8771 42.6687 69.1525 42.7203C69.4309 42.7691 69.6992 42.871 69.9574 43.0259C70.2185 43.1809 70.4351 43.4147 70.6073 43.7275C70.7795 44.0402 70.8655 44.4591 70.8655 44.9842V49.3398H69.8498V48.4446H69.7981C69.7293 48.5881 69.6145 48.7416 69.4538 48.9051C69.2931 49.0687 69.0794 49.2079 68.8125 49.3226C68.5457 49.4374 68.22 49.4948 67.8355 49.4948ZM67.9905 48.5823C68.3922 48.5823 68.7308 48.5034 69.0062 48.3456C69.2845 48.1878 69.494 47.9841 69.6346 47.7345C69.7781 47.4848 69.8498 47.2223 69.8498 46.9468V46.0172C69.8068 46.0688 69.7121 46.1162 69.5657 46.1592C69.4223 46.1994 69.2558 46.2352 69.0665 46.2668C68.88 46.2955 68.6978 46.3213 68.5199 46.3443C68.3448 46.3644 68.2028 46.3816 68.0938 46.3959C67.8298 46.4304 67.583 46.4863 67.3535 46.5638C67.1268 46.6384 66.9432 46.7517 66.8026 46.9038C66.6648 47.053 66.596 47.2567 66.596 47.515C66.596 47.8679 66.7265 48.1347 66.9876 48.3155C67.2516 48.4934 67.5859 48.5823 67.9905 48.5823ZM72.7195 49.3398V42.7289H73.7008V43.7275H73.7696C73.8902 43.4004 74.1082 43.1349 74.4238 42.9312C74.7395 42.7275 75.0953 42.6256 75.4912 42.6256C75.5658 42.6256 75.6591 42.6271 75.771 42.6299C75.8829 42.6328 75.9675 42.6371 76.0249 42.6429V43.6758C75.9905 43.6672 75.9116 43.6543 75.7882 43.6371C75.6677 43.617 75.54 43.6069 75.4052 43.6069C75.0838 43.6069 74.7969 43.6744 74.5444 43.8092C74.2947 43.9412 74.0967 44.1249 73.9504 44.3601C73.8069 44.5926 73.7352 44.858 73.7352 45.1564V49.3398H72.7195ZM79.7995 49.4776C79.1625 49.4776 78.613 49.337 78.1511 49.0558C77.692 48.7717 77.3376 48.3758 77.088 47.8679C76.8412 47.3571 76.7179 46.7632 76.7179 46.086C76.7179 45.4089 76.8412 44.8121 77.088 44.2956C77.3376 43.7762 77.6848 43.3717 78.1296 43.0819C78.5772 42.7892 79.0994 42.6429 79.6962 42.6429C80.0405 42.6429 80.3805 42.7002 80.7163 42.815C81.052 42.9298 81.3576 43.1163 81.633 43.3745C81.9085 43.6299 82.128 43.9685 82.2915 44.3903C82.4551 44.8121 82.5368 45.3314 82.5368 45.9483V46.3787H77.4409V45.5007H81.5039C81.5039 45.1277 81.4293 44.7948 81.2801 44.5022C81.1337 44.2095 80.9243 43.9785 80.6517 43.8092C80.382 43.6399 80.0635 43.5553 79.6962 43.5553C79.2916 43.5553 78.9416 43.6557 78.646 43.8566C78.3534 44.0546 78.1281 44.3128 77.9703 44.6313C77.8125 44.9498 77.7336 45.2912 77.7336 45.6556V46.241C77.7336 46.7402 77.8197 47.1635 77.9918 47.5107C78.1669 47.855 78.4093 48.1175 78.7192 48.2983C79.0291 48.4762 79.3892 48.5651 79.7995 48.5651C80.0664 48.5651 80.3074 48.5278 80.5226 48.4532C80.7406 48.3758 80.9286 48.261 81.0864 48.1089C81.2442 47.954 81.3662 47.7617 81.4522 47.5322L82.4335 47.8076C82.3303 48.1405 82.1567 48.4331 81.9128 48.6856C81.6689 48.9353 81.3676 49.1304 81.0089 49.271C80.6503 49.4087 80.2471 49.4776 79.7995 49.4776Z" fill="white"/>
<path d="M29.9901 58.8904H1.01079C-2.96901 58.8904 -6.78584 57.3362 -9.59998 54.5693C-12.4141 51.8024 -13.9951 48.0497 -13.9951 44.1368V15.6441C-13.9951 11.7312 -12.4141 7.97856 -9.59998 5.21169C-6.78584 2.44482 -2.96901 0.890381 1.01079 0.890381H29.9901C33.9699 0.890381 37.7867 2.44482 40.6008 5.21169C43.415 7.97856 44.9959 11.7312 44.9959 15.6441V44.1368C44.9959 48.0497 43.415 51.8024 40.6008 54.5693C37.7867 57.3362 33.9699 58.8904 29.9901 58.8904Z" fill="white"/>
<path d="M35.1883 28.715L31.7289 29.0088V28.626C31.7289 28.5726 31.7289 28.5191 31.7289 28.4657C31.6641 27.5374 31.5309 26.6149 31.3305 25.7055C29.5192 17.692 22.4737 13.2846 15.4553 12.8126C15.0387 12.8126 14.613 12.8126 14.1874 12.8126C7.59459 12.8126 -0.302296 16.6057 -0.72793 27.2993C-0.756965 29.1839 -0.400745 31.0549 0.319506 32.8016C1.03976 34.5482 2.10938 36.135 3.46502 37.4676C6.23382 40.1971 9.98594 41.7423 13.9067 41.7681C17.0462 41.8181 20.0803 40.6543 22.3559 38.5272L22.6819 38.2243L25.1271 40.6373L24.801 40.949C22.6464 43.0392 19.889 44.4259 16.9042 44.9201C16.0072 45.0754 15.0981 45.1529 14.1874 45.1516H14.0153C9.03349 45.0957 4.27292 43.1199 0.757273 39.6491C-0.886355 38.0284 -2.17844 36.0967 -3.0408 33.9709C-3.90316 31.8451 -4.31783 29.5694 -4.25975 27.2815C-3.9609 21.5919 -1.87805 16.9085 1.76248 13.7387C5.18735 10.8539 9.56963 9.30468 14.0787 9.38466C19.8029 9.36827 25.3025 11.5728 29.3834 15.5195C32.9203 19.0293 34.9776 23.7234 35.1431 28.6615C35.1382 28.7 35.1382 28.7389 35.1431 28.7773" fill="#00B451"/>
<path d="M15.0204 37.1113L14.4137 36.8619C12.0303 35.928 10.0494 34.2113 8.80789 32.0037C7.56636 29.7961 7.14079 27.234 7.60353 24.7527C8.8261 19.3213 12.8198 16.0891 18.2896 16.0891C23.7595 16.0891 29.7003 19.6507 31.2941 25.6787C31.5304 26.6058 31.667 27.5549 31.7017 28.5102V28.5992V28.9821C31.8232 31.4589 31.3943 33.9318 30.445 36.2291C29.4957 38.5264 28.0487 40.5929 26.2047 42.2845C23.597 44.7493 20.2737 46.3549 16.6958 46.8788C15.8771 46.9965 15.0509 47.0562 14.2235 47.0571H13.6983V50.4582H14.7759C15.4604 50.4587 16.1441 50.4141 16.8226 50.3247C21.2555 49.7454 25.3822 47.7822 28.5954 44.7241C30.6731 42.8108 32.3264 40.4961 33.4515 37.9251C34.5767 35.3541 35.1494 32.5822 35.1339 29.7834C35.1339 29.4183 35.1339 29.0622 35.1339 28.6971V28.5813V28.2519C34.4004 19.9535 28.2694 13.5426 20.2367 12.6611C19.5378 12.5627 18.8327 12.5122 18.1266 12.5098C17.2141 12.5067 16.3037 12.5961 15.4098 12.7769C9.17928 13.9789 5.33953 19.2678 4.32525 24.2273C3.31098 29.1868 4.75089 36.2922 12.3127 39.4174L12.5934 39.5331" fill="#00B451"/>
</svg>
