<svg width="177" height="40" viewBox="0 0 177 40" fill="none" xmlns="http://www.w3.org/2000/svg">
<path d="M22.1761 19.3692C22.7589 17.9889 23.035 16.4859 23.035 14.8603C23.035 13.2653 22.7589 11.7623 22.1761 10.3514C21.5933 8.97111 20.7652 7.7442 19.7223 6.70133C18.6794 5.65845 17.4525 4.83029 16.0416 4.24751C14.6613 3.66473 13.1277 3.38867 11.502 3.38867C9.87637 3.38867 8.37341 3.66473 6.96247 4.24751C5.58219 4.83029 4.35528 5.62778 3.31241 6.70133C2.26953 7.7442 1.44137 8.97111 0.858588 10.3514C0.275807 11.7317 -0.000244141 13.2346 -0.000244141 14.8296C-0.000244141 16.4246 0.275807 17.9275 0.858588 19.3385C1.44137 20.7494 2.26953 21.9763 3.31241 23.0192C4.35528 24.0621 5.61286 24.8903 6.99313 25.473C8.40408 26.0558 9.90706 26.3625 11.5327 26.3625C13.1277 26.3625 14.6306 26.0558 16.0416 25.473C16.8084 25.1356 17.5445 24.7369 18.1887 24.2768L21.5627 27.6508L24.2005 25.0436L20.8265 21.6696C21.3786 20.9641 21.8081 20.1973 22.1761 19.3692ZM15.2134 21.3936C14.1399 22.0377 12.913 22.3444 11.502 22.3444C10.4592 22.3444 9.5083 22.1604 8.64947 21.7923C7.75996 21.4242 7.02382 20.9335 6.41036 20.2587C5.79691 19.6145 5.30614 18.8171 4.96874 17.8969C4.63134 16.9767 4.4473 15.9338 4.4473 14.8296C4.4473 13.3573 4.75403 12.0384 5.33682 10.9342C5.95027 9.82994 6.77844 8.94044 7.85198 8.32698C8.92553 7.71353 10.1524 7.4068 11.5327 7.4068C12.5756 7.4068 13.5571 7.59084 14.4159 7.95891C15.2748 8.32698 16.0416 8.81774 16.655 9.49254C17.2992 10.1673 17.7899 10.9342 18.1273 11.8543C18.4647 12.7745 18.6488 13.7561 18.6488 14.8603C18.6488 16.3019 18.3727 17.5595 17.8206 18.6637L14.0172 14.8603L11.41 17.4981L15.3055 21.3936C15.2748 21.3629 15.2441 21.3629 15.2134 21.3936Z" fill="white"/>
<path d="M35.9176 19.4916C35.9176 20.4425 35.6722 21.1786 35.1814 21.7001C34.6906 22.2215 34.0159 22.4976 33.157 22.4976C32.5742 22.4976 32.0835 22.3749 31.6541 22.1602C31.2246 21.9148 30.9179 21.5774 30.7032 21.1173C30.4885 20.6572 30.3965 20.1051 30.3965 19.4916V10.7192H26.225V19.5837C26.225 20.9026 26.5317 22.0988 27.1145 23.111C27.6973 24.1232 28.5254 24.9207 29.5683 25.4728C30.6112 26.0556 31.8074 26.3317 33.157 26.3317C34.5066 26.3317 35.7028 26.0556 36.7457 25.5035C37.7886 24.9514 38.6168 24.1539 39.1995 23.1417C39.7823 22.1295 40.0584 20.9333 40.0584 19.5837V10.7192H35.9176V19.4916Z" fill="white"/>
<path d="M54.1984 12.1613C53.769 11.7012 53.2782 11.3332 52.6954 11.0571C51.8366 10.6277 50.8551 10.3823 49.7509 10.3823C48.3706 10.3823 47.113 10.7197 45.9781 11.4252C44.8739 12.1307 43.9844 13.0815 43.3403 14.2778C42.6961 15.474 42.3894 16.8543 42.3894 18.3572C42.3894 19.8602 42.6961 21.2098 43.3403 22.406C43.9844 23.6023 44.8432 24.5531 45.9781 25.2586C47.0823 25.9641 48.3399 26.3015 49.7509 26.3015C50.8551 26.3015 51.8366 26.0868 52.6954 25.6267C53.2782 25.3199 53.769 24.9519 54.1984 24.5224V26.3321H58.3086V10.7197H54.1984V12.1613ZM53.3396 21.3325C52.6341 22.0993 51.6832 22.498 50.5177 22.498C49.7509 22.498 49.0761 22.314 48.4933 21.9766C47.9105 21.6392 47.4504 21.1484 47.1437 20.5043C46.8063 19.8909 46.6529 19.1547 46.6529 18.3266C46.6529 17.5291 46.8063 16.8236 47.1437 16.1795C47.4811 15.566 47.9105 15.0753 48.4933 14.7379C49.0761 14.4005 49.7509 14.2164 50.5177 14.2164C51.2845 14.2164 51.99 14.4005 52.5727 14.7379C53.1555 15.0753 53.6156 15.566 53.9223 16.1795C54.2597 16.7929 54.4131 17.5291 54.4131 18.3266C54.4131 19.5841 54.0757 20.5657 53.3396 21.3325Z" fill="white"/>
<path d="M72.0808 10.7504C71.498 10.505 70.8232 10.3823 70.087 10.3823C68.3694 10.3823 67.0811 10.9344 66.1609 12.008L66.1303 12.0387V10.6891H61.9894V26.3015H66.1303V17.5597C66.1303 16.4249 66.4063 15.566 66.9584 15.0139C67.5105 14.4618 68.2467 14.1857 69.1362 14.1857C69.5656 14.1857 69.9337 14.2471 70.2711 14.3698C70.6085 14.4925 70.8845 14.6765 71.0992 14.9526L73.7064 11.9773C73.2156 11.3945 72.6942 10.9958 72.0808 10.7504Z" fill="white"/>
<path d="M79.3501 10.7192H75.1786V26.3317H79.3501V10.7192Z" fill="white"/>
<path d="M77.2644 3.47998C76.5896 3.47998 76.0375 3.72536 75.5774 4.18545C75.148 4.64554 74.9026 5.19765 74.9026 5.87245C74.9026 6.54725 75.1173 7.09936 75.5774 7.55945C76.0069 8.01954 76.5896 8.23425 77.2644 8.23425C77.9699 8.23425 78.522 8.01954 78.9514 7.55945C79.3809 7.09936 79.5956 6.54725 79.5956 5.87245C79.5956 5.22833 79.3809 4.64554 78.9514 4.18545C78.522 3.72536 77.9392 3.47998 77.2644 3.47998Z" fill="white"/>
<path d="M82.5093 14.4H89.104L81.9572 23.9085V26.3317H94.8704V22.6509H87.9077L95.0545 13.1424V10.7192H82.5093V14.4Z" fill="white"/>
<path d="M121.096 13.1429C120.574 12.2534 119.838 11.5786 118.949 11.0878C118.028 10.6277 117.016 10.3823 115.881 10.3823C114.746 10.3823 113.703 10.6277 112.783 11.1185C112.047 11.5172 111.434 12.0387 110.912 12.6828C110.452 12.008 109.839 11.4865 109.103 11.0878C108.244 10.6277 107.262 10.3823 106.219 10.3823C105.115 10.3823 104.103 10.6277 103.213 11.0878C102.723 11.3332 102.324 11.6706 101.956 12.0387V10.7197H97.815V26.3321H101.956V16.977C101.956 16.3942 102.079 15.8727 102.324 15.4433C102.569 15.0139 102.937 14.7072 103.367 14.4925C103.796 14.2778 104.318 14.1551 104.87 14.1551C105.698 14.1551 106.373 14.4005 106.955 14.8912C107.508 15.382 107.784 16.0875 107.784 16.977V26.3321H111.924V16.977C111.924 16.3942 112.047 15.8727 112.293 15.4433C112.538 15.0139 112.906 14.7072 113.366 14.4925C113.826 14.2778 114.317 14.1551 114.838 14.1551C115.667 14.1551 116.341 14.4005 116.924 14.8912C117.476 15.382 117.752 16.0875 117.752 16.977V26.3321H121.893V16.3022C121.893 15.1059 121.617 14.0324 121.096 13.1429Z" fill="white"/>
<path d="M28.6177 35.8723C28.3723 35.8417 28.1883 35.7803 28.0349 35.719V35.3816C28.4337 35.5349 28.8631 35.627 29.3538 35.627C29.7833 35.627 30.1206 35.5656 30.3047 35.4123C30.5194 35.2589 30.6114 35.0442 30.6114 34.7375C30.6114 34.5228 30.5807 34.3694 30.4887 34.2467C30.3967 34.124 30.274 34.0013 30.1207 33.94C29.9673 33.8479 29.6912 33.7253 29.3538 33.6026C28.9244 33.4492 28.587 33.2345 28.403 33.0505C28.219 32.8358 28.0963 32.5904 28.0963 32.253C28.0963 32.0076 28.1576 31.8235 28.2803 31.6395C28.403 31.4555 28.587 31.3328 28.8017 31.2408C29.0164 31.1487 29.2925 31.0874 29.5685 31.0874C29.8139 31.0874 29.998 31.1181 30.2127 31.1488C30.3967 31.1794 30.5807 31.2408 30.7955 31.3328V31.6395C30.4274 31.4861 30.0286 31.3941 29.6299 31.3941C29.2618 31.3941 28.9858 31.4555 28.771 31.6088C28.5563 31.7622 28.4643 31.9769 28.4643 32.2223C28.4643 32.4063 28.495 32.529 28.587 32.6824C28.6484 32.8051 28.7711 32.9278 28.9551 33.0198C29.1085 33.1118 29.3538 33.2345 29.6606 33.3572C29.998 33.4799 30.2433 33.6026 30.4274 33.6946C30.6114 33.7866 30.7341 33.94 30.8568 34.0933C30.9488 34.2467 31.0102 34.4614 31.0102 34.7375C31.0102 35.1362 30.8875 35.4123 30.6114 35.627C30.3354 35.8417 29.9366 35.9337 29.4152 35.9337C29.0778 35.9337 28.8324 35.903 28.6177 35.8723Z" fill="white"/>
<path d="M35.519 35.627C35.1509 35.4123 34.8748 35.1362 34.6601 34.7681C34.4454 34.4001 34.3534 33.9706 34.3534 33.5106C34.3534 33.0505 34.4454 32.621 34.6601 32.253C34.8748 31.8849 35.1509 31.6088 35.519 31.3941C35.887 31.1794 36.2858 31.0874 36.7459 31.0874C37.206 31.0874 37.6047 31.1794 37.9728 31.3941C38.3408 31.6088 38.6169 31.8849 38.8316 32.253C39.0463 32.621 39.1383 33.0505 39.1383 33.5106C39.1383 33.9706 39.0463 34.4001 38.8316 34.7681C38.6169 35.1362 38.3408 35.4123 37.9728 35.627C37.6047 35.8417 37.206 35.9337 36.7459 35.9337C36.2858 35.9337 35.887 35.811 35.519 35.627ZM37.7887 35.3509C38.0955 35.1669 38.3715 34.9215 38.5556 34.6148C38.7396 34.308 38.8316 33.94 38.8316 33.5106C38.8316 33.0811 38.7396 32.7131 38.5556 32.4063C38.3715 32.0996 38.1261 31.8542 37.8194 31.6702C37.5127 31.4862 37.1446 31.3941 36.7765 31.3941C36.3778 31.3941 36.0404 31.4861 35.7337 31.6395C35.4269 31.8235 35.1509 32.0689 34.9668 32.3757C34.7828 32.6824 34.6908 33.0505 34.6908 33.4799C34.6908 33.9093 34.7828 34.2774 34.9668 34.5841C35.1509 34.8908 35.3963 35.1362 35.703 35.3202C36.0097 35.5043 36.3778 35.5656 36.7459 35.5656C37.1446 35.627 37.482 35.5349 37.7887 35.3509Z" fill="white"/>
<path d="M42.6965 31.1787H45.6104V31.4854H43.0339V33.3565H44.9663V33.6632H43.0339V35.841H42.6965V31.1787Z" fill="white"/>
<path d="M50.2727 31.4854H48.7391V31.1787H52.1744V31.4854H50.6408V35.841H50.3034V31.4854H50.2727Z" fill="white"/>
<path d="M55.3335 31.1787H55.7016L56.9592 35.2275L58.2167 31.1787H58.5235L59.7504 35.2275L61.0079 31.1787H61.376L59.9651 35.841H59.6277L58.3701 31.7308L57.1125 35.841H56.7751L55.3335 31.1787Z" fill="white"/>
<path d="M65.8543 31.1787H66.1611L68.0321 35.841H67.664L67.1426 34.4914H64.9035L64.382 35.841H64.014L65.8543 31.1787ZM67.0506 34.1846L66.0384 31.6081L65.0262 34.1846H67.0506Z" fill="white"/>
<path d="M71.5596 31.1787H73.2772C74.2281 31.1787 74.6882 31.6081 74.6882 32.467C74.6882 32.8044 74.5962 33.0804 74.3815 33.3258C74.1668 33.5405 73.8907 33.6939 73.492 33.7245L74.6882 35.841H74.3201L73.1239 33.7245H71.897V35.841H71.5596V31.1787ZM73.2466 33.4178C73.584 33.4178 73.86 33.3258 74.0441 33.1724C74.2281 33.0191 74.3201 32.7737 74.3201 32.467C74.3201 32.0989 74.2281 31.8535 74.0441 31.7001C73.86 31.5468 73.584 31.4854 73.2466 31.4854H71.897V33.4178H73.2466Z" fill="white"/>
<path d="M78.2155 31.1787H81.1294V31.4854H78.5528V33.3565H80.4852V33.6632H78.5528V35.5342H81.1294V35.841H78.2155V31.1787Z" fill="white"/>
<path d="M89.8711 31.1787H90.2085V33.2951H93.0304V31.1787H93.3678V35.841H93.0304V33.6325H90.2085V35.841H89.8711V31.1787Z" fill="white"/>
<path d="M98.1222 35.627C97.7541 35.4123 97.4781 35.1362 97.2634 34.7681C97.0487 34.4001 96.9567 33.9706 96.9567 33.5106C96.9567 33.0505 97.0487 32.621 97.2634 32.253C97.4781 31.8849 97.7541 31.6088 98.1222 31.3941C98.4903 31.1794 98.889 31.0874 99.3491 31.0874C99.8092 31.0874 100.208 31.1794 100.576 31.3941C100.944 31.6088 101.22 31.8849 101.435 32.253C101.65 32.621 101.742 33.0505 101.742 33.5106C101.742 33.9706 101.65 34.4001 101.435 34.7681C101.22 35.1362 100.944 35.4123 100.576 35.627C100.208 35.8417 99.8092 35.9337 99.3491 35.9337C98.889 35.9337 98.4903 35.811 98.1222 35.627ZM100.423 35.3509C100.729 35.1669 101.005 34.9215 101.189 34.6148C101.374 34.308 101.466 33.94 101.466 33.5106C101.466 33.0811 101.374 32.7131 101.189 32.4063C101.005 32.0996 100.76 31.8542 100.453 31.6702C100.147 31.4862 99.7786 31.3941 99.4105 31.3941C99.0117 31.3941 98.6743 31.4861 98.3676 31.6395C98.0609 31.8235 97.7848 32.0689 97.6008 32.3757C97.4167 32.6824 97.3247 33.0505 97.3247 33.4799C97.3247 33.9093 97.4167 34.2774 97.6008 34.5841C97.7848 34.8908 98.0302 35.1362 98.3369 35.3202C98.6437 35.5043 99.0117 35.5656 99.3798 35.5656C99.7479 35.627 100.085 35.5349 100.423 35.3509Z" fill="white"/>
<path d="M105.729 35.4738C105.422 35.167 105.269 34.7683 105.269 34.2162V31.1489H105.606V34.2775C105.606 34.7376 105.729 35.0444 106.005 35.2897C106.25 35.5045 106.618 35.6271 107.048 35.6271C107.477 35.6271 107.845 35.5045 108.091 35.2897C108.336 35.075 108.489 34.7376 108.489 34.2775V31.1489H108.827V34.2162C108.827 34.7376 108.673 35.167 108.367 35.4738C108.06 35.7805 107.631 35.9032 107.017 35.9032C106.465 35.9339 106.036 35.7805 105.729 35.4738Z" fill="white"/>
<path d="M112.937 35.8723C112.692 35.8417 112.508 35.7803 112.354 35.719V35.3816C112.753 35.5349 113.182 35.627 113.673 35.627C114.103 35.627 114.44 35.5656 114.624 35.4123C114.839 35.2589 114.931 35.0442 114.931 34.7375C114.931 34.5228 114.9 34.3694 114.808 34.2467C114.716 34.124 114.593 34.0013 114.44 33.94C114.287 33.8479 114.011 33.7253 113.673 33.6026C113.244 33.4492 112.906 33.2345 112.722 33.0505C112.538 32.8358 112.416 32.5904 112.416 32.253C112.416 32.0076 112.477 31.8235 112.6 31.6395C112.722 31.4555 112.906 31.3328 113.121 31.2408C113.336 31.1487 113.612 31.0874 113.888 31.0874C114.133 31.0874 114.317 31.1181 114.532 31.1488C114.716 31.1794 114.9 31.2408 115.115 31.3328V31.6395C114.747 31.4861 114.348 31.3941 113.949 31.3941C113.581 31.3941 113.305 31.4555 113.09 31.6088C112.876 31.7622 112.784 31.9769 112.784 32.2223C112.784 32.4063 112.814 32.529 112.906 32.6824C112.968 32.8051 113.09 32.9278 113.274 33.0198C113.428 33.1118 113.673 33.2345 113.98 33.3572C114.317 33.4799 114.563 33.6026 114.747 33.6946C114.931 33.7866 115.054 33.94 115.176 34.0933C115.268 34.2467 115.33 34.4614 115.33 34.7375C115.33 35.1362 115.207 35.4123 114.931 35.627C114.655 35.8417 114.256 35.9337 113.735 35.9337C113.428 35.9337 113.182 35.903 112.937 35.8723Z" fill="white"/>
<path d="M118.796 31.1787H121.71V31.4854H119.133V33.3565H121.065V33.6632H119.133V35.5342H121.71V35.841H118.796V31.1787Z" fill="white"/>
<path d="M148.395 21.5322L166.093 39.2304C166.216 39.3531 166.369 39.3531 166.492 39.2304L171.553 34.1694C171.675 34.0467 171.675 33.8933 171.553 33.7706L153.855 16.0725C153.732 15.9498 153.579 15.9498 153.456 16.0725L148.395 21.1335C148.303 21.2562 148.303 21.4402 148.395 21.5322Z" fill="#DEA8E4"/>
<path d="M151.401 5.18329L146.34 0.122292C146.217 -0.000399284 146.064 -0.000399284 145.941 0.122292L126.985 19.078C126.862 19.2007 126.862 19.3541 126.985 19.4768L145.941 38.4325C146.064 38.5552 146.217 38.5552 146.34 38.4325L151.401 33.3715C151.523 33.2488 151.523 33.0955 151.401 32.9728L137.905 19.4768C137.782 19.3541 137.782 19.2007 137.905 19.078L151.401 5.58204C151.523 5.45934 151.523 5.27531 151.401 5.18329Z" fill="#DEA8E4"/>
<path d="M163.363 21.7776L168.363 26.7773C168.485 26.9 168.639 26.9 168.761 26.7773L176.153 19.3852C176.276 19.2625 176.276 19.1091 176.153 18.9864L157.29 0.0920182C157.167 -0.0306727 157.014 -0.0306727 156.891 0.0920182L151.83 5.15302C151.707 5.27571 151.707 5.42907 151.83 5.55176L165.326 19.0478C165.449 19.1705 165.449 19.3238 165.326 19.4465L163.394 21.3789C163.271 21.5016 163.271 21.6856 163.363 21.7776Z" fill="#DEA8E4"/>
<path d="M151.799 33.3724L156.799 38.372C156.922 38.4947 157.075 38.4947 157.198 38.372L159.13 36.4396C159.253 36.3169 159.253 36.1636 159.13 36.0409L154.131 31.0412C154.008 30.9185 153.855 30.9185 153.732 31.0412L151.799 32.9736C151.707 33.0656 151.707 33.2497 151.799 33.3724Z" fill="#DEA8E4"/>
</svg>
