<svg xmlns="http://www.w3.org/2000/svg" width="161" height="40" viewBox="0 0 161 40" fill="none">
<g clip-path="url(#clip0_74_2767)">
<path d="M1.62729 5.91245H7.80229V28.3875H19.2273V34.0874H1.62729V5.91245ZM21.9523 15H27.8773V34.075H21.9523V15ZM24.9148 5.51245C25.5947 5.51245 26.2593 5.71406 26.8246 6.09177C27.3899 6.46949 27.8304 7.00636 28.0906 7.63448C28.3508 8.2626 28.4189 8.95377 28.2862 9.62057C28.1536 10.2874 27.8262 10.8999 27.3455 11.3806C26.8647 11.8614 26.2522 12.1888 25.5854 12.3214C24.9186 12.454 24.2274 12.386 23.5993 12.1258C22.9712 11.8656 22.4343 11.425 22.0566 10.8597C21.6789 10.2944 21.4773 9.62982 21.4773 8.94995C21.4773 8.03827 21.8395 7.16393 22.4841 6.51927C23.1288 5.87462 24.0031 5.51245 24.9148 5.51245ZM52.6773 5.91245H58.6023V22.7499L65.3273 14.975H72.5898L64.8148 23.8125L72.4273 34.0874H64.9773L58.6773 24.65H58.6023V34.0874H52.6773V5.91245ZM31.1648 15H36.8148V17.6125H36.8898C37.4597 16.6393 38.2823 15.8386 39.2704 15.295C40.2585 14.7515 41.3753 14.4854 42.5023 14.525C48.5148 14.525 49.6148 18.475 49.6148 23.6124V34.0874H43.7398V24.7999C43.7398 22.5874 43.7398 19.8 40.6523 19.8C37.5648 19.8 37.0898 22.2125 37.0898 24.7V34.1374H31.1648V15Z" fill="white"/>
<path d="M85.0774 22.3126C85.0894 21.8316 85.0035 21.3533 84.825 20.9065C84.6464 20.4598 84.3789 20.054 84.0387 19.7138C83.6985 19.3736 83.2927 19.1061 82.846 18.9275C82.3992 18.749 81.9208 18.6631 81.4399 18.6751C80.4039 18.6096 79.3839 18.9545 78.6002 19.6352C77.8166 20.3159 77.3324 21.2777 77.2524 22.3126H85.0774ZM90.0774 30.7751C89.0885 31.9602 87.8491 32.9112 86.4484 33.5596C85.0478 34.2081 83.5208 34.5378 81.9774 34.5251C76.0524 34.5251 71.3024 30.5751 71.3024 24.4376C71.3024 18.3001 76.0524 14.3626 81.9774 14.3626C87.5149 14.3626 90.9899 18.3126 90.9899 24.4376V26.3001H77.2399C77.4032 27.3597 77.9457 28.3239 78.7664 29.0137C79.5872 29.7034 80.6305 30.0717 81.7024 30.0501C82.5467 30.0489 83.3769 29.8339 84.1157 29.4252C84.8545 29.0164 85.4778 28.4273 85.9274 27.7126L90.0774 30.7751ZM103.352 19.6001C102.385 19.5702 101.43 19.8298 100.611 20.3457C99.7922 20.8615 99.1456 21.6101 98.7545 22.4955C98.3634 23.381 98.2454 24.363 98.4157 25.3159C98.5861 26.2688 99.0369 27.1492 99.7106 27.8443C100.384 28.5394 101.25 29.0177 102.197 29.2178C103.144 29.4179 104.13 29.3307 105.027 28.9675C105.924 28.6043 106.693 27.9816 107.234 27.179C107.775 26.3764 108.064 25.4306 108.065 24.4626C108.118 23.8203 108.032 23.174 107.814 22.5676C107.596 21.9612 107.25 21.4088 106.799 20.9478C106.349 20.4867 105.805 20.1278 105.203 19.8953C104.602 19.6628 103.958 19.5621 103.315 19.6001M113.565 34.0751H108.065V31.5751C107.378 32.4915 106.49 33.2384 105.469 33.7584C104.449 34.2785 103.323 34.5578 102.177 34.5751C96.4774 34.5751 92.7274 30.4626 92.7274 24.6501C92.7274 19.3126 96.0524 14.4126 101.477 14.4126C102.618 14.3124 103.766 14.4871 104.825 14.9221C105.884 15.3571 106.824 16.0396 107.565 16.9126H107.64V5.9126H113.565V34.0751Z" fill="white"/>
<path d="M156.315 -1.48229e-05H122.265C121.878 -0.00499756 121.494 0.0670734 121.136 0.211992C120.777 0.35691 120.451 0.571773 120.177 0.844049C119.902 1.11632 119.684 1.44056 119.536 1.79784C119.388 2.15512 119.313 2.53828 119.315 2.92499V37.1125C119.318 37.496 119.397 37.8752 119.547 38.2281C119.697 38.581 119.916 38.9008 120.19 39.1691C120.464 39.4374 120.788 39.6489 121.145 39.7915C121.501 39.9341 121.881 40.0049 122.265 40H156.315C156.702 40.0099 157.087 39.9429 157.449 39.8027C157.81 39.6625 158.139 39.452 158.418 39.1834C158.698 38.9147 158.921 38.5934 159.074 38.2379C159.228 37.8824 159.31 37.4998 159.315 37.1125V2.92499C159.315 2.53448 159.237 2.14789 159.085 1.78804C158.934 1.42818 158.711 1.10234 158.432 0.829725C158.152 0.55711 157.821 0.343244 157.457 0.200738C157.094 0.058233 156.705 -0.0100279 156.315 -1.48229e-05ZM131.165 34.0875H125.24V15H131.165V34.0875ZM128.202 12.4125C127.522 12.4125 126.858 12.2109 126.293 11.8332C125.727 11.4554 125.287 10.9186 125.027 10.2905C124.766 9.66234 124.698 8.97117 124.831 8.30436C124.964 7.63755 125.291 7.02505 125.772 6.5443C126.252 6.06356 126.865 5.73617 127.532 5.60354C128.199 5.4709 128.89 5.53897 129.518 5.79915C130.146 6.05933 130.683 6.49992 131.061 7.06522C131.438 7.63051 131.64 8.29511 131.64 8.97499C131.64 9.88667 131.278 10.761 130.633 11.4057C129.988 12.0503 129.114 12.4125 128.202 12.4125ZM153.365 34.0875H147.44V24.8125C147.44 22.6 147.44 19.8125 144.365 19.8125C141.29 19.8125 140.802 22.225 140.802 24.7125V34.15H134.877V15H140.565V17.625H140.64C141.211 16.6542 142.035 15.8559 143.023 15.3146C144.011 14.7733 145.127 14.5091 146.252 14.55C152.252 14.55 153.365 18.5 153.365 23.6375V34.0875Z" fill="white"/>
</g>
<defs>
<clipPath id="clip0_74_2767">
<rect width="160" height="40" fill="white" transform="translate(0.564819)"/>
</clipPath>
</defs>
</svg>