<svg xmlns="http://www.w3.org/2000/svg" width="25" height="25" viewBox="0 0 25 25" fill="none">
<path d="M22.5 16.8511C22.5 20.4911 20.33 22.6611 16.69 22.6611H15.5C14.95 22.6611 14.5 22.2111 14.5 21.6611V15.8911C14.5 15.6211 14.72 15.3911 14.99 15.3911L16.75 15.3611C16.89 15.3511 17.01 15.2511 17.04 15.1111L17.39 13.2011C17.42 13.0211 17.28 12.8511 17.09 12.8511L14.96 12.8811C14.68 12.8811 14.46 12.6611 14.45 12.3911L14.41 9.94113C14.41 9.78113 14.54 9.64114 14.71 9.64114L17.11 9.60113C17.28 9.60113 17.41 9.47114 17.41 9.30114L17.37 6.90112C17.37 6.73112 17.24 6.60113 17.07 6.60113L14.37 6.64114C12.71 6.67114 11.39 8.03113 11.42 9.69113L11.47 12.4411C11.48 12.7211 11.26 12.9411 10.98 12.9511L9.78 12.9711C9.61 12.9711 9.48001 13.1011 9.48001 13.2711L9.51001 15.1711C9.51001 15.3411 9.64 15.4711 9.81 15.4711L11.01 15.4511C11.29 15.4511 11.51 15.6711 11.52 15.9411L11.61 21.6411C11.62 22.2011 11.17 22.6611 10.61 22.6611H8.31C4.67 22.6611 2.5 20.4911 2.5 16.8411V8.47113C2.5 4.83113 4.67 2.66113 8.31 2.66113H16.69C20.33 2.66113 22.5 4.83113 22.5 8.47113V16.8511Z" fill="white"/>
</svg>