<svg xmlns="http://www.w3.org/2000/svg" width="188" height="57" viewBox="0 0 188 57" fill="none">
<path d="M48.7436 0.890381H7.40936C3.30567 0.890381 0.00488281 4.14859 0.00488281 8.16999V48.971C0.00488281 52.9924 3.30567 56.2506 7.37962 56.2506H48.7139C52.7878 56.2506 56.0886 52.9924 56.0886 48.971V8.16999C56.1183 4.14859 52.8175 0.890381 48.7436 0.890381ZM13.208 8.31675C13.8623 13.2481 14.3678 13.7765 19.3636 14.3929C14.3678 15.068 13.8623 15.567 13.208 20.4984C12.5538 15.567 12.0186 15.068 7.02278 14.4222C12.0186 13.7765 12.5538 13.2481 13.208 8.31675ZM49.1302 21.6431C49.1302 22.2595 48.6246 22.7586 48.0002 22.7879C36.2244 23.3456 26.3517 31.1536 22.932 41.8088C22.6049 42.8362 23.7944 43.7168 24.6865 43.1004C31.2881 38.4332 39.2873 35.5859 47.9407 35.3217C48.5949 35.2924 49.1302 35.8208 49.1302 36.4665V47.6795C49.1302 48.2959 48.6246 48.8242 47.9704 48.8242H8.15278C7.52831 48.8242 6.99304 48.2959 7.02278 47.6501C8.30147 26.1635 25.9949 8.99188 47.9407 8.31675C48.5949 8.2874 49.1302 8.81576 49.1302 9.46153V21.6431Z" fill="white"/>
<path d="M73.1873 10.5182H92.7839C92.992 10.5182 93.1705 10.6944 93.1705 10.8998V14.9799C93.1705 15.1854 92.992 15.3615 92.7839 15.3615H78.1236C77.9155 15.3615 77.737 15.5377 77.737 15.7431V16.8292C77.737 17.0347 77.9155 17.2108 78.1236 17.2108H92.2486C92.4568 17.2108 92.6352 17.3869 92.6352 17.5924V21.7312C92.6352 21.9367 92.4568 22.1128 92.2486 22.1128H78.1236C77.9155 22.1128 77.737 22.2889 77.737 22.4944V26.5745C77.737 26.7799 77.5586 26.9561 77.3505 26.9561H73.217C73.0089 26.9561 72.8304 26.7799 72.8304 26.5745V10.9292C72.771 10.6944 72.9494 10.5182 73.1873 10.5182Z" fill="white"/>
<path d="M116.96 26.5451L116.93 10.9292C116.93 10.7237 117.109 10.5476 117.317 10.5476H121.45C121.658 10.5476 121.837 10.7237 121.837 10.9292V21.7312C121.837 21.9367 122.015 22.1128 122.223 22.1128H138.281C138.489 22.1128 138.668 22.2889 138.668 22.4944V26.5745C138.668 26.7799 138.489 26.9561 138.281 26.9561L117.347 26.9267C117.138 26.9267 116.96 26.7506 116.96 26.5451Z" fill="white"/>
<path d="M176.017 19.9406L187.05 26.2222C187.407 26.4277 187.258 26.9561 186.842 26.9561H186.247C184.79 26.9561 183.481 25.9287 183.303 24.4904V24.461C183.273 24.2849 183.154 24.1675 182.976 24.1675C182.797 24.1675 182.678 24.2849 182.649 24.461V24.4904C182.441 25.9287 181.162 26.9561 179.705 26.9561H179.378C179.318 26.9561 179.259 26.9561 179.199 26.8974L170.576 22.2596C170.397 22.1421 170.189 22.0834 169.981 22.0834H169.208C168.999 22.0834 168.821 22.2595 168.821 22.465V26.5451C168.821 26.7506 168.643 26.9267 168.434 26.9267H163.914V11.3988C163.914 11.164 163.914 11.0173 163.914 10.8705C163.914 10.665 164.093 10.4889 164.301 10.4889H168.434C168.643 10.4889 168.821 10.665 168.821 10.8705V16.7998C168.821 17.0053 168.999 17.1814 169.208 17.1814H169.921C170.129 17.1814 170.338 17.1227 170.516 17.0053L179.14 10.5476C179.199 10.4889 179.288 10.4595 179.378 10.4595H187.079C187.466 10.4595 187.615 10.9585 187.317 11.164L175.958 19.2655C175.75 19.471 175.779 19.7939 176.017 19.9406Z" fill="white"/>
<path d="M112.41 26.9267H117.138C117.436 26.9267 117.644 26.6038 117.495 26.3396L110.537 14.3342C109.169 11.9859 106.641 10.5182 103.876 10.5182C101.11 10.5182 98.5826 11.9859 97.2147 14.3342L90.286 26.3396C90.1373 26.6038 90.3157 26.9267 90.6428 26.9267H95.371C95.5197 26.9267 95.6386 26.8387 95.7278 26.7212L101.497 16.7411C101.973 15.8899 102.894 15.3909 103.876 15.3909C104.857 15.3909 105.749 15.9192 106.255 16.7411L112.053 26.7506C112.113 26.868 112.262 26.9267 112.41 26.9267Z" fill="white"/>
<path d="M160.257 26.9267H164.985C165.282 26.9267 165.49 26.6038 165.342 26.3396L158.383 14.3342C157.015 11.9859 154.488 10.5182 151.722 10.5182C148.957 10.5182 146.429 11.9859 145.061 14.3342L138.133 26.3396C137.984 26.6038 138.162 26.9267 138.489 26.9267H143.218C143.366 26.9267 143.485 26.8387 143.574 26.7212L149.343 16.7411C149.819 15.8899 150.741 15.3909 151.722 15.3909C152.704 15.3909 153.596 15.9192 154.101 16.7411L159.9 26.7506C159.959 26.868 160.108 26.9267 160.257 26.9267Z" fill="white"/>
<path d="M151.752 26.4571C151.752 24.4023 153.447 22.7292 155.558 22.6998C153.477 22.6705 151.782 20.9974 151.782 18.9133C151.782 20.9974 150.087 22.6705 148.005 22.6998H147.975C150.027 22.6998 151.752 24.373 151.752 26.4571Z" fill="white"/>
<path d="M103.846 26.4571C103.846 24.4023 105.541 22.7292 107.652 22.6998C105.571 22.6705 103.876 20.9974 103.876 18.9133C103.876 20.9974 102.181 22.6705 100.099 22.6998H100.069C102.121 22.6998 103.846 24.373 103.846 26.4571Z" fill="white"/>
<path d="M181.548 31.5939C181.281 31.5939 181.013 31.5939 180.805 31.6232C180.597 31.6526 180.418 31.6526 180.27 31.7113C179.853 31.77 179.556 31.9755 179.378 32.2984C179.199 32.6212 179.11 33.0909 179.11 33.7073V37.0536H177.564C177.355 36.9949 177.207 36.8775 177.088 36.7307C176.999 36.5839 176.939 36.3785 176.939 36.1143V29.1869H174.947V36.0849C174.947 36.5546 174.739 36.8481 174.352 36.9949C174.322 36.9949 174.233 36.9949 174.114 37.0242C174.025 37.0242 173.936 37.0242 173.847 37.0536H84.9631V29.2163H82.9707V37.0242H75.8339C75.4176 36.9362 75.2094 36.6133 75.2094 36.1143V31.5939H73.217V36.7894C73.217 37.4058 73.3062 37.8755 73.4847 38.169C73.6631 38.4919 73.9307 38.6974 74.3173 38.7854C74.6741 38.8735 75.1202 38.9028 75.6852 38.9028H174.947C174.947 38.9028 174.917 38.9028 174.887 38.9028H174.858C174.858 38.9028 174.858 38.9028 174.887 38.9028C175.125 38.8441 175.363 38.6974 175.571 38.4332C175.779 38.169 175.958 37.8168 176.136 37.3765C176.523 38.3158 176.999 38.8148 177.593 38.9028H184.73C185.028 38.9028 185.266 38.9028 185.474 38.8735C185.682 38.8735 185.86 38.8441 185.979 38.8148C186.187 38.7561 186.366 38.6974 186.514 38.6093C186.663 38.5213 186.782 38.3745 186.901 38.2277C186.99 38.081 187.079 37.8755 187.109 37.6407C187.169 37.4058 187.169 37.1416 187.169 36.7894V31.5939H181.548ZM185.057 36.1436C185.057 36.261 185.057 36.3491 185.028 36.4372C185.028 36.5252 184.998 36.5839 184.968 36.6426C184.909 36.8188 184.76 36.9068 184.552 36.9949C184.344 37.0536 184.106 37.0829 183.779 37.0829H181.905C181.727 37.0829 181.608 37.0536 181.489 37.0242C181.37 36.9949 181.311 36.9362 181.251 36.8775C181.192 36.8188 181.162 36.7307 181.132 36.6133C181.102 36.4959 181.102 36.3491 181.102 36.1436V34.4118C181.102 34.177 181.132 33.9715 181.221 33.8247C181.311 33.678 181.4 33.5899 181.519 33.5312C181.578 33.5312 181.697 33.5018 181.816 33.5018C181.935 33.5018 182.113 33.4725 182.322 33.4725H184.998V36.1436H185.057Z" fill="white"/>
<path d="M74.2772 42.0627V46.4062H73.7444V42.0627H74.2772Z" fill="white"/>
<path d="M78.8349 42.0627V46.4062H78.3192L75.9214 42.9959H75.8784V46.4062H75.3456V42.0627H75.8612L78.2676 45.4815H78.3106V42.0627H78.8349Z" fill="white"/>
<path d="M82.3075 43.1486C82.2817 42.9336 82.1771 42.7668 81.9938 42.648C81.8104 42.5293 81.5855 42.4699 81.3191 42.4699C81.1243 42.4699 80.9539 42.501 80.8078 42.5632C80.6631 42.6254 80.5499 42.711 80.4683 42.8198C80.3881 42.9287 80.348 43.0524 80.348 43.191C80.348 43.3069 80.3759 43.4066 80.4318 43.49C80.4891 43.572 80.5621 43.6406 80.6509 43.6957C80.7397 43.7495 80.8328 43.794 80.9302 43.8294C81.0276 43.8633 81.1172 43.8909 81.1988 43.9121L81.6457 44.0308C81.7603 44.0605 81.8878 44.1015 82.0282 44.1538C82.17 44.2062 82.3053 44.2776 82.4342 44.368C82.5646 44.4571 82.672 44.5716 82.7565 44.7116C82.841 44.8516 82.8833 45.0234 82.8833 45.227C82.8833 45.4617 82.821 45.6738 82.6964 45.8632C82.5732 46.0527 82.3927 46.2033 82.1549 46.315C81.9186 46.4267 81.6314 46.4825 81.2934 46.4825C80.9782 46.4825 80.7054 46.4323 80.4747 46.3319C80.2456 46.2316 80.0651 46.0916 79.9333 45.912C79.803 45.7325 79.7292 45.5239 79.712 45.2864H80.262C80.2764 45.4504 80.3322 45.5861 80.4296 45.6936C80.5285 45.7996 80.6531 45.8788 80.8035 45.9311C80.9553 45.982 81.1186 46.0075 81.2934 46.0075C81.4967 46.0075 81.6794 45.9749 81.8412 45.9099C82.0031 45.8434 82.1313 45.7515 82.2258 45.6342C82.3204 45.5154 82.3676 45.3769 82.3676 45.2185C82.3676 45.0743 82.3268 44.9569 82.2452 44.8664C82.1635 44.776 82.0561 44.7024 81.9229 44.6459C81.7897 44.5893 81.6457 44.5398 81.491 44.4974L80.9496 44.3447C80.6058 44.2472 80.3337 44.1079 80.1331 43.9269C79.9326 43.7459 79.8323 43.5091 79.8323 43.2164C79.8323 42.9732 79.8989 42.7612 80.0321 42.5802C80.1668 42.3978 80.3473 42.2564 80.5736 42.156C80.8013 42.0542 81.0556 42.0033 81.3363 42.0033C81.6199 42.0033 81.872 42.0535 82.0926 42.1539C82.3132 42.2529 82.4879 42.3886 82.6169 42.5611C82.7472 42.7336 82.816 42.9294 82.8231 43.1486H82.3075Z" fill="white"/>
<path d="M83.7594 46.4062V42.0627H85.2462C85.5914 42.0627 85.8735 42.1242 86.0927 42.2472C86.3133 42.3688 86.4766 42.5335 86.5826 42.7414C86.6886 42.9492 86.7416 43.1811 86.7416 43.437C86.7416 43.6929 86.6886 43.9255 86.5826 44.1348C86.478 44.344 86.3161 44.5108 86.097 44.6353C85.8778 44.7583 85.5971 44.8198 85.2548 44.8198H84.1891V44.3532H85.2376C85.4739 44.3532 85.6637 44.3129 85.8069 44.2323C85.9502 44.1517 86.054 44.0428 86.1185 43.9057C86.1844 43.7671 86.2173 43.6109 86.2173 43.437C86.2173 43.2631 86.1844 43.1076 86.1185 42.9704C86.054 42.8333 85.9495 42.7258 85.8048 42.648C85.6601 42.5689 85.4682 42.5293 85.229 42.5293H84.2922V46.4062H83.7594Z" fill="white"/>
<path d="M88.1328 42.0627V46.4062H87.5999V42.0627H88.1328Z" fill="white"/>
<path d="M89.2011 46.4062V42.0627H90.6879C91.0317 42.0627 91.3139 42.1207 91.5345 42.2366C91.7551 42.3511 91.9183 42.5088 92.0243 42.7095C92.1303 42.9103 92.1833 43.1387 92.1833 43.3946C92.1833 43.6505 92.1303 43.8774 92.0243 44.0754C91.9183 44.2733 91.7558 44.4288 91.5366 44.542C91.3175 44.6537 91.0374 44.7095 90.6965 44.7095H89.4933V44.2344H90.6793C90.9143 44.2344 91.1033 44.2005 91.2466 44.1326C91.3912 44.0648 91.4958 43.9686 91.5602 43.8442C91.6261 43.7184 91.6591 43.5685 91.6591 43.3946C91.6591 43.2207 91.6261 43.0687 91.5602 42.9386C91.4944 42.8085 91.3891 42.7081 91.2444 42.6374C91.0997 42.5653 90.9085 42.5293 90.6707 42.5293H89.734V46.4062H89.2011ZM91.2723 44.455L92.3552 46.4062H91.7364L90.6707 44.455H91.2723Z" fill="white"/>
<path d="M93.6041 42.0627V46.4062H93.0712V42.0627H93.6041Z" fill="white"/>
<path d="M98.1617 42.0627V46.4062H97.646L95.2483 42.9959H95.2053V46.4062H94.6724V42.0627H95.1881L97.5945 45.4815H97.6375V42.0627H98.1617Z" fill="white"/>
<path d="M102.236 43.42C102.189 43.2772 102.126 43.1493 102.049 43.0362C101.973 42.9216 101.882 42.8241 101.776 42.7435C101.672 42.6629 101.553 42.6014 101.419 42.559C101.286 42.5165 101.14 42.4953 100.981 42.4953C100.72 42.4953 100.483 42.5618 100.27 42.6947C100.057 42.8276 99.8868 43.0234 99.7608 43.2822C99.6347 43.5409 99.5717 43.8583 99.5717 44.2344C99.5717 44.6105 99.6354 44.928 99.7629 45.1867C99.8904 45.4454 100.063 45.6413 100.281 45.7742C100.498 45.9071 100.743 45.9735 101.016 45.9735C101.268 45.9735 101.49 45.9205 101.682 45.8145C101.875 45.707 102.025 45.5557 102.133 45.3606C102.242 45.1641 102.296 44.9329 102.296 44.6671L102.459 44.701H101.136V44.2344H102.812V44.701C102.812 45.0587 102.734 45.3698 102.58 45.6342C102.426 45.8986 102.214 46.1036 101.944 46.2492C101.674 46.3935 101.365 46.4656 101.016 46.4656C100.626 46.4656 100.284 46.3751 99.9885 46.1941C99.6949 46.0131 99.4657 45.7558 99.301 45.4221C99.1377 45.0884 99.056 44.6925 99.056 44.2344C99.056 43.8909 99.1026 43.5819 99.1957 43.3076C99.2902 43.0319 99.4235 42.7972 99.5953 42.6035C99.7672 42.4098 99.9706 42.2613 100.206 42.1581C100.44 42.0549 100.699 42.0033 100.981 42.0033C101.213 42.0033 101.429 42.0379 101.63 42.1072C101.832 42.1751 102.012 42.2719 102.169 42.3978C102.328 42.5222 102.461 42.6714 102.567 42.8453C102.673 43.0178 102.746 43.2094 102.786 43.42H102.236Z" fill="white"/>
<path d="M107.832 43.1486C107.807 42.9336 107.702 42.7668 107.519 42.648C107.335 42.5293 107.11 42.4699 106.844 42.4699C106.649 42.4699 106.479 42.501 106.333 42.5632C106.188 42.6254 106.075 42.711 105.993 42.8198C105.913 42.9287 105.873 43.0524 105.873 43.191C105.873 43.3069 105.901 43.4066 105.957 43.49C106.014 43.572 106.087 43.6406 106.176 43.6957C106.265 43.7495 106.358 43.794 106.455 43.8294C106.553 43.8633 106.642 43.8909 106.724 43.9121L107.171 44.0308C107.285 44.0605 107.413 44.1015 107.553 44.1538C107.695 44.2062 107.83 44.2776 107.959 44.368C108.089 44.4571 108.197 44.5716 108.281 44.7116C108.366 44.8516 108.408 45.0234 108.408 45.227C108.408 45.4617 108.346 45.6738 108.221 45.8632C108.098 46.0527 107.918 46.2033 107.68 46.315C107.443 46.4267 107.156 46.4825 106.818 46.4825C106.503 46.4825 106.23 46.4323 106 46.3319C105.77 46.2316 105.59 46.0916 105.458 45.912C105.328 45.7325 105.254 45.5239 105.237 45.2864H105.787C105.801 45.4504 105.857 45.5861 105.955 45.6936C106.053 45.7996 106.178 45.8788 106.328 45.9311C106.48 45.982 106.644 46.0075 106.818 46.0075C107.022 46.0075 107.204 45.9749 107.366 45.9099C107.528 45.8434 107.656 45.7515 107.751 45.6342C107.845 45.5154 107.893 45.3769 107.893 45.2185C107.893 45.0743 107.852 44.9569 107.77 44.8664C107.688 44.776 107.581 44.7024 107.448 44.6459C107.315 44.5893 107.171 44.5398 107.016 44.4974L106.474 44.3447C106.131 44.2472 105.859 44.1079 105.658 43.9269C105.457 43.7459 105.357 43.5091 105.357 43.2164C105.357 42.9732 105.424 42.7612 105.557 42.5802C105.692 42.3978 105.872 42.2564 106.098 42.156C106.326 42.0542 106.58 42.0033 106.861 42.0033C107.145 42.0033 107.397 42.0535 107.618 42.1539C107.838 42.2529 108.013 42.3886 108.142 42.5611C108.272 42.7336 108.341 42.9294 108.348 43.1486H107.832Z" fill="white"/>
<path d="M112.997 44.2344C112.997 44.6925 112.913 45.0884 112.746 45.4221C112.578 45.7558 112.348 46.0131 112.056 46.1941C111.764 46.3751 111.43 46.4656 111.055 46.4656C110.679 46.4656 110.346 46.3751 110.053 46.1941C109.761 46.0131 109.531 45.7558 109.364 45.4221C109.196 45.0884 109.112 44.6925 109.112 44.2344C109.112 43.7763 109.196 43.3804 109.364 43.0468C109.531 42.7131 109.761 42.4557 110.053 42.2748C110.346 42.0938 110.679 42.0033 111.055 42.0033C111.43 42.0033 111.764 42.0938 112.056 42.2748C112.348 42.4557 112.578 42.7131 112.746 43.0468C112.913 43.3804 112.997 43.7763 112.997 44.2344ZM112.481 44.2344C112.481 43.8583 112.418 43.5409 112.29 43.2822C112.164 43.0234 111.993 42.8276 111.777 42.6947C111.562 42.5618 111.321 42.4953 111.055 42.4953C110.788 42.4953 110.547 42.5618 110.331 42.6947C110.116 42.8276 109.945 43.0234 109.817 43.2822C109.691 43.5409 109.628 43.8583 109.628 44.2344C109.628 44.6105 109.691 44.928 109.817 45.1867C109.945 45.4454 110.116 45.6413 110.331 45.7742C110.547 45.9071 110.788 45.9735 111.055 45.9735C111.321 45.9735 111.562 45.9071 111.777 45.7742C111.993 45.6413 112.164 45.4454 112.29 45.1867C112.418 44.928 112.481 44.6105 112.481 44.2344Z" fill="white"/>
<path d="M113.893 46.4062V42.0627H114.426V45.9396H116.471V46.4062H113.893Z" fill="white"/>
<path d="M120.184 42.0627H120.717V44.9386C120.717 45.2355 120.646 45.5006 120.504 45.7339C120.364 45.9657 120.165 46.1488 119.909 46.2832C119.653 46.4161 119.352 46.4825 119.007 46.4825C118.661 46.4825 118.361 46.4161 118.104 46.2832C117.848 46.1488 117.649 45.9657 117.507 45.7339C117.366 45.5006 117.296 45.2355 117.296 44.9386V42.0627H117.829V44.8961C117.829 45.1082 117.876 45.297 117.971 45.4624C118.065 45.6264 118.2 45.7558 118.375 45.8505C118.551 45.9438 118.762 45.9905 119.007 45.9905C119.251 45.9905 119.462 45.9438 119.638 45.8505C119.814 45.7558 119.949 45.6264 120.042 45.4624C120.137 45.297 120.184 45.1082 120.184 44.8961V42.0627Z" fill="white"/>
<path d="M121.54 42.5293V42.0627H124.84V42.5293H123.457V46.4062H122.924V42.5293H121.54Z" fill="white"/>
<path d="M126.196 42.0627V46.4062H125.663V42.0627H126.196Z" fill="white"/>
<path d="M130.977 44.2344C130.977 44.6925 130.893 45.0884 130.725 45.4221C130.558 45.7558 130.328 46.0131 130.036 46.1941C129.743 46.3751 129.41 46.4656 129.034 46.4656C128.659 46.4656 128.325 46.3751 128.033 46.1941C127.741 46.0131 127.511 45.7558 127.343 45.4221C127.176 45.0884 127.092 44.6925 127.092 44.2344C127.092 43.7763 127.176 43.3804 127.343 43.0468C127.511 42.7131 127.741 42.4557 128.033 42.2748C128.325 42.0938 128.659 42.0033 129.034 42.0033C129.41 42.0033 129.743 42.0938 130.036 42.2748C130.328 42.4557 130.558 42.7131 130.725 43.0468C130.893 43.3804 130.977 43.7763 130.977 44.2344ZM130.461 44.2344C130.461 43.8583 130.397 43.5409 130.27 43.2822C130.144 43.0234 129.973 42.8276 129.756 42.6947C129.541 42.5618 129.301 42.4953 129.034 42.4953C128.768 42.4953 128.527 42.5618 128.31 42.6947C128.095 42.8276 127.924 43.0234 127.797 43.2822C127.671 43.5409 127.608 43.8583 127.608 44.2344C127.608 44.6105 127.671 44.928 127.797 45.1867C127.924 45.4454 128.095 45.6413 128.31 45.7742C128.527 45.9071 128.768 45.9735 129.034 45.9735C129.301 45.9735 129.541 45.9071 129.756 45.7742C129.973 45.6413 130.144 45.4454 130.27 45.1867C130.397 44.928 130.461 44.6105 130.461 44.2344Z" fill="white"/>
<path d="M135.362 42.0627V46.4062H134.846L132.448 42.9959H132.405V46.4062H131.873V42.0627H132.388L134.795 45.4815H134.838V42.0627H135.362Z" fill="white"/>
<path d="M182.857 30.6546C182.887 30.772 183.065 30.772 183.095 30.6546C183.214 30.1262 183.511 29.4804 184.106 28.8934C185.176 27.8367 186.514 27.778 186.782 27.778C184.849 27.7486 183.273 26.3103 183.035 24.4904C183.035 24.4317 182.976 24.4317 182.976 24.4904C182.738 26.3397 181.162 27.778 179.229 27.778H179.199C180.924 27.8073 182.411 29.0108 182.857 30.6546Z" fill="white"/>
<path d="M81.1865 35.5566C81.246 35.5566 81.3055 35.4979 81.3055 35.4392V34.265C81.3055 34.2063 81.246 34.1476 81.1865 34.1476C80.2647 34.177 79.432 34.4705 78.7184 34.9695C78.6291 35.0282 78.5102 34.9402 78.5399 34.8227C78.8968 33.7073 79.9376 32.8561 81.1865 32.7974C81.246 32.7974 81.3055 32.7387 81.3055 32.68V31.3884C81.3055 31.3297 81.246 31.271 81.1865 31.271C78.867 31.3591 76.9936 33.1496 76.8449 35.4392C76.8449 35.4979 76.9044 35.5566 76.9639 35.5566H81.1865Z" fill="white"/>
</svg>