<svg width="177" height="40" viewBox="0 0 177 40" fill="none" xmlns="http://www.w3.org/2000/svg">
<path d="M22.1764 19.3692C22.7592 17.9889 23.0352 16.4859 23.0352 14.8603C23.0352 13.2653 22.7592 11.7623 22.1764 10.3514C21.5936 8.97111 20.7654 7.7442 19.7226 6.70133C18.6797 5.65845 17.4528 4.83029 16.0418 4.24751C14.6616 3.66473 13.1279 3.38867 11.5023 3.38867C9.87662 3.38867 8.37366 3.66473 6.96271 4.24751C5.58244 4.83029 4.35552 5.62778 3.31265 6.70133C2.26978 7.7442 1.44161 8.97111 0.858832 10.3514C0.276051 11.7317 0 13.2346 0 14.8296C0 16.4246 0.276051 17.9275 0.858832 19.3385C1.44161 20.7494 2.26978 21.9763 3.31265 23.0192C4.35552 24.0621 5.6131 24.8903 6.99338 25.473C8.40432 26.0558 9.9073 26.3625 11.533 26.3625C13.1279 26.3625 14.6309 26.0558 16.0418 25.473C16.8086 25.1356 17.5448 24.7369 18.1889 24.2768L21.5629 27.6508L24.2008 25.0436L20.8268 21.6696C21.3789 20.9641 21.8083 20.1973 22.1764 19.3692ZM15.2137 21.3936C14.1401 22.0377 12.9132 22.3444 11.5023 22.3444C10.4594 22.3444 9.50855 22.1604 8.64971 21.7923C7.7602 21.4242 7.02406 20.9335 6.41061 20.2587C5.79715 19.6145 5.30638 18.8171 4.96898 17.8969C4.63158 16.9767 4.44754 15.9338 4.44754 14.8296C4.44754 13.3573 4.75428 12.0384 5.33706 10.9342C5.95052 9.82994 6.77868 8.94044 7.85223 8.32698C8.92577 7.71353 10.1527 7.4068 11.533 7.4068C12.5758 7.4068 13.5573 7.59084 14.4162 7.95891C15.275 8.32698 16.0418 8.81774 16.6553 9.49254C17.2994 10.1673 17.7902 10.9342 18.1276 11.8543C18.465 12.7745 18.649 13.7561 18.649 14.8603C18.649 16.3019 18.373 17.5595 17.8209 18.6637L14.0174 14.8603L11.4103 17.4981L15.3057 21.3936C15.275 21.3629 15.2444 21.3629 15.2137 21.3936Z" fill="white"/>
<path d="M35.9178 19.4916C35.9178 20.4425 35.6724 21.1786 35.1817 21.7001C34.6909 22.2215 34.0161 22.4976 33.1573 22.4976C32.5745 22.4976 32.0837 22.3749 31.6543 22.1602C31.2249 21.9148 30.9182 21.5774 30.7034 21.1173C30.4887 20.6572 30.3967 20.1051 30.3967 19.4916V10.7192H26.2252V19.5837C26.2252 20.9026 26.532 22.0988 27.1147 23.111C27.6975 24.1232 28.5257 24.9207 29.5686 25.4728C30.6114 26.0556 31.8077 26.3317 33.1573 26.3317C34.5069 26.3317 35.7031 26.0556 36.746 25.5035C37.7888 24.9514 38.617 24.1539 39.1998 23.1417C39.7826 22.1295 40.0586 20.9333 40.0586 19.5837V10.7192H35.9178V19.4916Z" fill="white"/>
<path d="M54.1986 12.1613C53.7692 11.7012 53.2785 11.3332 52.6957 11.0571C51.8368 10.6277 50.8553 10.3823 49.7511 10.3823C48.3708 10.3823 47.1132 10.7197 45.9783 11.4252C44.8741 12.1307 43.9846 13.0815 43.3405 14.2778C42.6964 15.474 42.3896 16.8543 42.3896 18.3572C42.3896 19.8602 42.6964 21.2098 43.3405 22.406C43.9846 23.6023 44.8435 24.5531 45.9783 25.2586C47.0826 25.9641 48.3402 26.3015 49.7511 26.3015C50.8553 26.3015 51.8368 26.0868 52.6957 25.6267C53.2785 25.3199 53.7692 24.9519 54.1986 24.5224V26.3321H58.3088V10.7197H54.1986V12.1613ZM53.3398 21.3325C52.6343 22.0993 51.6835 22.498 50.5179 22.498C49.7511 22.498 49.0763 22.314 48.4935 21.9766C47.9107 21.6392 47.4506 21.1484 47.1439 20.5043C46.8065 19.8909 46.6532 19.1547 46.6532 18.3266C46.6532 17.5291 46.8065 16.8236 47.1439 16.1795C47.4813 15.566 47.9107 15.0753 48.4935 14.7379C49.0763 14.4005 49.7511 14.2164 50.5179 14.2164C51.2847 14.2164 51.9902 14.4005 52.573 14.7379C53.1558 15.0753 53.6159 15.566 53.9226 16.1795C54.26 16.7929 54.4133 17.5291 54.4133 18.3266C54.4133 19.5841 54.0759 20.5657 53.3398 21.3325Z" fill="white"/>
<path d="M72.081 10.7504C71.4982 10.505 70.8234 10.3823 70.0873 10.3823C68.3696 10.3823 67.0813 10.9344 66.1612 12.008L66.1305 12.0387V10.6891H61.9897V26.3015H66.1305V17.5597C66.1305 16.4249 66.4065 15.566 66.9587 15.0139C67.5108 14.4618 68.2469 14.1857 69.1364 14.1857C69.5658 14.1857 69.9339 14.2471 70.2713 14.3698C70.6087 14.4925 70.8848 14.6765 71.0995 14.9526L73.7067 11.9773C73.2159 11.3945 72.6945 10.9958 72.081 10.7504Z" fill="white"/>
<path d="M79.3503 10.7192H75.1788V26.3317H79.3503V10.7192Z" fill="white"/>
<path d="M77.2647 3.47998C76.5899 3.47998 76.0378 3.72536 75.5777 4.18545C75.1483 4.64554 74.9029 5.19765 74.9029 5.87245C74.9029 6.54725 75.1176 7.09936 75.5777 7.55945C76.0071 8.01954 76.5899 8.23425 77.2647 8.23425C77.9701 8.23425 78.5223 8.01954 78.9517 7.55945C79.3811 7.09936 79.5958 6.54725 79.5958 5.87245C79.5958 5.22833 79.3811 4.64554 78.9517 4.18545C78.5223 3.72536 77.9395 3.47998 77.2647 3.47998Z" fill="white"/>
<path d="M82.5096 14.4H89.1042L81.9575 23.9085V26.3317H94.8707V22.6509H87.908L95.0547 13.1424V10.7192H82.5096V14.4Z" fill="white"/>
<path d="M121.096 13.1429C120.574 12.2534 119.838 11.5786 118.949 11.0878C118.029 10.6277 117.016 10.3823 115.881 10.3823C114.747 10.3823 113.704 10.6277 112.784 11.1185C112.047 11.5172 111.434 12.0387 110.913 12.6828C110.452 12.008 109.839 11.4865 109.103 11.0878C108.244 10.6277 107.262 10.3823 106.22 10.3823C105.115 10.3823 104.103 10.6277 103.214 11.0878C102.723 11.3332 102.324 11.6706 101.956 12.0387V10.7197H97.8152V26.3321H101.956V16.977C101.956 16.3942 102.079 15.8727 102.324 15.4433C102.57 15.0139 102.938 14.7072 103.367 14.4925C103.796 14.2778 104.318 14.1551 104.87 14.1551C105.698 14.1551 106.373 14.4005 106.956 14.8912C107.508 15.382 107.784 16.0875 107.784 16.977V26.3321H111.925V16.977C111.925 16.3942 112.047 15.8727 112.293 15.4433C112.538 15.0139 112.906 14.7072 113.366 14.4925C113.826 14.2778 114.317 14.1551 114.839 14.1551C115.667 14.1551 116.342 14.4005 116.924 14.8912C117.476 15.382 117.753 16.0875 117.753 16.977V26.3321H121.893V16.3022C121.893 15.1059 121.617 14.0324 121.096 13.1429Z" fill="white"/>
<path d="M28.6179 35.8723C28.3725 35.8417 28.1885 35.7803 28.0352 35.719V35.3816C28.4339 35.5349 28.8633 35.627 29.3541 35.627C29.7835 35.627 30.1209 35.5656 30.3049 35.4123C30.5196 35.2589 30.6117 35.0442 30.6117 34.7375C30.6117 34.5228 30.581 34.3694 30.489 34.2467C30.397 34.124 30.2743 34.0013 30.1209 33.94C29.9675 33.8479 29.6915 33.7253 29.3541 33.6026C28.9247 33.4492 28.5873 33.2345 28.4032 33.0505C28.2192 32.8358 28.0965 32.5904 28.0965 32.253C28.0965 32.0076 28.1578 31.8235 28.2805 31.6395C28.4032 31.4555 28.5873 31.3328 28.802 31.2408C29.0167 31.1487 29.2927 31.0874 29.5688 31.0874C29.8142 31.0874 29.9982 31.1181 30.2129 31.1488C30.3969 31.1794 30.581 31.2408 30.7957 31.3328V31.6395C30.4276 31.4861 30.0289 31.3941 29.6301 31.3941C29.2621 31.3941 28.986 31.4555 28.7713 31.6088C28.5566 31.7622 28.4646 31.9769 28.4646 32.2223C28.4646 32.4063 28.4952 32.529 28.5873 32.6824C28.6486 32.8051 28.7713 32.9278 28.9553 33.0198C29.1087 33.1118 29.3541 33.2345 29.6608 33.3572C29.9982 33.4799 30.2436 33.6026 30.4276 33.6946C30.6117 33.7866 30.7344 33.94 30.8571 34.0933C30.9491 34.2467 31.0104 34.4614 31.0104 34.7375C31.0104 35.1362 30.8877 35.4123 30.6117 35.627C30.3356 35.8417 29.9369 35.9337 29.4154 35.9337C29.078 35.9337 28.8326 35.903 28.6179 35.8723Z" fill="white"/>
<path d="M35.5192 35.627C35.1511 35.4123 34.8751 35.1362 34.6604 34.7681C34.4457 34.4001 34.3536 33.9706 34.3536 33.5106C34.3536 33.0505 34.4457 32.621 34.6604 32.253C34.8751 31.8849 35.1511 31.6088 35.5192 31.3941C35.8873 31.1794 36.286 31.0874 36.7461 31.0874C37.2062 31.0874 37.6049 31.1794 37.973 31.3941C38.3411 31.6088 38.6172 31.8849 38.8319 32.253C39.0466 32.621 39.1386 33.0505 39.1386 33.5106C39.1386 33.9706 39.0466 34.4001 38.8319 34.7681C38.6172 35.1362 38.3411 35.4123 37.973 35.627C37.6049 35.8417 37.2062 35.9337 36.7461 35.9337C36.286 35.9337 35.8873 35.811 35.5192 35.627ZM37.789 35.3509C38.0957 35.1669 38.3718 34.9215 38.5558 34.6148C38.7398 34.308 38.8319 33.94 38.8319 33.5106C38.8319 33.0811 38.7398 32.7131 38.5558 32.4063C38.3718 32.0996 38.1264 31.8542 37.8197 31.6702C37.5129 31.4862 37.1449 31.3941 36.7768 31.3941C36.378 31.3941 36.0406 31.4861 35.7339 31.6395C35.4272 31.8235 35.1511 32.0689 34.9671 32.3757C34.7831 32.6824 34.691 33.0505 34.691 33.4799C34.691 33.9093 34.7831 34.2774 34.9671 34.5841C35.1511 34.8908 35.3965 35.1362 35.7032 35.3202C36.01 35.5043 36.378 35.5656 36.7461 35.5656C37.1449 35.627 37.4823 35.5349 37.789 35.3509Z" fill="white"/>
<path d="M42.6968 31.1787H45.6107V31.4854H43.0342V33.3565H44.9666V33.6632H43.0342V35.841H42.6968V31.1787Z" fill="white"/>
<path d="M50.273 31.4854H48.7393V31.1787H52.1747V31.4854H50.6411V35.841H50.3037V31.4854H50.273Z" fill="white"/>
<path d="M55.3337 31.1787H55.7018L56.9594 35.2275L58.217 31.1787H58.5237L59.7506 35.2275L61.0082 31.1787H61.3763L59.9654 35.841H59.6279L58.3703 31.7308L57.1128 35.841H56.7754L55.3337 31.1787Z" fill="white"/>
<path d="M65.8546 31.1787H66.1613L68.0323 35.841H67.6643L67.1428 34.4914H64.9037L64.3823 35.841H64.0142L65.8546 31.1787ZM67.0508 34.1846L66.0386 31.6081L65.0264 34.1846H67.0508Z" fill="white"/>
<path d="M71.5598 31.1787H73.2775C74.2283 31.1787 74.6885 31.6081 74.6885 32.467C74.6885 32.8044 74.5964 33.0804 74.3817 33.3258C74.167 33.5405 73.891 33.6939 73.4922 33.7245L74.6885 35.841H74.3204L73.1241 33.7245H71.8972V35.841H71.5598V31.1787ZM73.2468 33.4178C73.5842 33.4178 73.8603 33.3258 74.0443 33.1724C74.2283 33.0191 74.3204 32.7737 74.3204 32.467C74.3204 32.0989 74.2283 31.8535 74.0443 31.7001C73.8603 31.5468 73.5842 31.4854 73.2468 31.4854H71.8972V33.4178H73.2468Z" fill="white"/>
<path d="M78.2157 31.1787H81.1296V31.4854H78.5531V33.3565H80.4854V33.6632H78.5531V35.5342H81.1296V35.841H78.2157V31.1787Z" fill="white"/>
<path d="M89.8713 31.1787H90.2087V33.2951H93.0306V31.1787H93.368V35.841H93.0306V33.6325H90.2087V35.841H89.8713V31.1787Z" fill="white"/>
<path d="M98.1225 35.627C97.7544 35.4123 97.4783 35.1362 97.2636 34.7681C97.0489 34.4001 96.9569 33.9706 96.9569 33.5106C96.9569 33.0505 97.0489 32.621 97.2636 32.253C97.4783 31.8849 97.7544 31.6088 98.1225 31.3941C98.4905 31.1794 98.8893 31.0874 99.3494 31.0874C99.8094 31.0874 100.208 31.1794 100.576 31.3941C100.944 31.6088 101.22 31.8849 101.435 32.253C101.65 32.621 101.742 33.0505 101.742 33.5106C101.742 33.9706 101.65 34.4001 101.435 34.7681C101.22 35.1362 100.944 35.4123 100.576 35.627C100.208 35.8417 99.8094 35.9337 99.3494 35.9337C98.8893 35.9337 98.4905 35.811 98.1225 35.627ZM100.423 35.3509C100.73 35.1669 101.006 34.9215 101.19 34.6148C101.374 34.308 101.466 33.94 101.466 33.5106C101.466 33.0811 101.374 32.7131 101.19 32.4063C101.006 32.0996 100.76 31.8542 100.454 31.6702C100.147 31.4862 99.7788 31.3941 99.4107 31.3941C99.012 31.3941 98.6746 31.4861 98.3678 31.6395C98.0611 31.8235 97.7851 32.0689 97.601 32.3757C97.417 32.6824 97.325 33.0505 97.325 33.4799C97.325 33.9093 97.417 34.2774 97.601 34.5841C97.7851 34.8908 98.0305 35.1362 98.3372 35.3202C98.6439 35.5043 99.012 35.5656 99.3801 35.5656C99.7481 35.627 100.086 35.5349 100.423 35.3509Z" fill="white"/>
<path d="M105.729 35.4738C105.422 35.167 105.269 34.7683 105.269 34.2162V31.1489H105.606V34.2775C105.606 34.7376 105.729 35.0444 106.005 35.2897C106.251 35.5045 106.619 35.6271 107.048 35.6271C107.477 35.6271 107.846 35.5045 108.091 35.2897C108.336 35.075 108.49 34.7376 108.49 34.2775V31.1489H108.827V34.2162C108.827 34.7376 108.674 35.167 108.367 35.4738C108.06 35.7805 107.631 35.9032 107.017 35.9032C106.465 35.9339 106.036 35.7805 105.729 35.4738Z" fill="white"/>
<path d="M112.937 35.8723C112.692 35.8417 112.508 35.7803 112.355 35.719V35.3816C112.753 35.5349 113.183 35.627 113.673 35.627C114.103 35.627 114.44 35.5656 114.624 35.4123C114.839 35.2589 114.931 35.0442 114.931 34.7375C114.931 34.5228 114.9 34.3694 114.808 34.2467C114.716 34.124 114.594 34.0013 114.44 33.94C114.287 33.8479 114.011 33.7253 113.673 33.6026C113.244 33.4492 112.907 33.2345 112.723 33.0505C112.539 32.8358 112.416 32.5904 112.416 32.253C112.416 32.0076 112.477 31.8235 112.6 31.6395C112.723 31.4555 112.907 31.3328 113.121 31.2408C113.336 31.1487 113.612 31.0874 113.888 31.0874C114.134 31.0874 114.318 31.1181 114.532 31.1488C114.716 31.1794 114.9 31.2408 115.115 31.3328V31.6395C114.747 31.4861 114.348 31.3941 113.95 31.3941C113.581 31.3941 113.305 31.4555 113.091 31.6088C112.876 31.7622 112.784 31.9769 112.784 32.2223C112.784 32.4063 112.815 32.529 112.907 32.6824C112.968 32.8051 113.091 32.9278 113.275 33.0198C113.428 33.1118 113.673 33.2345 113.98 33.3572C114.318 33.4799 114.563 33.6026 114.747 33.6946C114.931 33.7866 115.054 33.94 115.176 34.0933C115.268 34.2467 115.33 34.4614 115.33 34.7375C115.33 35.1362 115.207 35.4123 114.931 35.627C114.655 35.8417 114.256 35.9337 113.735 35.9337C113.428 35.9337 113.183 35.903 112.937 35.8723Z" fill="white"/>
<path d="M118.796 31.1787H121.71V31.4854H119.133V33.3565H121.066V33.6632H119.133V35.5342H121.71V35.841H118.796V31.1787Z" fill="white"/>
<path d="M148.395 21.5322L166.093 39.2304C166.216 39.3531 166.369 39.3531 166.492 39.2304L171.553 34.1694C171.676 34.0467 171.676 33.8933 171.553 33.7706L153.855 16.0725C153.732 15.9498 153.579 15.9498 153.456 16.0725L148.395 21.1335C148.303 21.2562 148.303 21.4402 148.395 21.5322Z" fill="#DEA8E4"/>
<path d="M151.401 5.18329L146.34 0.122292C146.217 -0.000399284 146.064 -0.000399284 145.941 0.122292L126.985 19.078C126.863 19.2007 126.863 19.3541 126.985 19.4768L145.941 38.4325C146.064 38.5552 146.217 38.5552 146.34 38.4325L151.401 33.3715C151.524 33.2488 151.524 33.0955 151.401 32.9728L137.905 19.4768C137.782 19.3541 137.782 19.2007 137.905 19.078L151.401 5.58204C151.524 5.45934 151.524 5.27531 151.401 5.18329Z" fill="#DEA8E4"/>
<path d="M163.363 21.7776L168.363 26.7773C168.486 26.9 168.639 26.9 168.762 26.7773L176.154 19.3852C176.276 19.2625 176.276 19.1091 176.154 18.9864L157.29 0.0920182C157.167 -0.0306727 157.014 -0.0306727 156.891 0.0920182L151.83 5.15302C151.708 5.27571 151.708 5.42907 151.83 5.55176L165.326 19.0478C165.449 19.1705 165.449 19.3238 165.326 19.4465L163.394 21.3789C163.271 21.5016 163.271 21.6856 163.363 21.7776Z" fill="#DEA8E4"/>
<path d="M151.8 33.3724L156.799 38.372C156.922 38.4947 157.075 38.4947 157.198 38.372L159.131 36.4396C159.253 36.3169 159.253 36.1636 159.131 36.0409L154.131 31.0412C154.008 30.9185 153.855 30.9185 153.732 31.0412L151.8 32.9736C151.708 33.0656 151.708 33.2497 151.8 33.3724Z" fill="#DEA8E4"/>
</svg>
