<svg xmlns="http://www.w3.org/2000/svg" width="81" height="81" viewBox="0 0 81 81" fill="none">
<path d="M63.3428 69.7686L53.2528 79.8586V69.7686H63.3428ZM28.0278 69.7686V79.8586L17.9378 69.7686H28.0278Z" fill="#B134FF"/>
<path d="M17.9378 69.7686L28.0278 79.8586H1.54152L6.58652 73.5523L1.54152 67.2461H17.9378V69.7686ZM79.739 67.2461L74.694 73.5523L79.739 79.8586H53.2528L63.3428 69.7686V67.2461H79.739Z" fill="#9C25E6"/>
<path d="M63.3428 69.7688H17.9378V57.1562H63.3428V69.7688Z" fill="#B134FF"/>
<path d="M54.514 52.1111V57.1561H26.7665V52.1111H54.514Z" fill="#CC88D4"/>
<path d="M62.0815 18.0574V10.4899H58.2978V21.8411C58.2953 22.8129 58.2151 23.783 58.0581 24.742C59.2735 24.0993 60.2904 23.1371 60.9994 21.9592C61.7083 20.7813 62.0824 19.4322 62.0815 18.0574ZM19.199 10.4899V18.0574C19.1996 19.4336 19.5744 20.7837 20.283 21.9633C20.9917 23.1429 22.0078 24.1079 23.2224 24.7546C23.0654 23.7913 22.9853 22.8171 22.9828 21.8411V10.4899H19.199ZM22.9828 6.70613V1.66113H58.2978V6.70613H65.8653V19.3186C65.8671 21.8507 64.9156 24.2907 63.2003 26.1533C61.485 28.0158 59.1314 29.1646 56.6077 29.3708C55.477 31.7594 53.8249 33.8639 51.7731 35.5293C49.7213 37.1948 47.322 38.3788 44.752 38.9941C45.3195 42.1977 46.7321 48.4661 49.469 52.1111H31.8115C34.5484 48.4661 35.961 42.1977 36.5286 38.9941C33.9586 38.3788 31.5593 37.1948 29.5075 35.5293C27.4557 33.8639 25.8035 31.7594 24.6728 29.3708C22.1491 29.1646 19.7955 28.0158 18.0802 26.1533C16.3649 24.2907 15.4136 21.8507 15.4153 19.3186V6.70613H22.9828ZM45.0547 20.4916L49.469 15.9763L43.3646 15.043L40.6403 9.22863L37.916 15.043L31.8115 15.9763L36.2259 20.4916L35.1791 26.8861L40.6403 23.8717L46.1015 26.8861L45.0547 20.4916Z" fill="#DEA8E4"/>
<path d="M30.5503 21.8411V1.66113H22.9828V6.70613H15.4153V19.3186C15.4136 21.8507 16.3649 24.2907 18.0802 26.1533C19.7955 28.0158 22.1491 29.1646 24.6728 29.3708C25.8035 31.7594 27.4557 33.8639 29.5075 35.5293C31.5593 37.1948 33.9586 38.3788 36.5286 38.9941C35.961 42.1977 34.5484 48.4661 31.8115 52.1111H49.469C46.7763 48.5255 45.3688 42.4084 44.7822 39.1606C40.7718 38.3675 37.1608 36.2075 34.5654 33.0489C31.9699 29.8904 30.5509 25.9292 30.5503 21.8411ZM19.199 18.0574V10.4899H22.9828V21.8411C22.9853 22.8171 23.0654 23.7913 23.2224 24.7546C22.0078 24.1079 20.9917 23.1429 20.283 21.9633C19.5744 20.7837 19.1996 19.4336 19.199 18.0574ZM58.2978 6.70613V10.4899H62.0815V18.0574C62.0824 19.4322 61.7083 20.7813 60.9994 21.9592C60.2904 23.1371 59.2735 24.0993 58.0581 24.742C58.0922 24.5313 58.1099 24.3157 58.1363 24.1025C57.8918 26.0112 57.3344 27.8666 56.4866 29.5941C56.5245 29.5171 56.5712 29.4477 56.6128 29.3708C59.1356 29.1633 61.4878 28.0141 63.2021 26.1517C64.9164 24.2893 65.8672 21.8499 65.8653 19.3186V6.70613H58.2978Z" fill="#CC88D4"/>
<path d="M23.2224 24.7545C22.0078 24.1078 20.9917 23.1429 20.283 21.9632C19.5744 20.7836 19.1996 19.4335 19.199 18.0573V10.4898H22.9828V6.70605H15.4153V19.3186C15.4136 21.8506 16.3649 24.2906 18.0802 26.1532C19.7955 28.0157 22.1491 29.1645 24.6728 29.3707C24.7095 29.4476 24.7561 29.517 24.799 29.594C23.9448 27.8543 23.3851 25.985 23.143 24.0622C23.1657 24.2929 23.1859 24.5262 23.2224 24.7545Z" fill="#DEA8E4"/>
<path d="M26.7665 52.1111V57.1561H54.514V54.6336H34.334C33.6651 54.6336 33.0234 54.3678 32.5503 53.8948C32.0773 53.4217 31.8115 52.7801 31.8115 52.1111H26.7665Z" fill="#DEA8E4"/>
</svg>