<svg xmlns="http://www.w3.org/2000/svg" width="25" height="25" viewBox="0 0 25 25" fill="none">
<path d="M16.69 2.66113H8.31C4.67 2.66113 2.5 4.83113 2.5 8.47113V16.8411C2.5 20.4911 4.67 22.6611 8.31 22.6611H16.68C20.32 22.6611 22.49 20.4911 22.49 16.8511V8.47113C22.5 4.83113 20.33 2.66113 16.69 2.66113ZM12.5 16.5411C10.36 16.5411 8.62 14.8011 8.62 12.6611C8.62 10.5211 10.36 8.78113 12.5 8.78113C14.64 8.78113 16.38 10.5211 16.38 12.6611C16.38 14.8011 14.64 16.5411 12.5 16.5411ZM18.42 7.54113C18.37 7.66113 18.3 7.77113 18.21 7.87113C18.11 7.96113 18 8.03113 17.88 8.08113C17.76 8.13113 17.63 8.16113 17.5 8.16113C17.23 8.16113 16.98 8.06113 16.79 7.87113C16.7 7.77113 16.63 7.66113 16.58 7.54113C16.53 7.42113 16.5 7.29113 16.5 7.16113C16.5 7.03113 16.53 6.90113 16.58 6.78113C16.63 6.65113 16.7 6.55113 16.79 6.45113C17.02 6.22113 17.37 6.11113 17.69 6.18113C17.76 6.19113 17.82 6.21113 17.88 6.24113C17.94 6.26113 18 6.29113 18.06 6.33113C18.11 6.36113 18.16 6.41113 18.21 6.45113C18.3 6.55113 18.37 6.65113 18.42 6.78113C18.47 6.90113 18.5 7.03113 18.5 7.16113C18.5 7.29113 18.47 7.42113 18.42 7.54113Z" fill="white"/>
</svg>