<svg xmlns="http://www.w3.org/2000/svg" width="25" height="25" viewBox="0 0 25 25" fill="none">
<path d="M19.52 22.6141H5.99616C4.2105 22.6141 2.75781 21.1645 2.75781 19.3825V5.89276C2.75781 4.11072 4.2105 2.66113 5.99616 2.66113H19.52C21.3051 2.66113 22.7578 4.11072 22.7578 5.89276V19.383C22.7578 21.165 21.3051 22.6141 19.52 22.6141ZM9.51585 19.1564H9.51998V10.5497H6.84227V19.1564H9.51585ZM8.17932 9.37426C8.38291 9.37453 8.58455 9.33463 8.7727 9.25684C8.96085 9.17906 9.1318 9.06492 9.27576 8.92096C9.41972 8.77699 9.53386 8.60605 9.61164 8.4179C9.68943 8.22975 9.72933 8.02811 9.72906 7.82452C9.72824 7.41375 9.5647 7.02005 9.27425 6.72959C8.98379 6.43914 8.59008 6.2756 8.17932 6.27478C7.76834 6.27492 7.37424 6.43824 7.08364 6.72884C6.79304 7.01944 6.62972 7.41354 6.62958 7.82452C6.62972 8.23549 6.79304 8.6296 7.08364 8.9202C7.37424 9.2108 7.76834 9.37412 8.17932 9.37426ZM19.5355 19.1569V14.4385C19.5355 12.1201 19.0321 10.3365 16.3271 10.3365C15.0267 10.3365 14.1537 11.0489 13.7949 11.7252H13.7588V10.5497H11.1947V19.1564H13.8677V14.8974C13.8677 13.7741 14.0809 12.6874 15.4732 12.6874C16.8423 12.6874 16.8624 13.9718 16.8624 14.9697V19.1564L19.5355 19.1569Z" fill="white"/>
</svg>