<svg width="120" height="40" viewBox="0 0 120 40" fill="none" xmlns="http://www.w3.org/2000/svg">
<path d="M29.5607 29.4367C25.832 27.2831 22.2653 25.2234 18.6991 23.1629C17.0528 22.2116 15.4162 21.2428 13.7556 20.3174C13.2871 20.0561 13.2236 19.8395 13.4451 19.3385C14.9826 15.8614 16.4788 12.366 17.9904 8.87747C18.2523 8.27328 18.458 7.63065 19.3163 7.62001C20.1753 7.60936 20.3886 8.22595 20.6563 8.84396C23.5208 15.4553 26.3894 22.0649 29.2621 28.6727C29.3439 28.8614 29.4124 29.056 29.5607 29.4367ZM12.7263 20.9923C12.9458 20.4761 13.1219 20.3987 13.6268 20.7053C15.3319 21.7405 17.0739 22.7151 18.9137 23.7774L9.26263 29.3592" fill="white"/>
<path d="M19.4013 37.6339C15.8635 37.6339 12.4051 36.5848 9.46352 34.6193C6.52194 32.6538 4.22925 29.8602 2.87539 26.5916C1.52153 23.3231 1.1673 19.7266 1.85749 16.2567C2.54768 12.7869 4.2513 9.59963 6.75291 7.09802C9.25453 4.59641 12.4418 2.89279 15.9116 2.2026C19.3814 1.5124 22.978 1.86664 26.2465 3.2205C29.515 4.57436 32.3087 6.86705 34.2742 9.80863C36.2397 12.7502 37.2888 16.2086 37.2888 19.7464C37.2888 22.0954 36.8261 24.4214 35.9272 26.5916C35.0283 28.7619 33.7107 30.7338 32.0497 32.3948C30.3887 34.0558 28.4167 35.3734 26.2465 36.2723C24.0763 37.1712 21.7503 37.6339 19.4013 37.6339ZM19.4013 3.76486C16.2404 3.76486 13.1506 4.70216 10.5224 6.45824C7.89427 8.21431 5.84588 10.7103 4.63628 13.6305C3.42667 16.5508 3.11018 19.7641 3.72683 22.8642C4.34348 25.9644 5.86558 28.812 8.10064 31.047C10.3357 33.2821 13.1833 34.8042 16.2834 35.4208C19.3836 36.0375 22.5969 35.721 25.5172 34.5114C28.4374 33.3018 30.9334 31.2534 32.6894 28.6253C34.4455 25.9971 35.3828 22.9072 35.3828 19.7464C35.3828 15.5078 33.6991 11.4429 30.7019 8.44574C27.7048 5.44863 23.6399 3.76486 19.4013 3.76486Z" fill="white"/>
<path d="M55.7515 12.8382H59.8039V26.3163H57.1797V17.1997C57.1797 16.9377 57.1828 16.5705 57.1889 16.098C57.1946 15.6258 57.1976 15.2615 57.1978 15.0053L54.6438 26.3162H51.9065L49.371 15.0053C49.371 15.2613 49.3739 15.6256 49.3799 16.0981C49.3858 16.5703 49.3889 16.9375 49.3891 17.1997V26.3163H46.7652V12.8379H50.863L53.3163 23.4357L55.7515 12.8382ZM68.694 16.5514C69.3965 16.8689 69.994 17.3802 70.4163 18.0253C70.8345 18.6429 71.1061 19.3478 71.2105 20.0863C71.2903 20.7424 71.319 21.4038 71.2963 22.0644H64.0377C64.0779 23.0642 64.4252 23.7651 65.0796 24.1673C65.513 24.4268 66.0115 24.5568 66.5164 24.5421C66.9237 24.5741 67.3311 24.482 67.6851 24.278C68.0391 24.074 68.323 23.7676 68.4996 23.3992H71.1603C71.0401 24.0877 70.7014 24.7193 70.1943 25.2003C69.3014 26.1696 68.0515 26.6544 66.4446 26.6546C65.1667 26.6715 63.9237 26.2373 62.9341 25.4284C61.9202 24.6105 61.4132 23.2804 61.4132 21.4379C61.4132 19.7116 61.8708 18.3877 62.7861 17.4662C63.254 17.0042 63.8118 16.6432 64.4248 16.4055C65.0379 16.1679 65.6932 16.0586 66.3503 16.0844C67.1558 16.0718 67.9548 16.231 68.694 16.5514ZM64.7956 18.8023C64.4053 19.2293 64.1619 19.7701 64.1012 20.3455H68.591C68.5886 20.0495 68.5257 19.7572 68.4063 19.4864C68.2869 19.2155 68.1135 18.972 67.8966 18.7705C67.4656 18.4066 66.9151 18.2151 66.3512 18.2331C66.0667 18.2156 65.7816 18.2571 65.5139 18.3551C65.2462 18.453 65.0017 18.6053 64.7956 18.8023ZM71.5901 18.2969V16.4411H72.9798V13.6613H75.5586V16.4408H77.1768V18.2969H75.5586V23.5637C75.5228 23.8285 75.5776 24.0976 75.714 24.3274C75.8177 24.4277 76.1348 24.4779 76.665 24.4779C76.7441 24.4779 76.828 24.477 76.9163 24.4738C77.0046 24.4706 77.0914 24.466 77.1768 24.4598V26.4077L75.9427 26.4532C74.7112 26.4955 73.8699 26.2823 73.4189 25.8134C73.0965 25.4288 72.9387 24.9326 72.9799 24.4325V18.2969L71.5901 18.2969ZM82.7978 20.254C83.1531 20.2232 83.503 20.1464 83.8385 20.0253C83.9989 19.9779 84.1401 19.8805 84.2412 19.7472C84.3424 19.6139 84.3983 19.4518 84.4007 19.2845C84.4178 19.117 84.3862 18.9481 84.3096 18.7981C84.2331 18.6481 84.115 18.5234 83.9693 18.4389C83.5723 18.2611 83.1384 18.1811 82.7041 18.2054C82.0802 18.2054 81.6384 18.3579 81.3788 18.6629C81.1763 18.9294 81.0483 19.2451 81.0081 19.5774H78.4935C78.5145 18.8031 78.7708 18.0535 79.2283 17.4284C79.9201 16.5506 81.1079 16.1117 82.7915 16.1117C83.8027 16.0927 84.8038 16.3153 85.7117 16.761C86.5626 17.1939 86.9881 18.0107 86.9881 19.2115V23.7832C86.9881 24.1003 86.9941 24.4843 87.0062 24.9354C86.9995 25.1763 87.053 25.4151 87.1618 25.6301C87.2607 25.7631 87.3933 25.8673 87.5459 25.9319V26.3163H84.7114C84.6373 26.1334 84.5821 25.9434 84.5466 25.7492C84.5163 25.5724 84.4919 25.3712 84.4735 25.1457C84.1086 25.5385 83.6869 25.8745 83.2225 26.1425C82.6391 26.4705 81.9791 26.6376 81.3099 26.6269C80.4904 26.6578 79.6887 26.3824 79.0612 25.8544C78.7596 25.5784 78.5235 25.2386 78.3699 24.8597C78.2164 24.4809 78.1493 24.0725 78.1736 23.6644C78.1736 22.4391 78.6496 21.5522 79.6015 21.0037C80.322 20.647 81.1034 20.4297 81.9046 20.3633L82.7978 20.254ZM84.3912 21.47C84.2313 21.5701 84.062 21.6544 83.8858 21.7216C83.6581 21.8006 83.4241 21.8601 83.1863 21.8995L82.5929 22.0094C82.1772 22.0633 81.7728 22.1837 81.3953 22.3661C81.199 22.4739 81.0371 22.6349 80.9282 22.8305C80.8193 23.0262 80.7678 23.2486 80.7797 23.4722C80.7631 23.6512 80.7884 23.8315 80.8536 23.999C80.9188 24.1665 81.0222 24.3164 81.1555 24.437C81.4169 24.6388 81.7402 24.7439 82.0704 24.7343C82.6333 24.7362 83.1829 24.5636 83.6437 24.2403C84.1234 23.9112 84.3726 23.3109 84.3912 22.4392L84.3912 21.47ZM91.9258 26.3163H89.3194V12.8379H91.9258V26.3163ZM94.678 12.8382H97.4944V23.8928H104.224V26.3163H94.6783L94.678 12.8382ZM116.169 14.2737C116.59 14.8756 116.807 15.5969 116.788 16.3312C116.823 17.0459 116.601 17.7495 116.163 18.3153C115.876 18.6377 115.526 18.8989 115.135 19.0835C115.773 19.2946 116.321 19.7131 116.692 20.2721C117.056 20.8651 117.239 21.5516 117.217 22.247C117.229 23.0062 117.02 23.7525 116.617 24.396C116.35 24.8433 115.991 25.2292 115.564 25.5285C115.137 25.8278 114.652 26.0337 114.14 26.133C113.513 26.2593 112.875 26.3207 112.235 26.3163H106.163V12.8379H112.676C114.319 12.8627 115.484 13.3413 116.169 14.2737ZM108.851 15.1791V18.1505H112.127C112.623 18.1722 113.116 18.0568 113.552 17.8169C113.741 17.6873 113.892 17.5088 113.989 17.3004C114.085 17.092 114.123 16.8614 114.099 16.633C114.099 16.0051 113.858 15.5906 113.376 15.3894C112.859 15.2351 112.321 15.1641 111.782 15.1791L108.851 15.1791ZM108.851 20.3817V23.9751H112.123C112.59 23.9973 113.056 23.9161 113.488 23.7375C114.079 23.4453 114.374 22.8845 114.374 22.0552C114.399 21.7549 114.329 21.4544 114.176 21.1954C114.022 20.9364 113.791 20.7319 113.515 20.6104C113.086 20.4442 112.628 20.3664 112.168 20.3817L108.851 20.3817Z" fill="white"/>
</svg>
