<svg width="259" height="65" viewBox="0 0 259 65" fill="none" xmlns="http://www.w3.org/2000/svg">
<path d="M127.789 53.743C127.247 53.743 126.773 54.1496 126.773 54.7594C126.773 55.3014 127.179 55.7757 127.789 55.7757C128.331 55.7757 128.805 55.3692 128.805 54.7594C128.805 54.1496 128.331 53.743 127.789 53.743Z" fill="#7F7B7D"/>
<path d="M105.429 14.5118C106.242 14.5118 106.919 13.8342 106.919 13.0212C106.919 12.2081 106.242 11.5305 105.429 11.5305C104.615 11.5305 103.938 12.2081 103.938 13.0212C103.938 13.8342 104.615 14.5118 105.429 14.5118Z" fill="#7F7B7D"/>
<path d="M108.749 14.5118C109.562 14.5118 110.24 13.8342 110.24 13.0212C110.24 12.2081 109.562 11.5305 108.749 11.5305C107.936 11.5305 107.258 12.2081 107.258 13.0212C107.258 13.8342 107.868 14.5118 108.749 14.5118Z" fill="#7F7B7D"/>
<path d="M226.578 15.1218L226.239 15.7993L226.849 15.325C227.391 14.9185 228.001 14.4442 228.679 14.4442H234.573V13.8344H228.407C227.594 13.6989 227.188 12.818 227.188 12.0727C227.188 11.7339 227.391 11.0564 227.933 11.0564C228.475 11.0564 229.153 11.0564 229.83 11.0564C231.05 11.0564 232.202 11.0564 232.744 10.9209C233.557 10.7176 233.964 10.04 234.167 9.56572C234.167 9.49796 234.235 9.43021 234.235 9.43021L234.302 9.36245L233.964 9.15918C233.964 9.15918 233.964 9.22694 233.896 9.22694C233.354 10.04 232.202 10.04 231.253 10.04H228.475C227.188 10.04 226.172 11.0564 226.172 12.276C226.172 13.1568 226.578 13.9021 227.323 14.2409C227.052 14.4442 226.781 14.783 226.578 15.1218Z" fill="#7F7B7D"/>
<path d="M230.779 29.6215C232.879 29.6215 234.573 28.944 235.996 27.5211C235.928 29.3505 235.589 31.5865 233.828 32.6028L233.285 32.8738L233.895 32.9416H233.963C234.573 32.9416 235.318 32.5351 236.064 31.8575C237.148 30.8411 237.757 29.486 237.893 28.1986C238.706 29.0117 239.79 29.486 241.078 29.6215H241.281H241.484V29.5538C243.449 29.3505 245.007 28.2664 245.685 26.5725C246.905 28.4697 249.005 29.5538 251.58 29.5538C255.645 29.5538 258.762 26.5047 258.762 22.5071C258.626 18.5772 255.848 16.0024 251.715 16.0024C247.311 16.0024 244.669 19.458 244.669 22.7781V23.0491C244.669 24.8108 244.669 27.0468 243.042 28.0631C242.568 28.4019 241.958 28.5374 241.349 28.6052C238.028 28.4019 238.028 25.0818 238.028 22.8459V22.5748C238.028 18.7127 235.183 16.0702 230.982 16.0702C225.832 16.0702 223.867 20.2034 223.867 22.8459C223.8 26.0982 225.968 29.6215 230.779 29.6215ZM251.512 17.0865C254.019 17.0865 256.526 18.916 256.526 23.0491C256.526 28.4019 252.664 28.5374 252.257 28.5374C248.87 28.5374 246.701 26.0982 246.701 22.3716C246.701 19.0515 248.463 17.0865 251.512 17.0865ZM230.779 17.0865C233.218 17.0865 235.792 18.9837 235.792 23.0491C235.792 25.0818 235.318 26.5725 234.234 27.4533C233.218 28.4019 231.93 28.5374 231.456 28.5374H231.253C228.61 28.5374 225.968 26.6402 225.968 22.3716C225.968 19.0515 227.797 17.0865 230.779 17.0865Z" fill="#7F7B7D"/>
<path d="M161.26 48.6613C161.26 42.6309 175.083 49.6099 175.421 43.1052C174.134 45.1379 170.949 44.9347 168.917 44.9347H164.445C162.073 44.9347 160.244 46.6963 160.244 48.9323C160.244 50.694 161.328 52.3879 163.157 52.7944C162.141 53.1332 161.192 53.8108 160.718 54.7594C161.938 53.9463 163.157 52.9299 164.648 52.9299H175.896V52.3879H164.038C162.209 52.0491 161.26 50.3552 161.26 48.6613Z" fill="#7F7B7D"/>
<path d="M180.165 37.6847C180.232 37.6847 180.232 37.6847 180.232 37.617C180.232 37.5492 180.165 37.4814 180.029 37.4814H177.183C177.048 37.4814 176.98 37.5492 176.98 37.617C176.98 37.6847 176.98 37.6847 177.048 37.6847C177.59 37.6847 177.793 37.8202 177.861 38.43V51.7103C177.861 52.3879 177.725 52.6589 177.048 52.7267C176.98 52.7267 176.98 52.7267 176.98 52.7944C176.98 52.8622 177.048 52.93 177.183 52.93H180.029C180.165 52.93 180.232 52.8622 180.232 52.7944C180.232 52.7267 180.232 52.7267 180.165 52.7267C179.419 52.7267 179.148 52.6589 179.148 51.4393C179.148 40.7338 179.081 39.5819 179.148 38.43C179.216 37.7525 179.623 37.7525 180.165 37.6847Z" fill="#7F7B7D"/>
<path d="M188.77 43.2406C188.16 43.0374 187.415 42.9019 186.737 42.9019C183.756 42.9019 181.452 45.0701 181.452 47.9158C181.452 49.8808 182.739 52.9298 186.669 52.9298C188.295 52.9298 189.718 52.32 190.735 51.1004C190.735 52.5911 190.531 54.6238 189.041 55.4368C189.718 55.7756 191.48 54.0139 191.751 52.7266C192.022 51.7102 191.954 50.5584 191.954 49.4743C191.954 46.8317 191.954 44.4603 188.77 43.2406ZM187.686 52.3878C187.415 52.3878 187.211 52.4555 187.008 52.4555C184.569 52.4555 182.807 50.6261 182.807 47.6448C182.807 44.8668 184.366 43.5117 186.602 43.5117C188.634 43.5117 190.531 45.0701 190.531 48.1869C190.599 51.507 188.566 52.2523 187.686 52.3878Z" fill="#7F7B7D"/>
<path d="M206.793 37.4814H203.947C203.812 37.4814 203.744 37.4814 203.744 37.617C203.744 37.7525 204.286 37.7525 204.421 37.7525C204.896 37.888 204.896 38.2268 204.896 38.9721C204.896 39.1076 204.896 44.7314 204.896 44.9347V48.458C204.896 50.1519 204.625 52.2524 202.253 52.4557C201.779 52.4557 201.305 52.3202 200.898 52.0491C199.543 51.236 199.611 49.5421 199.611 48.1192C199.611 47.9837 199.611 47.916 199.611 47.7805C199.611 45.138 197.646 42.9697 194.393 42.9697C193.987 42.9697 193.512 43.0375 193.106 43.1052V43.5795C193.512 43.444 193.851 43.444 194.19 43.444C196.562 43.444 198.255 45.3412 198.255 48.187C198.255 50.2875 197.239 52.4557 194.664 52.4557C194.122 52.4557 193.58 52.3879 193.106 52.1846V52.8622C193.512 52.93 193.851 52.93 194.258 52.93C196.155 52.93 197.984 52.0491 198.933 50.3552C199.407 51.9814 200.762 52.7945 202.253 52.93C206.59 52.5912 206.115 48.8646 206.115 45.6122V38.7011C206.115 37.9557 206.183 37.6847 206.928 37.6847C206.996 37.6847 206.996 37.617 206.996 37.617C207.064 37.4814 206.996 37.4814 206.793 37.4814Z" fill="#7F7B7D"/>
<path d="M211.468 37.6847C211.536 37.6847 211.603 37.6847 211.603 37.617C211.603 37.5492 211.536 37.4814 211.4 37.4814H208.554C208.419 37.4814 208.351 37.5492 208.351 37.617C208.351 37.6847 208.351 37.6847 208.487 37.6847C209.029 37.6847 209.232 37.8202 209.3 38.43V51.7103C209.3 52.3879 209.164 52.6589 208.487 52.7267C208.419 52.7267 208.351 52.7267 208.351 52.7944C208.351 52.8622 208.419 52.93 208.554 52.93H211.4C211.536 52.93 211.603 52.8622 211.603 52.7944C211.603 52.7267 211.536 52.7267 211.468 52.7267C210.723 52.7267 210.452 52.6589 210.452 51.4393C210.452 40.7338 210.384 39.5819 210.452 38.43C210.519 37.7525 210.858 37.7525 211.468 37.6847Z" fill="#7F7B7D"/>
<path d="M236.199 37.4814H233.353C233.218 37.4814 233.15 37.4814 233.15 37.5492C233.15 37.6847 233.692 37.6847 233.828 37.6847C234.302 37.8202 234.302 38.159 234.302 38.9043C234.302 39.0398 234.302 44.6637 234.302 44.8669V48.3903C234.302 50.0842 234.031 52.1846 231.66 52.3879C231.185 52.3879 230.711 52.1846 230.304 51.9814C228.882 51.1005 229.017 49.0678 229.017 47.7127C229.017 44.8669 226.984 42.902 223.8 42.902C220.276 42.902 218.583 45.68 218.583 47.916C218.583 49.6776 218.718 52.2524 215.94 52.4557V52.9977C217.431 52.8622 218.786 52.1169 219.26 50.5585C220.005 51.9814 221.632 52.9977 223.732 52.9977C225.561 52.9977 227.052 52.2524 228.068 50.8295C228.204 50.694 228.204 50.5585 228.339 50.423C228.814 52.0491 230.169 52.8622 231.66 52.9977C235.996 52.6589 235.522 48.9323 235.522 45.68V38.7011C235.522 37.9557 235.657 37.6847 236.335 37.6847C236.402 37.6847 236.47 37.617 236.47 37.5492C236.403 37.4814 236.403 37.4814 236.199 37.4814ZM225.561 52.1169C225.087 52.3202 224.681 52.4557 224.274 52.4557C221.835 52.4557 219.938 50.7618 219.938 47.5772C219.938 44.7992 221.496 43.444 223.732 43.444C226.036 43.444 227.662 45.2057 227.662 48.1192C227.662 50.7618 226.375 51.8459 225.561 52.1169Z" fill="#7F7B7D"/>
<path d="M246.836 52.4557C245.142 52.0491 244.194 50.423 244.194 48.729C244.194 46.2898 245.955 46.1543 247.988 46.1543C250.427 46.1543 253.205 46.5608 255.509 45.951C257.271 45.4767 258.016 43.7151 258.355 43.0375C257.609 44.3926 256.051 44.7314 254.628 44.7992C251.986 45.0024 249.614 44.8669 247.31 44.8669C245.007 44.8669 243.109 46.6964 243.109 48.8646C243.109 50.4907 243.923 51.7781 245.142 52.3879H242.364C239.925 52.2524 239.722 50.0164 239.722 48.3903C239.722 46.2898 239.722 41.0726 239.722 38.3623C239.722 37.8202 239.925 37.617 240.738 37.617C240.806 37.617 240.874 37.5492 240.874 37.5492C240.874 37.4814 240.738 37.4814 240.67 37.4814H237.824C237.689 37.4814 237.621 37.4814 237.621 37.5492C237.621 37.6847 238.231 37.6847 238.299 37.8202C238.502 38.0235 238.502 38.3623 238.502 38.9721V47.0351C238.502 49.8809 238.57 52.5912 242.364 52.93H258.694V52.3879H246.836V52.4557Z" fill="#7F7B7D"/>
<path d="M105.158 42.9019C101.838 42.9019 100.008 45.4089 100.008 47.8481C100.008 49.7453 101.025 52.6588 105.09 52.7943C107.733 52.7266 110.307 51.1682 110.307 47.6448C110.307 44.5958 108.004 42.9019 105.158 42.9019ZM105.429 52.32C103.125 52.32 101.363 50.5584 101.296 47.5093C101.363 44.9346 102.651 43.3762 105.09 43.3762C107.394 43.3762 109.02 45.2733 109.02 48.0514C109.02 50.9649 107.394 52.32 105.429 52.32Z" fill="#7F7B7D"/>
<path d="M107.394 40.4626C107.394 39.9206 106.919 39.4463 106.377 39.4463C105.835 39.4463 105.361 39.8528 105.361 40.4626C105.361 41.0047 105.768 41.479 106.377 41.479C106.919 41.479 107.394 41.0047 107.394 40.4626Z" fill="#7F7B7D"/>
<path d="M105.022 40.4626C105.022 39.9206 104.615 39.4463 104.006 39.4463C103.464 39.4463 102.989 39.8528 102.989 40.4626C102.989 41.0047 103.464 41.479 104.006 41.479C104.548 41.479 105.022 41.0047 105.022 40.4626Z" fill="#7F7B7D"/>
<path d="M114.102 42.9019C113.153 42.9019 112.137 42.9019 111.188 42.9019C111.12 42.9019 111.12 42.9696 111.12 42.9696C111.12 43.1729 111.595 43.1051 111.662 43.1051C112.137 43.1051 112.204 43.7149 112.204 44.0537C112.204 44.5958 112.204 46.6285 112.204 50.1518C112.204 53.7429 111.73 54.3527 110.307 55.4368C111.73 54.9625 112.814 53.8784 113.153 52.5911C113.289 52.049 113.356 50.7616 113.356 49.271C113.356 48.3901 113.356 47.3738 113.356 46.493V44.0537C113.356 43.4439 113.492 43.0374 114.102 43.0374C114.169 43.0374 114.237 43.0374 114.237 42.9019C114.305 42.9696 114.305 42.9019 114.102 42.9019Z" fill="#7F7B7D"/>
<path d="M143.644 40.4626C143.644 39.9206 143.169 39.4463 142.627 39.4463C142.085 39.4463 141.611 39.8528 141.611 40.4626C141.611 41.0047 142.017 41.479 142.627 41.479C143.169 41.479 143.644 41.0047 143.644 40.4626Z" fill="#7F7B7D"/>
<path d="M141.272 40.4626C141.272 39.9206 140.866 39.4463 140.256 39.4463C139.714 39.4463 139.24 39.8528 139.24 40.4626C139.24 41.0047 139.714 41.479 140.256 41.479C140.798 41.479 141.272 41.0047 141.272 40.4626Z" fill="#7F7B7D"/>
<path d="M155.636 37.4814H152.858C152.722 37.4814 152.654 37.4814 152.654 37.5492C152.654 37.6847 153.197 37.6847 153.332 37.6847C153.806 37.8202 153.806 38.159 153.806 38.9043C153.806 39.0398 153.806 44.5959 153.806 44.7992V48.3225C153.806 49.9487 153.535 52.1169 151.164 52.2524C148.792 52.1169 148.521 49.9487 148.521 48.3225V38.9721C148.521 37.9557 148.521 37.6847 149.538 37.6847C149.605 37.6847 149.605 37.617 149.605 37.617C149.605 37.5492 149.538 37.5492 149.402 37.5492H146.353C146.218 37.5492 146.15 37.5492 146.15 37.617C146.15 37.8202 146.76 37.6847 146.827 37.7525C147.302 38.0235 147.234 38.4978 147.234 38.9721C147.234 46.0188 147.234 47.1706 147.234 48.3225C147.234 49.9487 146.963 52.1169 144.591 52.2524C144.117 52.2524 143.643 52.1169 143.236 51.8459C142.017 51.1005 141.949 49.6776 141.949 48.3225C141.949 44.0538 141.949 43.9861 141.949 43.9183C141.949 43.5118 142.017 43.1052 142.626 43.1052C142.694 43.1052 143.033 43.1052 143.033 42.9697C143.033 42.902 142.965 42.8342 142.83 42.8342H139.848C139.713 42.8342 139.645 42.8342 139.645 42.9697C139.645 43.0375 139.848 43.1052 140.052 43.1052C140.662 43.1052 140.729 43.5118 140.729 44.0538V48.2548C140.729 49.8809 140.391 52.1169 138.155 52.2524C136.122 52.1846 135.58 50.423 135.512 48.8646C135.444 46.6286 133.547 44.7992 131.379 44.7992C129.007 44.7992 126.636 44.9347 124.129 44.7314C122.706 44.5959 121.215 44.3249 120.47 42.9697C120.809 43.5795 121.486 45.3412 123.316 45.8155C125.755 46.2221 128.33 46.0188 130.769 46.0188C131.379 46.0188 132.056 46.0188 132.666 46.0865C133.886 46.1543 134.496 47.4417 134.496 48.5258C134.496 50.2197 133.615 52.2524 131.921 52.2524H120.131C117.76 52.1169 117.489 49.9487 117.489 48.3225C117.489 46.2221 117.489 41.0726 117.489 38.3623C117.489 37.8202 117.692 37.617 118.437 37.617C118.505 37.617 118.573 37.5492 118.573 37.5492C118.573 37.4814 118.505 37.4814 118.37 37.4814H115.592C115.456 37.4814 115.388 37.4814 115.388 37.5492C115.388 37.6847 115.998 37.6847 116.066 37.8202C116.269 38.0235 116.269 38.3623 116.269 38.9721V46.9674C116.269 49.7454 116.337 52.4557 120.064 52.7944H132.124C133.412 52.7944 134.428 51.8459 134.97 50.7617C135.58 52.0491 136.732 52.6589 138.087 52.7944C139.848 52.6589 140.797 51.9814 141.271 51.0328C141.813 51.9814 142.762 52.6589 144.524 52.7944C146.285 52.6589 147.234 51.9814 147.776 50.965C148.25 51.9136 149.267 52.6589 150.961 52.7944C155.297 52.4557 154.755 48.7291 154.755 45.5445V38.7011C154.755 37.9557 154.823 37.7525 155.568 37.7525C155.636 37.7525 155.636 37.6847 155.636 37.6847C155.839 37.5492 155.771 37.4814 155.636 37.4814Z" fill="#7F7B7D"/>
<path d="M221.428 22.1005V17.4931C221.428 16.8155 221.767 16.7478 222.174 16.7478C222.377 16.7478 222.648 16.68 222.648 16.409C222.648 16.2735 222.58 16.0702 222.174 16.0702C221.496 16.0702 220.886 16.0702 220.209 16.0702C219.531 16.0702 218.921 16.0702 218.244 16.0702C218.108 16.0702 217.973 16.2057 217.973 16.3412C217.973 16.409 217.973 16.4767 218.108 16.6123C218.176 16.68 218.379 16.7478 218.786 16.7478C218.989 16.7478 219.125 16.8155 219.26 17.0188C219.463 17.3576 219.463 17.4931 219.463 17.5608C219.463 17.6286 219.463 18.7805 219.463 23.4557C219.463 25.7594 218.921 28.5374 216.211 28.5374C215.669 28.5374 215.127 28.4019 214.517 27.9954C213.026 27.0468 212.891 25.2173 212.891 23.4557C212.891 20.8809 212.891 20.9487 212.891 20.0678C212.891 19.5935 212.891 19.187 212.891 18.7805C212.891 18.2384 213.094 18.0351 213.568 18.0351C213.907 18.0351 214.314 18.0351 214.314 17.6964C214.314 17.5608 214.246 17.3576 213.84 17.3576H209.842C209.639 17.3576 209.571 17.3576 209.435 17.4931C209.368 17.5608 209.368 17.6286 209.368 17.6964C209.368 17.7641 209.368 17.8319 209.368 17.8996C209.435 18.0351 209.639 18.0351 209.842 18.1029C210.045 18.1029 210.316 18.1707 210.452 18.2384C210.519 18.3062 210.587 18.3739 210.655 18.5094C210.723 18.645 210.723 19.0515 210.723 19.187C210.723 19.5258 210.723 19.7291 210.723 19.7968V23.5912C210.723 25.8949 210.181 28.6729 207.47 28.6729C204.625 28.6729 204.218 25.4884 204.218 23.5912C204.218 19.5935 204.218 20.1356 204.218 20.0678C204.218 19.6613 204.286 19.3903 204.963 19.3903C205.37 19.3903 205.709 19.3903 205.709 19.0515C205.709 18.7127 205.438 18.7127 205.234 18.7127H201.237C201.034 18.7127 200.762 18.7127 200.762 19.0515C200.762 19.3225 201.101 19.3903 201.576 19.458C201.711 19.458 201.982 19.5258 202.05 19.5258C202.185 19.6613 202.321 20.0001 202.321 20.4744V23.6589C202.321 25.4206 202.185 27.25 200.695 28.1986C200.153 28.5374 199.611 28.7407 199.069 28.7407H196.494C195.884 28.7407 195.342 28.5374 194.8 28.1986C193.309 27.25 193.174 25.3529 193.174 23.6589C193.174 21.0842 193.174 19.8646 193.174 18.9837C193.174 18.5094 193.174 18.1029 193.174 17.6286C193.174 17.0865 193.377 16.8833 193.851 16.8833C194.19 16.8833 194.597 16.8833 194.597 16.5445C194.597 16.4767 194.597 16.409 194.529 16.3412C194.461 16.2735 194.326 16.2057 194.122 16.2057H190.125C189.989 16.2057 189.65 16.2057 189.65 16.5445C189.65 16.8155 189.921 16.8155 190.328 16.8833C190.463 16.8833 190.802 16.951 190.802 17.0188C191.073 17.2898 191.073 18.1029 191.073 18.7127V23.6589C191.073 25.4206 190.938 27.25 189.447 28.1986C188.363 28.8762 187.143 28.8762 186.127 28.1986C184.636 27.25 184.501 25.4206 184.501 23.6589C184.501 18.7127 184.501 19.3225 184.501 19.1192V18.9837V18.8482C184.569 18.4417 184.569 18.1707 185.178 18.1707C185.517 18.1707 185.924 18.1707 185.924 17.8319C185.924 17.7641 185.924 17.6964 185.856 17.6286C185.788 17.4931 185.653 17.4931 185.449 17.4931H181.52C181.316 17.4931 181.045 17.4931 181.045 17.8319C181.045 17.8996 181.045 17.9674 181.113 18.0351C181.249 18.1707 181.384 18.1029 181.587 18.1707C181.655 18.1707 181.791 18.1707 181.858 18.1707H181.926C182.129 18.1707 182.265 18.1707 182.333 18.3062C182.468 18.4417 182.468 18.7805 182.468 19.1192V23.6589C182.468 25.3529 182.333 27.25 180.842 28.1986C179.758 28.8762 178.674 28.8762 177.59 28.1986C176.099 27.25 175.964 25.4206 175.964 23.6589C175.964 22.3038 175.964 23.6589 175.964 22.7104C175.964 21.8973 175.964 21.2197 175.964 20.5421V20.4744C175.964 19.7291 176.031 19.458 176.641 19.458H176.709C176.98 19.458 177.183 19.458 177.319 19.3225C177.386 19.2548 177.386 19.187 177.386 19.1192C177.386 19.0515 177.386 18.9837 177.319 18.916C177.251 18.7805 177.115 18.7805 176.912 18.7805H172.914C172.508 18.7805 172.44 19.0515 172.44 19.1192C172.44 19.187 172.44 19.458 173.321 19.5258C173.457 19.5258 173.592 19.5258 173.66 19.6613C173.863 19.8646 173.863 20.2711 173.863 20.4744V23.7267C173.795 26.3015 173.389 28.6729 170.543 28.8084H117.015C113.695 28.4697 113.695 25.4206 113.695 23.1169V22.5071C113.695 18.645 110.849 16.0024 106.648 16.0024C101.296 16.0024 99.9406 20.4066 99.7373 21.2875C99.6018 21.7618 99.534 22.3038 99.534 22.7781C99.534 26.0304 101.702 29.3505 106.581 29.5538C109.155 29.486 111.12 28.4697 112.611 26.437C113.289 28.1986 114.779 29.3505 116.88 29.5538H117.015H117.219H170.407H170.611H170.746C172.711 29.4183 174.066 28.6729 174.812 27.3856C175.693 28.8085 177.115 29.5538 179.013 29.5538C180.774 29.5538 182.4 28.7407 183.281 27.3856C184.162 28.7407 185.788 29.5538 187.55 29.5538H187.618C189.379 29.5538 190.938 28.6729 191.819 27.3856C192.293 28.1309 192.97 28.7407 193.919 29.0795C193.919 29.0795 193.919 29.0795 193.987 29.1472C194.055 29.1472 194.122 29.215 194.258 29.215C194.326 29.215 194.326 29.215 194.393 29.2827C194.868 29.4183 195.613 29.5538 196.765 29.5538C197.984 29.5538 198.798 29.5538 199.543 29.486C199.611 29.486 199.678 29.486 199.746 29.4183C199.882 29.4183 200.017 29.3505 200.22 29.3505C200.424 29.2827 200.559 29.2827 200.695 29.215C200.695 29.215 200.762 29.215 200.762 29.1472H200.83C201.711 28.8084 202.389 28.1986 202.863 27.4533C203.676 28.7407 205.031 29.486 207.064 29.6215C208.758 29.6215 210.452 28.7407 211.333 27.4533C212.213 28.8762 213.636 29.6215 215.601 29.6215C221.022 29.6215 221.428 25.8949 221.428 22.1005ZM107.462 28.5374C104.345 28.5374 102.109 25.9627 102.109 22.3716C102.109 19.0515 103.938 17.0188 106.92 17.0188C109.359 17.0188 111.933 18.916 111.933 22.9814C112.001 27.0468 109.63 28.5374 107.462 28.5374Z" fill="#7F7B7D"/>
<mask id="mask0_112_2220" style="mask-type:luminance" maskUnits="userSpaceOnUse" x="18" y="39" width="19" height="16">
<path d="M20.2112 45.7694C20.2829 45.8411 20.3546 45.9845 20.3546 46.0561C20.498 46.2712 20.5697 46.4863 20.7848 46.6297L21.0715 46.9881C21.7168 47.7767 22.5054 48.5653 23.3657 49.2106C24.7278 50.2143 26.0182 51.1462 27.3804 51.9348L27.7388 52.1499H27.8105C30.4631 53.5121 33.3308 54.3007 36.3418 54.5874L35.6249 53.0102L34.8363 51.2896C34.8363 51.2179 34.7646 51.0746 34.6929 51.0029L34.6212 50.9312C34.5495 50.6444 34.4062 50.4293 34.2628 50.2143L34.1911 50.1426C34.1911 50.0709 34.1194 50.0709 34.1194 49.9992C32.4705 49.6407 30.8933 49.0672 29.3878 48.2786L29.4594 48.2069C28.3124 47.5617 27.1653 46.7731 26.0182 45.8411C25.373 45.3392 24.7995 44.8374 24.3693 44.2639L24.1543 43.9054H24.0826L23.9392 43.6903C23.3657 42.7583 23.0789 41.683 22.9355 40.6793C22.7204 40.6076 22.5054 40.5359 22.2903 40.4642L22.0752 40.3208C21.7884 40.2491 21.5017 40.1057 21.2149 40.0341C20.7848 39.8907 20.3546 39.7473 19.9245 39.6756C19.4943 39.5322 19.0642 39.4605 18.7057 39.3888L18.4189 39.3171C18.5623 41.3962 18.9208 43.6186 20.2112 45.7694Z" fill="white"/>
</mask>
<g mask="url(#mask0_112_2220)">
<path d="M36.4139 39.3888H18.491V54.6591H36.4139V39.3888Z" fill="url(#paint0_linear_112_2220)"/>
</g>
<mask id="mask1_112_2220" style="mask-type:luminance" maskUnits="userSpaceOnUse" x="20" y="0" width="39" height="55">
<path d="M36.5597 5.40695C36.5597 5.47864 33.9071 10.8555 28.0284 19.8169C27.3115 20.8923 26.5229 21.9677 25.6626 23.1865C23.7986 25.7673 20.3574 31.8611 20.3574 31.8611L20.5008 31.9328C21.0026 32.0045 21.4328 32.1479 21.9346 32.2913C22.5082 32.4347 23.0817 32.578 23.6552 32.7931L23.7986 32.8648C24.0137 32.9365 24.2288 33.0082 24.4438 33.0799H24.5155C25.6626 30.6424 27.4549 28.2049 29.1755 25.839C30.0358 24.6203 30.8961 23.4732 31.6847 22.3262C34.8391 17.5945 37.0616 13.7949 38.4237 11.2857C39.7858 13.8666 42.08 17.6662 45.5212 22.3978C46.0947 23.2581 46.8116 24.1184 47.4568 25.0504C49.3925 27.5596 51.4716 30.2839 52.762 33.0082C52.9771 33.4383 53.1205 33.8685 53.2638 34.227C53.3355 34.3703 53.3355 34.442 53.4072 34.5854C53.5506 34.8722 53.6223 35.1589 53.694 35.5174L53.8374 36.0192C54.1241 37.0229 54.2675 37.9549 54.2675 38.8869C54.2675 39.5321 54.2675 40.1773 54.1958 40.7509C54.0524 41.5395 53.8374 42.3281 53.4789 43.045L53.3355 43.2601C53.3355 43.3318 53.2638 43.4035 53.1921 43.4752L53.0488 43.7619C52.9771 43.8336 52.9771 43.9053 52.9054 43.977L52.8337 44.1204C52.762 44.1921 52.6903 44.2638 52.6186 44.4072L52.5469 44.4788C52.4035 44.6222 52.3318 44.7656 52.1885 44.909C52.0451 45.0524 51.9017 45.1958 51.83 45.3391C51.3999 45.7693 50.898 46.1994 50.1811 46.773C49.3208 47.3465 48.5322 47.92 47.6719 48.4219L47.5285 48.4936C46.023 49.2822 44.3741 49.8557 42.7252 50.2142C42.7252 50.2859 42.6535 50.3575 42.6535 50.4292C42.5818 50.6443 42.4384 50.7877 42.3667 51.0028L42.295 51.2178L42.1517 51.5763L41.363 53.2252L40.5744 54.8741C43.7289 54.5874 46.7399 53.7271 49.5359 52.2932C49.6076 52.2932 49.6793 52.2215 49.6793 52.2215L49.8226 52.1498C50.8263 51.5763 51.83 50.9311 52.8337 50.2142C53.7657 49.5689 54.4826 48.9237 55.1278 48.2068C55.2712 48.0634 55.4863 47.8483 55.6297 47.705L55.7014 47.6333C55.8447 47.4182 55.9881 47.2748 56.2032 46.988L56.2749 46.9164C56.4183 46.773 56.49 46.6296 56.5617 46.4862L56.6333 46.4145C56.705 46.3428 56.7767 46.1994 56.8484 46.1277L56.9918 45.9127C57.1352 45.6976 57.2069 45.4825 57.3503 45.3391V45.2675C58.2822 43.5469 58.7841 41.6112 58.7841 39.5321C58.7841 38.9586 58.7841 38.3851 58.7124 37.7398C58.6407 36.8795 58.4256 35.9475 58.2106 34.9439L58.0672 34.5137C57.9955 34.1553 57.8521 33.8685 57.7804 33.51C57.7087 33.295 57.637 33.0082 57.5653 32.7931C57.4219 32.5064 57.3503 32.2196 57.2069 31.9328C55.773 28.5633 53.2638 25.3372 51.1131 22.4695C50.4679 21.6092 49.8226 20.7489 49.1774 19.9603C42.5818 10.9989 40.5027 5.62202 40.5027 5.62202L38.7105 0.890381L36.5597 5.40695Z" fill="white"/>
</mask>
<g mask="url(#mask1_112_2220)">
<path d="M58.5693 0.890381H20.286V54.7307H58.5693V0.890381Z" fill="url(#paint1_linear_112_2220)"/>
</g>
<mask id="mask2_112_2220" style="mask-type:luminance" maskUnits="userSpaceOnUse" x="0" y="21" width="77" height="44">
<path d="M73.1936 24.9788C73.0503 25.1222 72.7635 25.3373 72.4767 25.5524C72.19 25.7674 71.9749 25.9825 71.6881 26.1259C71.1146 26.4843 70.6127 26.9145 70.0392 27.2729C68.8922 27.9899 67.7451 28.7068 66.5263 29.352C65.3076 29.9972 64.0888 30.6425 62.8701 31.216C61.6513 31.7895 60.4326 32.2914 59.2138 32.7932V32.8649C59.2855 33.1517 59.4289 33.4384 59.5006 33.7969L59.7156 34.6572C59.9307 35.4458 60.0741 36.2344 60.1458 37.0947L60.5042 36.9513H60.5759C61.9381 36.3778 63.3002 35.8759 64.5907 35.2307C65.9528 34.5855 67.2432 33.9403 68.5337 33.295C69.8241 32.5781 71.1146 31.8612 72.3334 31.0726C72.405 31.0009 72.4767 31.0009 72.5484 30.9292C72.5484 32.0046 72.5484 33.0083 72.4767 34.0836C72.405 35.3024 72.3334 36.4495 72.19 37.6682C72.0466 38.8153 71.9032 40.034 71.6881 41.1811C71.4731 42.3282 71.1863 43.4752 70.8995 44.5506C70.5411 45.626 70.1826 46.7014 69.6808 47.705C69.4657 48.2069 69.1789 48.7087 68.8922 49.2106L68.6771 49.569C68.6771 49.569 68.6771 49.569 68.6771 49.6407L68.6054 49.7124L68.462 49.9275C68.3186 50.1426 68.1035 50.501 67.9602 50.7161C67.3866 51.5764 66.6697 52.5084 65.8811 53.297C62.8701 56.5948 58.712 58.9606 54.3388 60.1077C52.4031 60.6095 50.3957 60.8963 48.3884 60.8963C48.0299 60.8963 47.6715 60.8963 47.3847 60.8963C48.1016 60.5378 48.8185 60.1794 49.4637 59.7492C49.8939 59.4625 50.3957 59.2474 50.8259 58.9606C51.256 58.6738 51.7579 58.3871 52.188 58.1003C52.6182 57.8135 53.0483 57.5268 53.4785 57.1683C53.9086 56.8816 54.3388 56.5231 54.6972 56.2363L55.916 55.2327L57.063 54.1573L58.1384 53.0102C58.4969 52.6518 58.7836 52.2216 59.1421 51.7915C59.5006 51.3613 59.7873 50.9312 60.0024 50.501C60.2892 50.0709 60.5042 49.6407 60.7193 49.1389C60.4326 49.569 60.0741 49.9275 59.7873 50.3576C59.4289 50.7161 59.1421 51.0745 58.712 51.433C58.3535 51.7915 57.995 52.0782 57.5649 52.4367L56.3461 53.3687L55.1274 54.229L53.8369 54.9459C53.4068 55.161 52.9766 55.376 52.4748 55.6628C52.0446 55.8779 51.5428 56.093 51.1126 56.308C50.6825 56.5231 50.1807 56.6665 49.7505 56.8816C49.3204 57.0966 48.8185 57.24 48.3884 57.3834C47.4564 57.7419 46.5244 58.0286 45.5207 58.3154C44.5887 58.6022 43.585 58.8172 42.653 59.104L39.642 59.8209L38.4232 59.6775L37.2045 59.3908L34.1934 58.6738C33.1898 58.4588 32.2578 58.172 31.3258 57.8852C30.3938 57.5985 29.3901 57.3117 28.4581 56.9532C28.028 56.8099 27.5261 56.5948 27.096 56.4514C26.6658 56.2363 26.164 56.0929 25.7338 55.8779C25.3037 55.6628 24.8019 55.4477 24.3717 55.2327C23.9416 55.0176 23.4397 54.8025 23.0096 54.5157L21.7191 53.7988L20.5004 52.9385L19.2816 52.0782C18.8515 51.7915 18.493 51.433 18.1345 51.0745C17.7761 50.7878 17.4176 50.3576 17.0592 49.9992C16.7007 49.6407 16.4139 49.2106 16.1272 48.7804C16.3422 49.2106 16.5573 49.7124 16.8441 50.1425C17.1309 50.5727 17.4176 51.0028 17.7044 51.433C17.9912 51.8631 18.3496 52.2216 18.6364 52.6518L19.7118 53.7988L20.8588 54.8742L22.0776 55.8779C22.5077 56.2363 22.9379 56.5231 23.2963 56.8099C23.7265 57.1683 24.1566 57.3834 24.5868 57.7419C25.0169 58.0286 25.4471 58.3154 25.9489 58.6022C26.3791 58.8889 26.8809 59.104 27.3111 59.3908C28.028 59.8209 28.7449 60.1794 29.4618 60.5378C29.3901 60.5378 29.2467 60.5378 29.175 60.5378C26.9526 60.6095 24.6585 60.3228 22.436 59.8209C18.0628 58.6738 13.9764 56.308 10.8937 53.0102C10.1051 52.1499 9.45986 51.2896 8.81464 50.3576C8.67125 50.1426 8.52787 49.8558 8.38449 49.6407C8.3128 49.569 8.16941 49.3539 8.16941 49.3539L7.95434 48.9955C7.59588 48.422 7.4525 47.9918 7.16573 47.49C6.73558 46.4863 6.30543 45.4109 5.94697 44.3355C5.58852 43.2602 5.37344 42.1131 5.15837 40.966C4.94329 39.819 4.79991 38.6719 4.65653 37.4531C4.51314 36.3061 4.44145 35.0873 4.36976 33.8686C4.36976 32.7932 4.29807 31.7895 4.29807 30.7141C4.36976 30.7858 4.44145 30.7858 4.51314 30.8575C5.7319 31.6461 7.02235 32.4347 8.3128 33.08C9.60324 33.7969 10.8937 34.4421 12.2558 35.0156C13.618 35.6609 14.9084 36.1627 16.2706 36.7362H16.1989L16.4139 36.8079L16.9158 37.023L17.2742 37.1664L17.561 37.2381L18.5647 37.5965H18.6364L18.7798 37.6682L18.9948 37.7399C19.3533 37.8116 19.8551 37.8833 20.357 38.0267C20.7871 38.1701 21.289 38.2418 21.7191 38.3851C22.0776 38.5285 22.436 38.6002 22.7945 38.7436C23.368 38.9587 23.8699 39.1737 24.4434 39.3888C24.4434 39.3888 24.4434 39.3888 24.5151 39.3888C26.3074 40.1057 27.9563 41.0377 29.5335 42.1131C30.3221 42.6149 31.039 43.2602 31.7559 43.8337C32.4728 44.4789 33.1181 45.1241 33.6916 45.8411C33.9784 46.1995 34.2651 46.558 34.5519 46.9164C34.767 47.2749 35.0537 47.705 35.2688 48.0635C35.3405 48.1352 35.4122 48.2786 35.4122 48.3503C35.5556 48.637 35.7707 48.9955 35.914 49.2823C36.0574 49.569 36.2008 49.9275 36.3442 50.2142C36.4159 50.2859 36.4159 50.4293 36.4876 50.501L37.4913 52.7951L37.5629 52.9385L38.4949 54.6591L39.3552 52.9385L39.4269 52.7951L40.5023 50.5727C40.574 50.4293 40.574 50.3576 40.6457 50.2142C40.7891 49.9275 40.9324 49.569 41.0758 49.2823C41.2192 48.9955 41.4343 48.637 41.5777 48.3503C41.6494 48.2786 41.7211 48.1352 41.7211 48.0635C41.9361 47.6333 42.2229 47.2749 42.5097 46.9164C42.7964 46.558 43.0115 46.1995 43.37 45.8411C44.517 44.4072 45.9509 43.1168 47.4564 42.0414C48.9619 40.966 50.6825 40.034 52.4748 39.3171H52.5465C52.5465 39.1021 52.5465 38.9587 52.5465 38.7436C52.5465 38.0267 52.4031 37.2381 52.188 36.3778L51.9729 35.5892C51.9013 35.3741 51.8296 35.2307 51.7579 35.0156C51.3994 35.159 51.1127 35.2307 50.8259 35.3741C48.8185 36.2344 46.8112 37.3098 45.0189 38.6002C43.1549 39.8907 41.506 41.3962 40.0722 43.1885C39.7137 43.6186 39.3552 44.0488 38.9968 44.5506C38.8534 44.7657 38.71 44.9808 38.5666 45.1958C38.4232 44.9808 38.2799 44.7657 38.1365 44.4789C37.778 44.0488 37.4913 43.5469 37.0611 43.1168C36.3442 42.2565 35.5556 41.3962 34.6953 40.6793C33.835 39.8907 32.9747 39.2454 32.0427 38.6002C30.1787 37.3098 28.243 36.3061 26.164 35.4458C25.8772 35.3741 25.6621 35.2307 25.3754 35.159C24.8735 34.9439 24.3 34.7289 23.7982 34.5855C23.5831 34.5138 23.2963 34.4421 23.0813 34.3704C22.5794 34.227 22.0059 34.0836 21.504 33.9403C21.0022 33.7969 20.5721 33.7252 20.0702 33.5818L19.7118 33.4384L19.1382 33.2233L18.7081 33.08H18.6364H18.5647L17.9912 32.7932C16.7007 32.2914 15.4103 31.7178 14.1915 31.1443C12.9011 30.5708 11.6823 29.9255 10.5352 29.2803C9.31648 28.6351 8.16941 27.9182 7.02235 27.2013C6.44882 26.8428 5.87528 26.4843 5.37344 26.0542C5.08668 25.8391 4.79991 25.624 4.58484 25.4807C4.36976 25.2656 4.0113 25.0505 3.86792 24.9071L0.426726 21.9678L0.283342 26.4126C0.139959 27.7748 0.0682678 28.9935 0.0682678 30.284C0.0682678 31.5744 0.0682678 32.7932 0.139959 34.0836C0.211651 35.3741 0.283342 36.6645 0.426726 37.8833C0.570109 39.1737 0.713492 40.4642 1.00026 41.683C1.21533 42.9734 1.57379 44.2638 1.93225 45.4826C2.29071 46.7731 2.79255 47.9918 3.29439 49.2106C3.58115 49.8558 3.93961 50.501 4.22638 51.0029L4.44145 51.433C4.58484 51.6481 4.65653 51.7198 4.72822 51.9348C4.94329 52.2216 5.08668 52.5084 5.30175 52.7951C6.01867 53.9422 6.87896 54.9459 7.81096 55.9496C11.4672 59.8926 16.2706 62.6886 21.4323 63.979C24.0132 64.6242 26.6658 64.911 29.3901 64.8393C30.7523 64.8393 32.0427 64.6242 33.4048 64.4092C34.6953 64.1941 36.1291 63.7639 37.2762 63.4055L38.4949 62.9753L39.7137 63.4055C44.8038 65.1978 50.3957 65.3412 55.5575 63.979C60.7193 62.6169 65.5227 59.8926 69.1789 55.9496C70.1109 54.9459 70.8995 53.9422 71.6881 52.7234C71.9032 52.4367 72.0466 52.2216 72.19 51.9348L72.3334 51.7198L72.4767 51.5047L72.6918 51.0745C73.0503 50.501 73.337 49.8558 73.6238 49.2823C74.1973 48.0635 74.6275 46.8447 74.9859 45.5543C75.3444 44.2638 75.7029 43.0451 75.9179 41.7546C76.2047 40.4642 76.3481 39.1737 76.4915 37.955C76.6348 36.6645 76.7065 35.3741 76.7782 34.1553C76.8499 32.8649 76.8499 31.6461 76.8499 30.3557C76.8499 29.0652 76.7782 27.8465 76.7782 26.556L76.6348 22.1112L73.1936 24.9788Z" fill="white"/>
</mask>
<g mask="url(#mask2_112_2220)">
<path d="M76.8498 22.0394H0.0681763V65.4128H76.8498V22.0394Z" fill="url(#paint2_linear_112_2220)"/>
</g>
<defs>
<linearGradient id="paint0_linear_112_2220" x1="-2.64393" y1="47.0377" x2="80.0901" y2="47.0377" gradientUnits="userSpaceOnUse">
<stop stop-color="#FFE462"/>
<stop offset="1" stop-color="#ABC83F"/>
</linearGradient>
<linearGradient id="paint1_linear_112_2220" x1="-2.64124" y1="27.807" x2="80.0928" y2="27.807" gradientUnits="userSpaceOnUse">
<stop stop-color="#FFE462"/>
<stop offset="1" stop-color="#ABC83F"/>
</linearGradient>
<linearGradient id="paint2_linear_112_2220" x1="-2.64205" y1="43.7075" x2="80.092" y2="43.7075" gradientUnits="userSpaceOnUse">
<stop stop-color="#ABC83F"/>
<stop offset="1" stop-color="#FFE462"/>
</linearGradient>
</defs>
</svg>
