<svg xmlns="http://www.w3.org/2000/svg" width="81" height="81" viewBox="0 0 81 81" fill="none">
<path d="M56.1745 67.5405H33.0062C36.4276 62.1337 38.4118 56.0017 38.7838 49.6849L44.5904 46.6812L50.3969 49.6849C50.769 56.0017 52.7531 62.1337 56.1745 67.5405Z" fill="#DEA8E4"/>
<path d="M50.3977 49.6849L44.5911 46.6811L38.7847 49.6849L25.7959 56.4155L30.111 35.5562L14.1828 21.6499L34.455 18.8687L44.5911 0.790527L53.2793 18.8687L74.9995 21.6499L59.0713 35.5562L63.3865 56.4155L50.3977 49.6849Z" fill="#B134FF"/>
<path d="M25.7684 67.5405H63.417V78.6655H25.7684V67.5405Z" fill="#CC8BD3"/>
<path d="M21.4228 78.6655H67.7593V87.0093H21.4228V78.6655Z" fill="#DEA8E4"/>
<path d="M25.7684 67.5405V78.6655H63.417V74.4937H37.3526C35.8164 74.4937 34.3432 73.9076 33.257 72.8644C32.1708 71.8213 31.5606 70.4064 31.5606 68.9312V67.5405H25.7684Z" fill="#B134FF"/>
<path d="M21.4228 78.6655V87.0093H67.7593V84.228H31.5589C30.4068 84.228 29.3018 83.7885 28.4871 83.0061C27.6725 82.2238 27.2148 81.1626 27.2148 80.0562V78.6655H21.4228Z" fill="#DEA8E4"/>
<path d="M44.5672 63.3687C43.9206 63.3684 43.2824 63.2296 42.6989 62.9623C42.1154 62.6949 41.6013 62.306 41.1942 61.8236C40.7872 61.3412 40.4972 60.7778 40.3458 60.1741C40.1943 59.5706 40.1851 58.9421 40.3187 58.3346C41.1151 54.7621 41.6943 50.853 41.6943 50.853L44.5904 49.4624L50.6721 52.3827C50.5479 51.4867 50.4561 50.5869 50.3969 49.6849L44.5904 46.6812L38.7838 49.6849C38.4118 56.0017 36.4276 62.1337 33.0062 67.5405H56.1745C55.2724 66.213 54.483 64.8179 53.8142 63.3687H44.5672Z" fill="#DEA8E4"/>
<path d="M44.5916 0.790527L34.4555 18.8687L44.5916 29.9937V0.790527Z" fill="#CD94D4"/>
<path d="M59.0699 35.5562L74.9981 21.6499L44.5897 29.9937L59.0699 35.5562Z" fill="#CD94D4"/>
<path d="M74.9981 21.6499L53.2778 18.8687L44.5897 29.9937L74.9981 21.6499Z" fill="#EEB7F4"/>
<path d="M34.455 18.8687L14.1828 21.6499L44.5911 29.9937L34.455 18.8687ZM53.2793 18.8687L44.5911 0.790527V29.9937L53.2793 18.8687Z" fill="#EEB7F4"/>
<path d="M44.5897 46.6812L50.3963 49.6849L63.3849 56.4155L63.3734 56.3585L44.5897 29.9937V46.6812Z" fill="#CD94D4"/>
<path d="M44.5897 29.9937L63.3734 56.3585L59.0699 35.5562L44.5897 29.9937Z" fill="#EEB7F4"/>
<path d="M25.8061 56.3585L25.7946 56.4155L38.7832 49.6849L44.5898 46.6812V29.9937L25.8061 56.3585Z" fill="#CD94D4"/>
<path d="M30.1111 35.5562L25.8076 56.3585L44.5913 29.9937L30.1111 35.5562Z" fill="#EEB7F4"/>
<path d="M14.1828 21.6499L30.1111 35.5562L44.5911 29.9937L14.1828 21.6499Z" fill="#CD94D4"/>
</svg>