<svg xmlns="http://www.w3.org/2000/svg" width="21" height="21" viewBox="0 0 21 21" fill="none">
<path d="M10.3698 0.709961C4.86981 0.709961 0.369812 5.20996 0.369812 10.71C0.369812 16.21 4.86981 20.71 10.3698 20.71C15.8698 20.71 20.3698 16.21 20.3698 10.71C20.3698 5.20996 15.8698 0.709961 10.3698 0.709961ZM14.2865 13.46C14.6198 13.7933 14.6198 14.2933 14.2865 14.6266C14.1198 14.7933 13.9531 14.8766 13.7031 14.8766C13.4531 14.8766 13.2865 14.7933 13.1198 14.6266L10.3698 11.8766L7.61981 14.6266C7.45315 14.7933 7.28648 14.8766 7.03648 14.8766C6.78648 14.8766 6.61981 14.7933 6.45315 14.6266C6.11981 14.2933 6.11981 13.7933 6.45315 13.46L9.20315 10.71L6.45315 7.95996C6.11981 7.62663 6.11981 7.12663 6.45315 6.79329C6.78648 6.45996 7.28648 6.45996 7.61981 6.79329L10.3698 9.54329L13.1198 6.79329C13.4531 6.45996 13.9531 6.45996 14.2865 6.79329C14.6198 7.12663 14.6198 7.62663 14.2865 7.95996L11.5365 10.71L14.2865 13.46Z" fill="#DEA8E4" fill-opacity="0.3"/>
</svg>