<svg xmlns="http://www.w3.org/2000/svg" width="151" height="195" viewBox="0 0 151 195" fill="none">
<g clip-path="url(#clip0_54_28553)">
<path opacity="0.1" d="M148.064 192.742V194.263H149.584V192.742H148.064ZM148.064 163.459H149.584V161.939H148.064V163.459ZM104.277 163.459H102.756V164.98H104.277V163.459ZM104.277 1.72034H105.797V0.199951H104.277V1.72034ZM49.8164 1.72034V0.199951H49.1079L48.6526 0.742571L49.8164 1.72034ZM2.47144 58.0964L1.30762 57.1187L0.33075 58.2818L1.49308 59.2598L2.47144 58.0964ZM24.9124 76.9797L23.9341 78.1428L25.0949 79.1204L26.074 77.9603L24.9124 76.9797ZM66.5103 27.719V26.1986H65.8048L65.3487 26.7381L66.5103 27.719ZM68.9733 27.719H70.4937V26.1986H68.9733V27.719ZM68.9733 163.459V164.98H70.4937V163.459H68.9733ZM16.4286 163.459V161.939H14.9083V163.459H16.4286ZM16.4286 192.742H14.9083V194.263H16.4286V192.742ZM149.584 192.742V163.459H146.544V192.742H149.584ZM148.064 161.939H104.277V164.98H148.064V161.939ZM105.797 163.459V1.72034H102.756V163.459H105.797ZM104.277 0.199951H49.8164V3.24073H104.277V0.199951ZM48.6526 0.742571L1.30762 57.1187L3.63609 59.0742L50.981 2.69811L48.6526 0.742571ZM1.49308 59.2598L23.9341 78.1428L25.8916 75.8166L3.45059 56.9331L1.49308 59.2598ZM26.074 77.9603L67.6719 28.6999L65.3487 26.7381L23.7508 75.999L26.074 77.9603ZM66.5103 29.2394H68.9733V26.1986H66.5103V29.2394ZM67.4529 27.719V163.459H70.4937V27.719H67.4529ZM68.9733 161.939H16.4286V164.98H68.9733V161.939ZM14.9083 163.459V192.742H17.949V163.459H14.9083ZM16.4286 194.263H148.064V191.222H16.4286V194.263Z" fill="#F1F3F3"/>
</g>
<defs>
<clipPath id="clip0_54_28553">
<rect width="149.758" height="194.61" fill="white" transform="translate(0.33075 0.199951)"/>
</clipPath>
</defs>
</svg>