<svg xmlns="http://www.w3.org/2000/svg" width="129" height="73" viewBox="0 0 129 73" fill="none">
<path d="M0.906578 67.0186L2.97923 11.5012L17.1423 9.87269C17.8332 9.77399 18.4748 9.77399 19.1656 9.77399C22.2746 9.77399 24.7914 10.7116 26.4693 12.4882L29.4795 15.3504C31.7496 13.6725 34.6118 12.7349 37.4247 12.7349C39.1026 12.7349 40.7311 13.0804 42.1622 13.7219C43.0505 14.1167 43.8401 14.6595 44.4816 15.3504L44.5803 12.3401L55.437 11.1064V11.2545C56.4734 10.7116 57.6577 10.3168 58.8915 10.2181C59.2369 10.1688 59.6317 10.1688 59.9771 10.1688C62.2965 10.1688 64.3198 11.1558 65.5042 12.8336C65.6522 13.0804 65.8496 13.3271 65.9977 13.5738C66.1457 13.3765 66.2444 13.1791 66.3925 12.9817C68.2677 10.2675 71.4261 8.54027 74.4363 8.54027C75.1766 8.54027 75.9168 8.63897 76.6077 8.83636C76.8051 8.88571 77.0518 8.98441 77.2492 9.0831L77.496 3.06255L87.8099 1.87817L92.9915 6.76371C94.472 6.22087 96.1498 5.92478 97.729 5.92478C100.542 5.92478 103.009 6.86241 104.786 8.54027L104.885 5.52999L115.741 4.29627V4.78976C116.58 4.34562 117.567 4.09887 118.604 3.95082L122.157 3.55603L127.388 8.39222L126.993 18.41L124.871 18.6568C124.624 18.6568 124.427 18.7061 124.229 18.7061C121.17 18.9529 119.788 19.1996 119.936 22.0125V22.0618L119.591 32.0303L123.094 35.3367L122.749 44.4662L118.209 45.0091L122.601 49.1544L122.255 58.0865L120.676 58.6787C118.258 59.6163 116.185 60.0605 114.36 60.0605C112.484 60.0605 110.905 59.567 109.622 58.58L106.809 56.3099C104.44 59.9124 100.098 62.2318 95.607 62.2318C95.0148 62.2318 94.4226 62.1825 93.8304 62.1331C92.7448 61.9851 91.7578 61.689 90.8201 61.2448C89.9812 60.85 89.1916 60.3072 88.5007 59.715L88.4514 62.6759L78.1868 63.8603L76.657 62.5772L75.374 64.1564L63.4809 65.5382C62.3459 65.9823 61.1615 66.3278 59.8784 66.4758C59.4343 66.5745 58.8915 66.5745 58.398 66.5745C55.7331 66.5745 52.8709 65.5875 51.2917 64.0577L48.7749 61.9851C47.9854 63.2188 46.8997 64.2551 45.666 65.0447C44.7777 65.6369 43.7907 65.933 42.8531 66.2291C41.7181 66.5745 40.583 66.9199 39.6454 67.7589L39.5961 67.8082C38.5104 68.6472 37.178 69.1406 35.9442 69.1406C34.8586 69.1406 33.8716 68.7952 33.082 68.1043L33.0327 68.055L33.4275 68.9926L21.5837 70.3744L16.9449 66.0317L16.7476 70.9172L6.0882 72.1509L0.906578 67.0186Z" fill="#0167F7"/>
<path d="M87.4652 2.61759L92.104 7.00964C92.1533 7.05899 92.2027 7.10834 92.2027 7.20704V7.45378C92.2027 7.65118 92.4001 7.74987 92.5481 7.70052C92.7948 7.60183 92.9922 7.50313 93.239 7.40443C94.6208 6.91094 96.1506 6.61485 97.6804 6.61485C100.148 6.61485 102.566 7.35508 104.293 9.13164C104.589 9.42774 104.836 9.72383 105.083 10.0199C105.231 10.2173 105.527 10.1186 105.527 9.87188L105.675 6.31876C105.675 6.22006 105.774 6.12136 105.872 6.07201L114.558 5.08503C114.706 5.08503 114.854 5.18373 114.854 5.33178V5.67722C114.854 5.87462 115.051 6.02266 115.249 5.87462C115.397 5.77592 115.545 5.67722 115.693 5.57852C116.532 5.08503 117.568 4.73959 118.654 4.59155L121.713 4.2461C121.763 4.2461 121.861 4.2461 121.911 4.29545L126.5 8.63815C126.549 8.6875 126.599 8.73685 126.599 8.83555L126.303 17.4716C126.303 17.5703 126.204 17.669 126.105 17.7183L124.872 17.8664C121.763 18.1625 118.999 18.1131 119.196 22.1104L118.851 31.5854C118.851 31.6841 118.752 31.7828 118.654 31.8321L118.259 31.8815L122.256 35.6813C122.305 35.7307 122.355 35.78 122.355 35.8787L121.96 43.5278C121.96 43.6265 121.861 43.7252 121.763 43.7746L117.272 44.3174C117.173 44.3174 117.074 44.4161 117.074 44.5641V45.0576L121.713 49.4497C121.763 49.499 121.812 49.5484 121.812 49.6471L121.516 57.3948C121.516 57.4935 121.467 57.5922 121.368 57.5922L120.48 57.9377C118.654 58.6286 116.482 59.2701 114.459 59.2701C112.929 59.2701 111.449 58.9247 110.264 57.9377L106.958 55.2235C106.859 55.1248 106.662 55.1741 106.613 55.2728C106.563 55.3715 106.514 55.4702 106.464 55.5689C104.244 59.2207 100.049 61.3921 95.8051 61.3921C95.2623 61.3921 94.6701 61.3427 94.1273 61.2934C93.1403 61.1454 92.2027 60.8986 91.3637 60.4545C90.5248 60.0597 89.7352 59.5168 89.0937 58.8753C88.8469 58.6286 88.5508 58.3325 88.3534 58.0364C88.2054 57.839 87.9093 57.9377 87.9093 58.1844L87.86 61.6388C87.86 61.7375 87.7613 61.8856 87.6626 61.8856L78.7798 62.9219C78.7304 62.9219 78.6317 62.9219 78.5824 62.8726L76.9539 61.4908C76.8552 61.3921 76.7071 61.4414 76.6084 61.5401L75.2267 63.2674C75.1773 63.3167 75.128 63.3661 75.0786 63.3661L63.531 64.6985H63.4816C62.396 65.1426 61.2609 65.4387 60.0272 65.5868C59.5831 65.6361 59.1389 65.6854 58.6454 65.6854C56.2767 65.6854 53.5625 64.7972 52.082 63.4154L49.0224 60.8986C48.9237 60.7999 48.7263 60.8493 48.677 60.948C47.9367 62.2804 46.8511 63.4154 45.4693 64.3037C43.6434 65.5374 41.324 65.3894 39.35 67.1166C38.4124 67.8568 37.2774 68.3009 36.1917 68.3009C35.3528 68.3009 34.5139 68.0542 33.8723 67.462L31.8984 65.8335C31.701 65.6854 31.4049 65.8828 31.5036 66.1296L32.2932 68.0048C32.3425 68.1529 32.2438 68.3503 32.0958 68.3503L22.1766 69.4853C22.1273 69.4853 22.0286 69.4853 21.9792 69.436L17.3405 65.0933C17.3405 65.0933 17.2911 65.0439 17.2911 64.9946L16.847 64.0076C16.7483 63.7608 16.4028 63.8595 16.3535 64.1063L16.1561 69.9788C16.1561 70.0775 16.0574 70.1762 15.9587 70.2255L6.73045 71.2619C6.68111 71.2619 6.58241 71.2619 6.53306 71.2125L1.94362 66.8698C1.89427 66.8205 1.84492 66.7711 1.84492 66.6724L3.76952 12.438C3.76952 12.3393 3.86822 12.2406 3.96692 12.1913L17.1924 10.6615C17.8339 10.5628 18.4755 10.5628 19.117 10.5628C21.6338 10.5628 24.1012 11.2043 25.8285 13.0302L29.2335 16.2379C29.3322 16.3366 29.4803 16.3366 29.579 16.2379C31.7503 14.5107 34.6126 13.5237 37.4254 13.5237C38.9552 13.5237 40.4357 13.8198 41.8175 14.4613C42.6564 14.8561 43.3966 15.3989 44.0382 16.0405C44.3343 16.3366 44.581 16.6327 44.8278 16.9288C44.9758 17.1262 45.2719 17.0275 45.2719 16.7807L45.42 13.2276C45.42 13.1289 45.5187 13.0302 45.6173 12.9809L52.6742 12.1913L54.3027 11.9939C54.4508 11.9939 54.5988 12.0926 54.5988 12.2406C54.5988 12.438 54.7962 12.5861 54.9936 12.438C56.1287 11.5991 57.5104 11.1056 59.0402 10.9082C59.3857 10.8589 59.7311 10.8589 60.0272 10.8589C61.9518 10.8589 63.8271 11.6484 64.8634 13.1782C65.2088 13.6717 65.5049 14.2146 65.7517 14.8068C65.8504 15.0042 66.0971 15.0042 66.1958 14.8561C66.4919 14.3133 66.788 13.8198 67.0841 13.3756C68.7126 10.9576 71.5748 9.27969 74.4864 9.27969C75.128 9.27969 75.8188 9.37839 76.4604 9.57578C76.9045 9.72383 77.3487 9.92122 77.7928 10.168C77.9408 10.2667 78.1382 10.168 78.1382 9.97057L78.385 3.95001C78.385 3.85131 78.4837 3.75262 78.5824 3.70327L87.4652 2.61759ZM88.0574 0.890381L87.2678 0.989079L78.0889 2.0254L76.8552 2.17345C76.7565 2.17345 76.6578 2.27215 76.6578 2.4202L76.6084 3.65392L76.4604 7.55248C76.4604 7.70052 76.3123 7.79922 76.1643 7.79922C75.5721 7.70052 74.9799 7.60183 74.3877 7.60183C71.3281 7.60183 68.2191 9.18099 66.1465 11.7471C66.0478 11.8458 65.8504 11.8458 65.7517 11.7471C64.3699 10.168 62.2479 9.23034 59.9285 9.23034C59.5337 9.23034 59.1389 9.27969 58.7441 9.32904C57.6091 9.47708 56.5234 9.77318 55.5858 10.2173H55.5365L54.3521 10.3654L52.4275 10.5628L45.1732 11.4017L43.9395 11.5497C43.8408 11.5497 43.7421 11.6484 43.7421 11.7965L43.6927 13.0302V13.6717C43.298 13.425 42.9032 13.1782 42.5084 12.9809C40.9786 12.2406 39.2513 11.8952 37.4254 11.8952C34.7113 11.8952 31.9971 12.6848 29.727 14.1652C29.6283 14.2146 29.5296 14.2146 29.4309 14.1159L27.0622 11.8458C25.2363 9.92122 22.5221 8.8849 19.1664 8.8849C18.4755 8.8849 17.7846 8.93425 17.0444 9.03294L3.57213 10.6121L2.33841 10.7602C2.23971 10.7602 2.14101 10.8589 2.14101 11.0069L2.09166 12.2406L0.0683594 66.6231V67.2646C0.0683594 67.314 0.117708 67.4127 0.167057 67.462L0.611197 67.9062L5.34869 72.3969L5.84217 72.841C5.89152 72.8904 5.99022 72.8904 6.03957 72.8904L6.68111 72.7917L16.2548 71.706L17.4885 71.558C17.5872 71.558 17.6859 71.4593 17.6859 71.3112L17.7352 70.0775L17.7846 68.2516C17.7846 68.0542 18.0313 67.9555 18.1794 68.1035L20.7949 70.571L21.2884 71.0151C21.3377 71.0645 21.4364 71.0645 21.4858 71.0645L22.1273 70.9658L32.4906 69.7814L34.2671 69.584C34.3165 69.584 34.3165 69.584 34.3658 69.584C34.9086 69.7321 35.4515 69.8307 36.0437 69.8307C37.4748 69.8307 39.0046 69.2879 40.2383 68.3009L40.2877 68.2516L40.337 68.2022C41.1759 67.462 42.1136 67.1659 43.2486 66.8205C44.2356 66.5244 45.2719 66.1789 46.2589 65.5374C47.2459 64.8959 48.1341 64.1063 48.9237 63.1687C49.0224 63.07 49.1705 63.07 49.2692 63.1193L50.8977 64.4517C52.6249 66.0802 55.6845 67.1659 58.5467 67.1659C59.0896 67.1659 59.6324 67.1166 60.1259 67.0179C61.409 66.8698 62.6427 66.5737 63.7777 66.0802H63.8271L75.2267 64.7478L75.8188 64.6985C75.8682 64.6985 75.9175 64.6491 75.9669 64.5998L76.3123 64.1556L76.7071 63.7115C76.8058 63.6128 76.9539 63.6128 77.0526 63.6621L77.4474 64.0076L77.8915 64.4024C77.9408 64.4517 77.9902 64.4517 78.0889 64.4517L78.6811 64.4024L87.86 63.3661L89.0937 63.218C89.1924 63.218 89.2911 63.1193 89.2911 62.9713V61.7375V61.1454C89.6365 61.3921 90.0313 61.5895 90.4261 61.7869C91.4131 62.231 92.4988 62.5765 93.6338 62.7245C94.2753 62.8232 94.9168 62.8726 95.5584 62.8726C99.9998 62.8726 104.145 60.8493 106.761 57.4935C106.859 57.3948 107.007 57.3455 107.106 57.4442L109.031 59.0233C110.412 60.109 112.189 60.7012 114.262 60.7012C116.186 60.7012 118.358 60.2571 120.874 59.2701L121.911 58.8753L122.799 58.5299C122.898 58.4805 122.947 58.4312 122.947 58.3325L122.996 57.3948L123.292 49.4003V48.7588C123.292 48.7094 123.243 48.6107 123.194 48.5614L122.75 48.1172L120.332 45.8472C120.183 45.6992 120.282 45.4524 120.48 45.4031L122.009 45.2057L123.243 45.0576C123.342 45.0576 123.44 44.9589 123.44 44.8109L123.49 43.5772L123.786 35.5333V34.8918C123.786 34.8424 123.737 34.7437 123.687 34.6944L123.243 34.2502L120.381 31.536C120.332 31.4867 120.282 31.4373 120.282 31.3386L120.628 21.913V21.8143V21.7156C120.529 20.2351 120.973 19.939 121.17 19.8403C121.763 19.4949 122.898 19.3962 124.131 19.2975C124.329 19.2975 124.576 19.2482 124.773 19.2482L126.204 19.1001L127.438 18.9521C127.536 18.9521 127.635 18.8534 127.635 18.7053L127.684 17.4716L128.03 8.53946V7.89792C128.03 7.84857 127.981 7.74987 127.931 7.70052L127.487 7.25638L122.947 3.06173L122.454 2.61759C122.404 2.56824 122.305 2.56824 122.256 2.56824L121.615 2.66694L118.456 3.01238C117.815 3.11108 117.173 3.20978 116.581 3.40717V3.20978L114.656 3.40717L105.478 4.4435L104.244 4.59155C104.145 4.59155 104.046 4.69024 104.046 4.83829L103.997 6.07201V6.71355C102.27 5.57852 100.098 4.93699 97.7297 4.93699C96.2493 4.93699 94.7688 5.18373 93.3377 5.62787C93.239 5.67722 93.1403 5.62787 93.0909 5.57852L88.6495 1.38387L88.0574 0.890381Z" fill="#FCFCFC"/>
<path d="M4.45763 37.9503L5.34591 13.9174C5.34591 13.8187 5.44461 13.72 5.54331 13.6707L17.387 12.2889C18.8181 12.1409 20.1012 12.1409 21.1869 12.3876C22.2726 12.585 23.2102 12.9798 23.9504 13.572C24.6906 14.1148 25.2335 14.855 25.6283 15.7433C25.9737 16.6316 26.1711 17.6679 26.1218 18.803C26.0724 19.7899 25.875 20.7276 25.5296 21.6158C25.1841 22.4548 24.6906 23.2444 24.0985 23.8859C23.5063 24.5274 22.766 25.0703 21.9271 25.5144C21.483 25.7612 20.9895 25.9585 20.496 26.1066C20.2986 26.1559 20.2986 26.5014 20.496 26.5507C20.9401 26.6988 21.3349 26.8962 21.7297 27.1923C22.4699 27.7351 23.0621 28.6234 23.5556 29.7584L25.9737 35.4829C26.0231 35.6309 25.9244 35.779 25.7763 35.8283L19.361 36.5686C19.2623 36.5686 19.1636 36.5192 19.1142 36.4205L16.5974 30.5973C16.4 30.1532 16.2027 29.7584 16.0053 29.4623C15.8079 29.1662 15.6105 28.9195 15.4131 28.7714C15.2157 28.6234 14.9196 28.5247 14.6728 28.4753C14.3767 28.426 14.0313 28.426 13.6365 28.4753L11.1691 28.7714C11.0704 28.7714 10.9717 28.8701 10.9717 29.0182L10.6756 37.3581C10.6756 37.4568 10.5769 37.5555 10.4782 37.6049L4.75373 38.1971C4.60568 38.1971 4.45763 38.0984 4.45763 37.9503ZM16.3013 23.2937C16.8442 23.2444 17.3377 23.0963 17.7818 22.9483C18.226 22.7509 18.5714 22.5535 18.8675 22.2574C19.1636 21.9613 19.4103 21.6158 19.5584 21.2704C19.7064 20.8756 19.8051 20.4808 19.8545 19.9873C19.9038 19.0497 19.6077 18.3588 19.0649 17.964C18.4727 17.5199 17.6338 17.3718 16.5481 17.5199L11.6132 18.0627C11.5145 18.0627 11.4158 18.1614 11.4158 18.3095L11.2184 23.6885C11.2184 23.8365 11.3171 23.9352 11.4652 23.9352L16.3013 23.2937Z" fill="#FCFCFC"/>
<path d="M44.5307 27.1931C44.6787 27.1931 44.8268 27.3411 44.7774 27.4892C44.4813 28.4761 44.0865 29.3644 43.5437 30.2034C42.9515 31.141 42.2606 31.9306 41.4711 32.6214C40.6815 33.3123 39.7439 33.8552 38.7569 34.2993C37.7699 34.7434 36.6842 35.0395 35.5492 35.1382C34.6116 35.2369 33.7233 35.2369 32.8844 35.1382C32.0454 35.0395 31.3052 34.7928 30.6143 34.4474C29.9234 34.1019 29.3312 33.7071 28.7884 33.1643C28.2456 32.6214 27.8014 32.0293 27.456 31.3384C27.1106 30.6475 26.8145 29.8579 26.6664 29.019C26.469 28.18 26.4197 27.2424 26.469 26.2554C26.5184 25.2685 26.6664 24.3308 26.8638 23.4425C27.1106 22.5543 27.4066 21.7153 27.8508 20.9258C28.2456 20.1362 28.7391 19.4453 29.3312 18.8037C29.9234 18.1622 30.565 17.57 31.2559 17.1259C31.9467 16.6324 32.7363 16.2376 33.5752 15.9415C34.4142 15.6454 35.3025 15.3987 36.2401 15.3C37.1777 15.2013 38.066 15.2013 38.8556 15.3C39.6452 15.3987 40.3854 15.6454 41.0763 15.9415C41.7672 16.287 42.3593 16.6817 42.8528 17.2246C43.3957 17.7674 43.7905 18.3596 44.1852 19.0505C44.5307 19.7414 44.7774 20.531 44.9748 21.3699C45.1229 22.2088 45.2216 23.1465 45.1722 24.1334C45.1722 24.6269 45.1229 25.0711 45.0242 25.5646L32.1935 27.045C32.0454 27.045 31.9961 27.1931 31.9961 27.2918C32.0454 27.8346 32.1935 28.2787 32.3415 28.6735C32.5389 29.1177 32.7857 29.5125 33.1311 29.8086C33.4766 30.1047 33.8713 30.302 34.3155 30.4501C34.7596 30.5981 35.3025 30.5981 35.8946 30.5488C36.7829 30.4501 37.4738 30.154 38.066 29.7099C38.6088 29.2657 39.1023 28.6735 39.4478 27.884C39.4971 27.8346 39.5465 27.7359 39.6452 27.7359L44.5307 27.1931ZM39.3984 22.9491C39.5465 22.9491 39.6452 22.801 39.5958 22.7023C39.2504 20.531 38.066 19.544 36.0427 19.7907C34.957 19.9388 34.0687 20.3336 33.4272 21.0244C32.835 21.666 32.3909 22.5049 32.1441 23.5412C32.0948 23.6893 32.2428 23.8373 32.3909 23.8373L39.3984 22.9491Z" fill="#FCFCFC"/>
<path d="M51.8835 32.7701L46.5045 33.4117C46.3565 33.4117 46.2578 33.313 46.2578 33.1649L46.9487 14.7578C46.9487 14.6591 47.0474 14.5604 47.1461 14.511L52.5251 13.8695C52.6731 13.8695 52.7718 13.9682 52.7718 14.1162L52.5744 19.6433C53.0186 17.5213 53.8081 15.8928 54.8938 14.7084C55.9795 13.5241 57.4106 12.8332 59.1378 12.6358C61.0624 12.389 62.5429 12.9319 63.4312 14.2149C64.3688 15.498 64.7636 17.472 64.6649 20.1862L64.2701 31.1416C64.2701 31.2403 64.1714 31.339 64.0727 31.3884L58.6937 32.0299C58.5456 32.0299 58.4469 31.9312 58.4469 31.7831L58.7924 22.1601C58.8417 20.6796 58.6443 19.6433 58.1508 18.9524C57.6573 18.2616 56.9171 18.0148 55.9301 18.1135C54.8445 18.2616 54.0055 18.7057 53.4133 19.5446C52.8212 20.3836 52.4757 21.5186 52.4264 22.999L52.0809 32.5727C52.0809 32.6714 52.0316 32.7701 51.8835 32.7701Z" fill="#FCFCFC"/>
<path d="M85.7366 4.78831L84.8484 28.8212C84.8484 28.9199 84.7497 29.0186 84.651 29.068L79.2719 29.7095C79.1239 29.7095 79.0252 29.6108 79.0252 29.4627L79.2226 24.0344C78.9758 25.0707 78.6798 25.959 78.3343 26.7979C77.9395 27.5875 77.4954 28.3277 77.0019 28.8706C76.4591 29.4627 75.9162 29.9069 75.2253 30.2523C74.5345 30.5978 73.8436 30.7952 73.054 30.8939C72.3138 30.9926 71.6722 30.9432 71.0307 30.7952C70.3892 30.6471 69.797 30.4004 69.3035 30.0549C68.7606 29.7095 68.3165 29.2654 67.9217 28.7225C67.5269 28.1797 67.1815 27.5875 66.8854 26.8473C66.5893 26.1564 66.3919 25.3668 66.2932 24.5279C66.1452 23.6889 66.0958 22.7513 66.1452 21.7643C66.1945 20.7773 66.2932 19.8397 66.4906 18.9514C66.688 18.0632 66.9347 17.2242 67.2802 16.4346C67.6256 15.6451 68.0204 14.9542 68.4646 14.3126C68.9087 13.6711 69.4022 13.1283 69.9944 12.6348C70.5372 12.1413 71.1787 11.7959 71.8203 11.4998C72.4618 11.2037 73.1527 11.0063 73.8929 10.9569C74.6825 10.8582 75.3734 10.9076 76.0149 11.105C76.6564 11.3024 77.1993 11.6478 77.6928 12.0919C78.1863 12.5361 78.5811 13.1776 78.8771 13.8685C79.1732 14.6087 79.42 15.4477 79.568 16.4346L79.9628 5.33115C79.9628 5.23245 80.0615 5.13376 80.1602 5.08441L85.5392 4.44287C85.6379 4.54157 85.7366 4.64027 85.7366 4.78831ZM79.3213 20.2345C79.3706 19.4449 79.2719 18.754 79.1732 18.1619C79.0252 17.5697 78.8278 17.0762 78.5317 16.7307C78.2356 16.3359 77.8408 16.0892 77.3967 15.9412C76.9525 15.7931 76.4097 15.7438 75.8175 15.7931C74.6332 15.9412 73.6955 16.4346 73.054 17.3229C72.4125 18.2112 72.067 19.4449 72.0177 21.0734C71.9683 22.702 72.2151 23.8863 72.8072 24.6266C73.3994 25.3668 74.2877 25.6629 75.4721 25.5148C76.0643 25.4655 76.6071 25.2681 77.0512 25.0214C77.4954 24.7746 77.9395 24.3798 78.2356 23.9357C78.5811 23.4915 78.8278 22.9487 79.0252 22.3072C79.1732 21.715 79.3213 21.0241 79.3213 20.2345Z" fill="#FCFCFC"/>
<path d="M105.181 20.2344C104.885 21.3694 104.44 22.3564 103.848 23.294C103.256 24.2317 102.565 25.0213 101.776 25.7121C100.986 26.403 100.048 26.9459 99.0614 27.39C98.0744 27.8341 96.9888 28.1302 95.8537 28.2289C94.9161 28.3276 94.0278 28.3276 93.1889 28.2289C92.35 28.1302 91.6097 27.8835 90.9189 27.5381C90.228 27.1926 89.6358 26.7978 89.0929 26.255C88.5501 25.7121 88.106 25.12 87.7605 24.4291C87.4151 23.7382 87.119 22.9486 86.971 22.1097C86.7736 21.2707 86.7242 20.3331 86.7736 19.3461C86.8229 18.3592 86.9709 17.4215 87.1683 16.5332C87.4151 15.645 87.7112 14.806 88.1553 14.0165C88.5501 13.2269 89.0436 12.536 89.6358 11.8944C90.228 11.2529 90.8695 10.6607 91.5604 10.2166C92.2513 9.72309 93.0409 9.3283 93.8798 9.03221C94.7187 8.73612 95.607 8.48937 96.5446 8.39067C97.4823 8.29198 98.3705 8.29198 99.1601 8.39067C99.9497 8.48937 100.69 8.73612 101.381 9.03221C102.072 9.37765 102.664 9.77244 103.157 10.3153C103.7 10.8581 104.095 11.4503 104.49 12.1412C104.835 12.8321 105.082 13.6217 105.279 14.4606C105.427 15.2995 105.526 16.2372 105.477 17.2241C105.477 17.7176 105.427 18.1618 105.329 18.6552L92.3006 20.1357C92.35 20.7773 92.498 21.3201 92.6954 21.7642C92.8928 22.2084 93.1396 22.6032 93.485 22.8993C93.8304 23.1953 94.2252 23.3927 94.6694 23.5408C95.1135 23.6888 95.6563 23.6888 96.2485 23.6395C97.1368 23.5408 97.8277 23.2447 98.4199 22.8006C99.0121 22.3564 99.5056 21.6655 99.851 20.8266L105.181 20.2344ZM99.9497 15.9904C99.6536 13.6217 98.4199 12.5853 96.3472 12.8321C95.2616 12.9801 94.3733 13.3749 93.7317 14.0658C93.0409 14.7567 92.5967 15.6943 92.3993 16.8787L99.9497 15.9904Z" fill="#FCFCFC"/>
<path d="M112.188 25.86L106.809 26.5015C106.661 26.5015 106.562 26.4028 106.562 26.2548L107.253 7.84766C107.253 7.74896 107.352 7.65026 107.451 7.60092L112.83 6.95938C112.978 6.95938 113.076 7.05808 113.076 7.20613L112.83 13.7695C113.027 12.6838 113.274 11.7462 113.57 10.8579C113.866 9.96966 114.261 9.22943 114.754 8.58789C115.248 7.94636 115.791 7.40352 116.481 7.00873C117.123 6.61394 117.913 6.36719 118.801 6.2685L119.788 6.1698C119.936 6.1698 120.035 6.2685 120.035 6.41654L119.837 11.5488C119.837 11.6475 119.738 11.7462 119.64 11.7956L117.32 12.0423C116.432 12.141 115.741 12.3384 115.149 12.5851C114.557 12.8319 114.113 13.2267 113.767 13.6708C113.422 14.115 113.175 14.6578 112.978 15.2993C112.83 15.9409 112.731 16.7304 112.682 17.5694L112.385 25.6132C112.435 25.7613 112.336 25.86 112.188 25.86Z" fill="#FCFCFC"/>
<path d="M3.47311 64.5499L4.36138 40.517C4.36138 40.4183 4.46008 40.3196 4.55878 40.2703L16.4025 38.8885C17.8336 38.7405 19.1167 38.7405 20.2024 38.9872C21.288 39.1846 22.2257 39.5794 22.9659 40.1716C23.7061 40.7144 24.249 41.4547 24.6437 42.3429C24.9892 43.2312 25.1866 44.2675 25.1372 45.4026C25.0879 46.3895 24.8905 47.3272 24.545 48.2155C24.1996 49.0544 23.7061 49.844 23.1139 50.4855C22.5217 51.127 21.7815 51.6699 20.9426 52.114C20.4984 52.3608 20.005 52.5582 19.5115 52.7062C19.3141 52.7556 19.3141 53.101 19.5115 53.1503C19.9556 53.2984 20.3504 53.4958 20.7452 53.7919C21.4854 54.3347 22.0776 55.223 22.5711 56.358L24.9892 62.0825C25.0385 62.2305 24.9398 62.3786 24.7918 62.4279L18.3764 63.1682C18.2777 63.1682 18.1791 63.1188 18.1297 63.0201L15.6129 57.1476C15.4155 56.7035 15.2181 56.3087 15.0207 56.0126C14.8233 55.7165 14.6259 55.4697 14.4285 55.3217C14.2311 55.1736 13.9351 55.0749 13.6883 55.0256C13.3922 54.9763 13.0468 54.9763 12.652 55.0256L10.1845 55.3217C10.0858 55.3217 9.98715 55.4204 9.98715 55.5684L9.69106 63.9084C9.69106 64.0071 9.59236 64.1058 9.49366 64.1551L3.7692 64.7967C3.62115 64.7967 3.47311 64.698 3.47311 64.5499ZM15.3168 49.8933C15.8597 49.844 16.3531 49.6959 16.7973 49.5479C17.2414 49.3505 17.5869 49.1531 17.883 48.857C18.1791 48.5609 18.4258 48.2155 18.5738 47.87C18.7219 47.4752 18.8206 47.0804 18.8699 46.5869C18.9193 45.6493 18.6232 44.9584 18.0804 44.5636C17.4882 44.1195 16.6492 43.9714 15.5636 44.1195L10.6287 44.6623C10.53 44.6623 10.4313 44.761 10.4313 44.9091L10.2339 50.2881C10.2339 50.4362 10.3326 50.5349 10.4806 50.5349L15.3168 49.8933Z" fill="#FCFCFC"/>
<path d="M51.6395 49.8922C51.5901 50.6818 51.6888 51.3726 51.7875 51.9648C51.9356 52.557 52.133 53.0505 52.4291 53.3959C52.7252 53.7907 53.12 54.0375 53.5641 54.1855C54.0082 54.3336 54.5511 54.3829 55.0939 54.3336C55.5874 54.2842 55.9822 54.1362 56.377 53.9881C56.7224 53.7907 57.0679 53.544 57.364 53.2479C57.6601 52.9518 57.8575 52.6064 58.0548 52.2116C58.2029 51.8661 58.3509 51.4713 58.4496 51.0765C58.4496 50.9778 58.5483 50.9285 58.647 50.8791L64.0261 50.287C64.1741 50.287 64.3222 50.3857 64.2728 50.5831C64.0754 51.7181 63.73 52.7544 63.2365 53.692C62.6936 54.7284 62.0028 55.666 61.2132 56.5049C60.3742 57.2945 59.486 57.9854 58.4003 58.4789C57.364 58.9724 56.1796 59.3178 54.9459 59.4659C54.0082 59.5646 53.12 59.5646 52.3304 59.4659C51.4914 59.3672 50.7512 59.1204 50.0603 58.8243C49.3694 58.4789 48.7279 58.0841 48.1851 57.5906C47.6422 57.0971 47.1981 56.4556 46.8033 55.7647C46.4085 55.0738 46.1618 54.2842 45.9644 53.4453C45.767 52.6064 45.7176 51.6687 45.767 50.6324C45.8163 49.6454 45.9644 48.6584 46.2111 47.7702C46.4579 46.8819 46.8033 46.043 47.1981 45.2534C47.6422 44.4638 48.1357 43.7729 48.7279 43.1314C49.3201 42.4898 49.9616 41.947 50.7019 41.4535C51.4421 40.96 52.2317 40.5652 53.0706 40.2691C53.9095 39.973 54.7978 39.7756 55.7355 39.6276C56.9692 39.4795 58.1042 39.5289 59.1405 39.825C60.1768 40.0717 61.0651 40.5652 61.8054 41.1574C62.5456 41.7989 63.1871 42.5885 63.6313 43.5262C64.0754 44.4144 64.3222 45.4014 64.4702 46.4871C64.4702 46.6351 64.3715 46.7338 64.2728 46.7338L58.7951 47.2767C58.6964 47.2767 58.5483 47.2273 58.5483 47.0793C58.499 46.7338 58.4003 46.3884 58.2522 46.0923C58.1042 45.7469 57.9068 45.4508 57.6601 45.204C57.4133 44.9573 57.1172 44.8092 56.7224 44.7105C56.377 44.6118 55.9328 44.5625 55.4394 44.6612C54.8472 44.7105 54.3537 44.9079 53.8602 45.1547C53.4161 45.4014 53.0213 45.7469 52.6758 46.191C52.3304 46.6351 52.0836 47.178 51.8862 47.7702C51.7382 48.4117 51.6395 49.1026 51.6395 49.8922Z" fill="#FCFCFC"/>
<path d="M75.6711 42.7381L75.8191 32.3255C75.8191 32.2268 75.9178 32.1281 76.0165 32.0788L81.3956 31.4866C81.5436 31.4866 81.6423 31.5853 81.6423 31.7333L81.2475 55.7169C81.2475 55.8156 81.1488 55.9143 81.0501 55.9636L75.6711 56.6052C75.523 56.6052 75.4243 56.5065 75.4243 56.3584L75.4737 52.4105C75.4737 52.3612 75.4737 52.3118 75.523 52.2625L79.2736 47.6237C79.3229 47.525 79.3229 47.4263 79.2736 47.3276L75.6711 42.9355C75.6711 42.8368 75.6711 42.7875 75.6711 42.7381Z" fill="#FCFCFC"/>
<path d="M70.7349 47.7225L62.543 57.6416C62.3949 57.7897 62.543 58.0364 62.7404 58.0364L69.3038 57.2962C69.3531 57.2962 69.4025 57.2469 69.4518 57.1975L73.3504 52.3613L75.5711 49.5978L77.2983 47.4758L75.6698 45.4525L73.2517 42.5409L69.9946 38.5436C69.9453 38.4943 69.8466 38.4449 69.7972 38.4449L63.6286 39.1358C63.4312 39.1358 63.3326 39.3826 63.4806 39.5306L70.7349 47.7225Z" fill="#FCFCFC"/>
<path d="M101.138 47.1792C101.286 47.1792 101.434 47.3272 101.385 47.4752C101.089 48.4622 100.694 49.3505 100.151 50.1894C99.5589 51.1271 98.868 51.9166 98.0785 52.6075C97.2889 53.2984 96.3513 53.8413 95.3643 54.2854C94.3773 54.7295 93.2916 55.0256 92.1566 55.1243C91.219 55.223 90.3307 55.223 89.4918 55.1243C88.6528 55.0256 87.9126 54.7789 87.2217 54.4334C86.5308 54.088 85.9386 53.6932 85.3958 53.1504C84.853 52.6075 84.4088 52.0153 84.0634 51.3245C83.7179 50.6336 83.4219 49.844 83.2738 49.0051C83.0764 48.1661 83.0271 47.2285 83.0764 46.2415C83.1258 45.2545 83.2738 44.3169 83.4712 43.4286C83.7179 42.5404 84.014 41.7014 84.4582 40.9118C84.853 40.1223 85.3465 39.4314 85.9386 38.7898C86.5308 38.1483 87.1724 37.5561 87.8632 37.112C88.5541 36.6185 89.3437 36.2237 90.1826 35.9276C91.0216 35.6315 91.9099 35.3848 92.8475 35.2861C93.7851 35.1874 94.6734 35.1874 95.463 35.2861C96.2526 35.3848 96.9928 35.6315 97.6837 35.9276C98.3746 36.273 98.9667 36.6678 99.4602 37.2107C100.003 37.7535 100.398 38.3457 100.793 39.0366C101.138 39.7275 101.385 40.517 101.582 41.356C101.73 42.1949 101.829 43.1325 101.78 44.1195C101.78 44.613 101.73 45.0571 101.632 45.5506L88.6035 47.0311C88.6528 47.6726 88.8009 48.2155 88.9983 48.6596C89.1957 49.1038 89.4424 49.4985 89.7879 49.7946C90.1333 50.0907 90.5281 50.2881 90.9722 50.4362C91.4164 50.5842 91.9592 50.5842 92.5514 50.5349C93.4397 50.4362 94.1306 50.1401 94.7227 49.6959C95.2656 49.2518 95.7591 48.6596 96.1045 47.87C96.1539 47.8207 96.2032 47.722 96.3019 47.722L101.138 47.1792ZM96.0058 42.9351C96.1538 42.9351 96.2526 42.7871 96.2032 42.6884C95.8578 40.517 94.6734 39.5301 92.6501 39.7768C91.5644 39.9249 90.6761 40.3197 90.0346 41.0105C89.4424 41.6521 88.9983 42.491 88.7515 43.5273C88.7022 43.6754 88.8502 43.8234 88.9983 43.8234L96.0058 42.9351Z" fill="#FCFCFC"/>
<path d="M115.101 51.7197C115.101 51.8184 115.052 51.9171 114.953 51.9171C114.164 52.2132 113.473 52.4599 112.782 52.6079C112.042 52.8053 111.4 52.9534 110.759 53.0027C108.637 53.2495 107.058 52.8053 106.021 51.6703C104.985 50.5353 104.491 48.7094 104.59 46.2419L104.837 39.037L102.863 39.2838C102.715 39.2838 102.616 39.1851 102.616 39.037L102.764 34.8424C102.764 34.7437 102.863 34.645 102.962 34.5956L104.985 34.3489L105.182 28.9205C105.182 28.8218 105.281 28.7231 105.38 28.6738L110.759 28.0322C110.907 28.0322 111.005 28.1309 111.005 28.279L110.808 33.6086L115.447 33.0658C115.595 33.0658 115.694 33.1645 115.694 33.3125L115.546 37.5072C115.546 37.6059 115.447 37.7046 115.348 37.7539L110.611 38.2968L110.364 45.5017C110.315 46.4887 110.463 47.2289 110.808 47.6237C111.154 48.0185 111.696 48.2159 112.486 48.1172C112.831 48.0678 113.177 48.0185 113.621 47.8705C113.966 47.7718 114.361 47.6237 114.855 47.4757C115.003 47.4263 115.151 47.525 115.151 47.7224L115.101 51.7197Z" fill="#FCFCFC"/>
<path d="M40.1918 57.9857C39.3035 58.5779 38.2178 58.9233 37.1815 59.1207C35.701 59.4168 34.3686 60.4038 32.9375 61.4401C30.7168 62.9699 28.6441 62.0323 28.4961 59.3674C28.3974 57.1467 27.6571 55.2221 26.9169 53.1988C25.5845 49.5964 27.0156 45.5498 30.0752 43.2797C31.0129 42.5888 32.0985 42.046 33.2336 41.7499C34.566 41.3551 35.9478 40.911 37.0828 40.072C38.2178 39.2331 39.5009 38.4929 40.932 39.1344C42.5112 39.8746 42.4125 41.4538 42.5605 42.9343C42.6592 44.0199 42.8072 45.2043 43.3007 46.1419C45.5214 50.2872 44.189 55.3702 40.1918 57.9857ZM39.6489 55.5182C39.7476 55.5676 39.8957 55.5182 39.945 55.4195C40.5866 53.9884 40.4385 52.5573 39.3528 51.4716C38.5632 50.6327 38.81 50.0405 39.0567 49.1522C39.6983 46.9315 40.1918 44.6615 40.5865 42.3914C40.6852 41.9473 40.5372 41.1084 40.0437 40.911C39.4515 40.6642 38.7113 40.9603 38.4152 41.3551C36.8854 43.0823 35.4049 44.9082 34.0725 46.7835C33.5297 47.5731 33.1349 48.0172 32.0492 47.9678C30.5194 47.8691 29.2857 48.56 28.6935 49.8925C28.6441 49.9912 28.6935 50.1392 28.7922 50.1885C32.4933 51.9651 36.0465 53.7417 39.6489 55.5182ZM30.9635 53.7417C30.8155 53.643 30.6181 53.7417 30.6181 53.9391C30.4207 55.8637 30.2233 57.4428 30.2233 59.022C30.2233 60.0583 30.9635 60.6505 31.8518 59.9103C33.1349 58.874 34.2699 57.6402 35.5036 56.4559C35.6023 56.3572 35.6023 56.1598 35.4543 56.0611C33.8751 55.2221 32.592 54.5312 30.9635 53.7417Z" fill="#FCFCFC"/>
</svg>