<svg xmlns="http://www.w3.org/2000/svg" width="157" height="222" viewBox="0 0 157 222" fill="none">
<g clip-path="url(#clip0_54_28561)">
<path opacity="0.1" d="M53.2436 90.5772V88.9011H51.5674V90.5772H53.2436ZM53.2436 123.765H51.5674V125.441H53.2436V123.765ZM31.5208 158.159L32.9873 157.347L32.0473 155.649L30.5042 156.827L31.5208 158.159ZM2.25554 180.485L1.23891 179.153L0.00562286 180.094L0.848309 181.395L2.25554 180.485ZM110.567 106.568H108.891V107.962L110.262 108.216L110.567 106.568ZM110.567 104.757L110.23 103.116L108.891 103.39V104.757H110.567ZM9.7982 36.8738L8.43986 35.8917L7.55974 37.1089L8.67359 38.1168L9.7982 36.8738ZM35.1413 59.8034L34.0168 61.0463L35.4838 62.3736L36.5521 60.7084L35.1413 59.8034ZM51.5674 90.5772V123.765H54.9197V90.5772H51.5674ZM53.2436 125.441H74.0612V122.089H53.2436V125.441ZM74.0612 125.441C86.3903 125.441 95.7859 127.972 102.061 132.651C108.258 137.273 111.606 144.136 111.606 153.332H114.958C114.958 143.218 111.217 135.298 104.064 129.964C96.9885 124.687 86.7733 122.089 74.0612 122.089V125.441ZM111.606 153.332V155.444H114.958V153.332H111.606ZM111.606 155.444C111.606 164.863 108.504 172.291 102.778 177.385C97.0263 182.502 88.4185 185.447 77.0782 185.447V188.799C88.9682 188.799 98.4636 185.71 105.006 179.889C111.574 174.046 114.958 165.635 114.958 155.444H111.606ZM77.0782 185.447C65.6214 185.447 56.9155 182.517 49.9475 177.606C42.9524 172.678 37.5963 165.673 32.9873 157.347L30.0544 158.971C34.7982 167.54 40.4543 175.018 48.0165 180.347C55.6058 185.695 65.0021 188.799 77.0782 188.799V185.447ZM30.5042 156.827L1.23891 179.153L3.27219 181.818L32.5375 159.492L30.5042 156.827ZM0.848309 181.395C7.5733 191.789 16.1877 201.809 28.3877 209.222C40.5987 216.641 56.2942 221.383 77.0782 221.383V218.031C56.8305 218.031 41.7521 213.42 30.1284 206.357C18.4938 199.288 10.2128 189.697 3.66278 179.574L0.848309 181.395ZM77.0782 221.383C100.592 221.383 120.374 215.123 134.315 204.009C148.289 192.868 156.292 176.924 156.292 157.857H152.94C152.94 175.9 145.405 190.881 132.226 201.387C119.014 211.92 100.027 218.031 77.0782 218.031V221.383ZM156.292 157.857C156.292 142.53 151.249 130.421 142.981 121.565C134.733 112.73 123.371 107.234 110.872 104.919L110.262 108.216C122.202 110.427 132.865 115.641 140.53 123.853C148.177 132.043 152.94 143.316 152.94 157.857H156.292ZM112.243 106.568V104.757H108.891V106.568H112.243ZM110.905 106.399C133.541 101.748 152.671 84.8943 152.671 56.7863H149.319C149.319 82.9848 131.642 98.7157 110.23 103.116L110.905 106.399ZM152.671 56.7863C152.671 39.3563 145.177 25.1378 132.208 15.3231C119.282 5.54156 101.019 0.199951 79.4919 0.199951V3.55222C100.505 3.55222 117.993 8.77029 130.184 17.9962C142.332 27.1888 149.319 40.4254 149.319 56.7863H152.671ZM79.4919 0.199951C61.4378 0.199951 47.2705 4.10489 35.7906 10.5599C24.3197 17.0099 15.6265 25.9528 8.43986 35.8917L11.1564 37.8559C18.15 28.184 26.5031 19.628 37.4337 13.4819C48.3554 7.34074 61.9448 3.55222 79.4919 3.55222V0.199951ZM8.67359 38.1168L34.0168 61.0463L36.2658 58.5604L10.9226 35.6309L8.67359 38.1168ZM36.5521 60.7084C46.5614 45.1057 60.5542 36.1363 78.285 36.1363V32.784C59.2079 32.784 44.2371 42.5204 33.7305 58.8983L36.5521 60.7084ZM78.285 36.1363C87.4882 36.1363 94.8247 38.6909 99.8371 43.1429C104.827 47.5741 107.684 54.0333 107.684 62.217H111.036C111.036 53.2035 107.86 45.7842 102.063 40.6364C96.2904 35.5092 88.0883 32.784 78.285 32.784V36.1363ZM107.684 62.217V64.3289H111.036V62.217H107.684ZM107.684 64.3289C107.684 71.4254 105.078 77.4827 99.7106 81.8045C94.2984 86.1623 85.895 88.9011 74.0612 88.9011V92.2534C86.3635 92.2534 95.6091 89.4106 101.813 84.4157C108.061 79.3845 111.036 72.3176 111.036 64.3289H107.684ZM74.0612 88.9011H53.2436V92.2534H74.0612V88.9011Z" fill="#F1F3F3"/>
</g>
<defs>
<clipPath id="clip0_54_28561">
<rect width="156.719" height="221.25" fill="white" transform="translate(0.00562286 0.199951)"/>
</clipPath>
</defs>
</svg>