<svg xmlns="http://www.w3.org/2000/svg" width="157" height="222" viewBox="0 0 157 222" fill="none">
<g clip-path="url(#clip0_54_28557)">
<path opacity="0.1" d="M154.206 185.571H155.909V183.867H154.206V185.571ZM49.6472 185.571L48.5646 184.256L44.8979 187.274H49.6472V185.571ZM94.7208 148.469L95.8033 149.784L95.805 149.783L94.7208 148.469ZM2.12062 55.2558L0.499761 54.7329L0.00576782 56.2652L1.50737 56.845L2.12062 55.2558ZM37.0756 68.7472L36.4624 70.3364L38.2102 71.0108L38.7161 69.2076L37.0756 68.7472ZM72.9505 123.326L74.074 124.607L74.0748 124.606L72.9505 123.326ZM5.8001 182.198L4.6775 180.917L4.09664 181.426V182.198H5.8001ZM5.8001 219.606H4.09664V221.309H5.8001V219.606ZM154.206 219.606V221.309H155.909V219.606H154.206ZM154.206 183.867H49.6472V187.274H154.206V183.867ZM50.7297 186.886L95.8033 149.784L93.6382 147.154L48.5646 184.256L50.7297 186.886ZM95.805 149.783C125.48 125.309 150.39 102.147 150.39 65.681H146.983C146.983 100.352 123.447 122.57 93.6374 147.155L95.805 149.783ZM150.39 65.681C150.39 46.8733 143.798 30.4586 131.341 18.7528C118.89 7.05294 100.734 0.199951 77.8565 0.199951V3.60687C100.053 3.60687 117.312 10.2453 129.008 21.2356C140.697 32.2198 146.983 47.6939 146.983 65.681H150.39ZM77.8565 0.199951C55.7439 0.199951 38.7263 6.51437 26.0534 16.5507C13.3958 26.5742 5.18002 40.223 0.499761 54.7329L3.7423 55.7788C8.25988 41.7727 16.1418 28.7453 28.1682 19.2216C40.1776 9.71072 56.4295 3.60687 77.8565 3.60687V0.199951ZM1.50737 56.845L36.4624 70.3364L37.6889 67.158L2.73386 53.6666L1.50737 56.845ZM38.7161 69.2076C41.1231 60.6311 44.8417 52.9741 50.5253 47.4727C56.1655 42.0133 63.8575 38.5619 74.4837 38.5619V35.155C63.0338 35.155 54.474 38.9092 48.1558 45.0248C41.8811 51.0984 37.9342 59.3859 35.4361 68.2869L38.7161 69.2076ZM74.4837 38.5619C82.8962 38.5619 90.3701 41.0703 95.7139 45.6969C101.029 50.2979 104.362 57.099 104.362 65.9876H107.769C107.769 56.1722 104.051 48.4088 97.9437 43.1211C91.8666 37.8591 83.5495 35.155 74.4837 35.155V38.5619ZM104.362 65.9876V69.9737H107.769V65.9876H104.362ZM104.362 69.9737C104.362 87.8865 94.4602 102.166 71.8263 122.046L74.0748 124.606C96.822 104.626 107.769 89.469 107.769 69.9737H104.362ZM71.828 122.045L4.6775 180.917L6.92353 183.479L74.074 124.607L71.828 122.045ZM4.09664 182.198V219.606H7.50356V182.198H4.09664ZM5.8001 221.309H154.206V217.902H5.8001V221.309ZM155.909 219.606V185.571H152.502V219.606H155.909Z" fill="#F1F3F3"/>
</g>
<defs>
<clipPath id="clip0_54_28557">
<rect width="156.718" height="221.45" fill="white" transform="translate(0.00576782 0.199951)"/>
</clipPath>
</defs>
</svg>