<svg xmlns="http://www.w3.org/2000/svg" width="22" height="23" viewBox="0 0 22 23" fill="none">
<path d="M4.125 2.03613C2.6082 2.03613 1.375 3.26934 1.375 4.78613V18.5361C1.375 20.0529 2.6082 21.2861 4.125 21.2861H17.875C19.3918 21.2861 20.625 20.0529 20.625 18.5361V4.78613C20.625 3.26934 19.3918 2.03613 17.875 2.03613H4.125ZM16.891 5.64551L12.4309 10.7416L17.6773 17.6768H13.5695L10.3555 13.4701L6.67305 17.6768H4.63203L9.40156 12.224L4.36992 5.64551H8.58086L11.4898 9.49121L14.85 5.64551H16.891ZM15.2668 16.4564L7.96641 6.80137H6.75039L14.1324 16.4564H15.2625H15.2668Z" fill="white"/>
</svg>